<svg xmlns="http://www.w3.org/2000/svg" width="26.536" height="35.043" viewBox="0 0 26.536 35.043"><g transform="translate(-14.253 -9.846)"><g transform="translate(14.253 9.846)"><path d="M-277.316,291.593-280.7,298.6c-.183.378-.345.766-.552,1.132a2.013,2.013,0,0,1-2.66.918,1.861,1.861,0,0,1-.987-2.543q1.546-3.725,3.142-7.431a23.832,23.832,0,0,0,1.85-9.048,1.308,1.308,0,0,0-1.131-1.5c-2.6-.715-5.188-1.489-7.777-2.25-1.4-.411-2.037-1.342-1.715-2.459s1.509-1.606,2.913-1.238q3.916,1.028,7.841,2.02a12.87,12.87,0,0,0,6.422-.327c2.094-.529,4.177-1.1,6.26-1.669,1.456-.4,2.521.021,2.912,1.179.379,1.124-.283,2.1-1.735,2.523-2.521.737-5.035,1.5-7.575,2.172-1,.265-1.247.767-1.266,1.716-.08,4.151,1.389,7.913,3,11.65q.911,2.118,1.828,4.234c.558,1.294.236,2.364-.857,2.848a2.048,2.048,0,0,1-2.805-1.21C-274.8,296.84-275.99,294.346-277.316,291.593Z" transform="translate(290.609 -265.801)" fill="#fff"/><path d="M-242.882,249.288a4.4,4.4,0,0,1-4.443-4.418,4.459,4.459,0,0,1,4.376-4.391,4.459,4.459,0,0,1,4.443,4.443A4.4,4.4,0,0,1-242.882,249.288Z" transform="translate(256.207 -240.479)" fill="#fff"/></g></g></svg>