<svg xmlns="http://www.w3.org/2000/svg" width="81.231" height="24" viewBox="0 0 81.231 24">
  <g id="Group_40375" data-name="Group 40375" transform="translate(-1895.299 2.245)">
    <path id="Path_46587" data-name="Path 46587" d="M1935.9,21.755q-18.124,0-36.248,0a4.159,4.159,0,0,1-4.149-2.941,4.5,4.5,0,0,1-.2-1.326q0-7.732,0-15.464a4.159,4.159,0,0,1,4.27-4.266q36.341,0,72.683,0a4.159,4.159,0,0,1,4.27,4.265q.01,7.695,0,15.389a4.174,4.174,0,0,1-4.346,4.342Q1954.038,21.757,1935.9,21.755Z" fill="#f7f7f7"/>
    <g id="Group_40360" data-name="Group 40360" transform="translate(1902.843 0.929)">
      <g id="Group_40356" data-name="Group 40356">
        <path id="Path_46588" data-name="Path 46588" d="M2001.811,89.737a4.494,4.494,0,0,1,1.932.471,2.146,2.146,0,0,0,1.775.006,5,5,0,0,1,2.96-.477,4.428,4.428,0,0,1,2.359,1.279c.2.2.206.292-.048.471a3.483,3.483,0,0,0-.4,5.561,3.1,3.1,0,0,0,.86.56c.185.077.243.151.161.358a9.149,9.149,0,0,1-1.988,3.2,2.375,2.375,0,0,1-2.985.583,3.773,3.773,0,0,0-3.191.025,2.274,2.274,0,0,1-2.8-.5,10.007,10.007,0,0,1-2.649-4.9,5.978,5.978,0,0,1,.472-4.541A3.96,3.96,0,0,1,2001.811,89.737Z" transform="translate(-1997.563 -85.904)"/>
        <path id="Path_46589" data-name="Path 46589" d="M2083.781,41.183a3.462,3.462,0,0,1-3,3.183c-.362.047-.458-.043-.443-.37a3.731,3.731,0,0,1,3.1-3.21C2083.876,40.713,2083.779,40.967,2083.781,41.183Z" transform="translate(-2073.387 -40.772)"/>
      </g>
      <g id="Group_40359" data-name="Group 40359" transform="translate(19.151 0.173)">
        <g id="Group_40357" data-name="Group 40357" transform="translate(0 7.201)">
          <path id="Path_46590" data-name="Path 46590" d="M2429.8,164.4a2.25,2.25,0,0,0-1.842,1c-.032-.328.035-.674-.107-.829-.174-.19-.533-.038-.81-.07-.22-.026-.263.066-.255.272.088,2.368.026,4.736.043,7.1,0,.581,0,.581.576.581.7,0,.7,0,.7-.714v-2.194a2.28,2.28,0,0,0,3.533-.25,3.684,3.684,0,0,0,.107-3.869A2.1,2.1,0,0,0,2429.8,164.4Zm.836,4.214a1.358,1.358,0,0,1-1.543.657,1.281,1.281,0,0,1-.967-1.2,8.564,8.564,0,0,1,0-1.359,1.33,1.33,0,0,1,1.217-1.305,1.375,1.375,0,0,1,1.448,1.008,2.969,2.969,0,0,1,.161,1.076A2.335,2.335,0,0,1,2430.64,168.615Z" transform="translate(-2412.639 -162.198)"/>
          <path id="Path_46591" data-name="Path 46591" d="M2341.289,164.406a2.24,2.24,0,0,0-1.793.994c-.065-.323.066-.708-.133-.843s-.545-.029-.825-.049c-.207-.014-.242.073-.232.258.122,2.242.034,4.487.057,6.73.01,1.013,0,1.007,1.024.976.195-.006.249-.059.247-.251-.01-.785-.007-1.57,0-2.354,0-.082-.064-.192.054-.255a2.261,2.261,0,0,0,3.5-.343,3.529,3.529,0,0,0,.1-3.8A2.031,2.031,0,0,0,2341.289,164.406Zm.837,4.3a1.343,1.343,0,0,1-1.482.569,1.182,1.182,0,0,1-.964-1.076,4.041,4.041,0,0,1,.079-1.892,1.215,1.215,0,0,1,1.059-.893,1.3,1.3,0,0,1,1.306.576,2.334,2.334,0,0,1,.385,1.357A2.369,2.369,0,0,1,2342.126,168.706Z" transform="translate(-2330.681 -162.202)"/>
          <path id="Path_46592" data-name="Path 46592" d="M2239.408,137.154c-.121-.37-.119-.886-.411-1.065s-.761-.036-1.151-.068c-.283-.023-.4.083-.484.348-.691,2.17-1.4,4.336-2.1,6.5-.1.313-.187.632-.279.948a5.967,5.967,0,0,0,1.011.044c.2.021.274-.072.326-.251.173-.6.367-1.194.543-1.793.05-.171.113-.264.321-.26.7.015,1.4.011,2.1,0,.181,0,.252.062.3.234.177.612.376,1.217.56,1.826.042.137.07.249.257.243.377-.012.754,0,1.119,0,.049-.123-.013-.2-.038-.276Q2240.453,140.369,2239.408,137.154Zm-.311,3.443c-.576,0-1.153,0-1.729,0-.132,0-.176-.042-.135-.175.321-1.06.639-2.12.986-3.274.355,1.154.68,2.217,1.012,3.278C2239.278,140.577,2239.217,140.6,2239.1,140.6Z" transform="translate(-2234.988 -135.892)"/>
          <path id="Path_46593" data-name="Path 46593" d="M2537.825,138.726a4.261,4.261,0,0,0-1.039-.62,6.747,6.747,0,0,1-1.188-.579,1.015,1.015,0,0,1-.488-1.037,1,1,0,0,1,.845-.816,3.012,3.012,0,0,1,1.766.183c.074.026.139.106.231.049a3.845,3.845,0,0,0,.286-.934.272.272,0,0,0-.114-.085,3.6,3.6,0,0,0-3.421.22,1.98,1.98,0,0,0-.079,3.24,4.217,4.217,0,0,0,1.02.579,6.78,6.78,0,0,1,.976.425,1.221,1.221,0,0,1,.657,1.355,1.186,1.186,0,0,1-1.1.88,3.5,3.5,0,0,1-2.17-.448c-.083.275-.151.535-.241.787-.069.2.01.3.182.366a4.082,4.082,0,0,0,3.493-.033A2.138,2.138,0,0,0,2537.825,138.726Z" transform="translate(-2511.7 -134.562)"/>
          <path id="Path_46594" data-name="Path 46594" d="M2667.421,164.112a2.818,2.818,0,0,0-2.284,2.957,2.72,2.72,0,0,0,3.274,2.873,2.836,2.836,0,0,0,2.277-2.977c-.008-.083-.019-.255-.039-.425A2.7,2.7,0,0,0,2667.421,164.112Zm1.579,4.338a1.289,1.289,0,0,1-2.249-.054,2.617,2.617,0,0,1-.021-2.632,1.284,1.284,0,0,1,1.189-.734,1.32,1.32,0,0,1,1.2.784,2.631,2.631,0,0,1,.272,1.221A2.49,2.49,0,0,1,2669,168.449Z" transform="translate(-2633.403 -161.891)"/>
          <path id="Path_46595" data-name="Path 46595" d="M2805.352,167.367c.539.023,1.08.007,1.619.007H2808c.915,0,.932,0,.838-.935a2.294,2.294,0,0,0-1.415-2.145,2.521,2.521,0,0,0-3.24,1.323,3.545,3.545,0,0,0-.324,1.716,2.578,2.578,0,0,0,2.126,2.627,4.612,4.612,0,0,0,1.969-.1c.593-.15.568-.15.475-.765-.046-.3-.163-.276-.379-.206a3.754,3.754,0,0,1-1.6.133,1.5,1.5,0,0,1-1.364-1.33C2805.055,167.464,2805.076,167.355,2805.352,167.367Zm-.268-1.047a1.391,1.391,0,0,1,1.691-1.286,1.317,1.317,0,0,1,.888,1.3c-.01.172-.105.161-.218.161h-1.1c-.355,0-.71,0-1.064,0C2805.162,166.491,2805.054,166.493,2805.084,166.32Z" transform="translate(-2761.886 -161.935)"/>
          <path id="Path_46596" data-name="Path 46596" d="M2611.388,149.09c.706,0,.7,0,.681-.7,0-.189-.05-.262-.248-.252-.306.015-.614,0-.92.007-.174.006-.238-.048-.232-.228.012-.379,0-.759,0-1.187-.253.081-.449.144-.647.206-.593.185-.616.186-.585.8.017.344-.09.451-.422.414-.128-.014-.353-.091-.387.078a1.7,1.7,0,0,0,.012.8c.046.15.315.067.476.055.271-.021.317.086.318.333a30.092,30.092,0,0,0,.04,3.053,1.424,1.424,0,0,0,1.772,1.434c.967-.083.716-.05.733-.86,0-.169-.061-.193-.22-.182-.834.06-1.074-.164-1.086-1.013-.01-.675,0-1.349,0-2.024C2610.673,149.09,2610.673,149.09,2611.388,149.09Z" transform="translate(-2581.028 -145.834)"/>
          <path id="Path_46597" data-name="Path 46597" d="M2757.7,164.68c.052-.281-.1-.325-.335-.318a1.8,1.8,0,0,0-1.545,1.072c0-.069-.009-.137-.012-.206-.04-.768-.04-.757-.829-.762-.25,0-.3.077-.295.311.019,1.507.022,3.014.028,4.521,0,.834,0,.809.837.845.394.017.458-.116.449-.469-.025-.882-.02-1.764,0-2.647a1.39,1.39,0,0,1,1.072-1.474c.21-.037.5.123.609-.077.095-.168.023-.43.025-.651A.817.817,0,0,1,2757.7,164.68Z" transform="translate(-2716.34 -162.163)"/>
        </g>
        <g id="Group_40358" data-name="Group 40358" transform="translate(0.726)">
          <path id="Path_46598" data-name="Path 46598" d="M2246.3,45.742a5.608,5.608,0,0,0-1.211.025c-.2.022-.266.09-.261.295.014.539,0,1.079,0,1.618s.008,1.1,0,1.655c0,.188.057.264.243.272a6.468,6.468,0,0,0,1.1.005,1.839,1.839,0,0,0,1.753-1.472A1.792,1.792,0,0,0,2246.3,45.742Zm-1.3.535q0,1.378,0,2.756v.361l-.074.005v-.431c0-.931,0-1.862,0-2.793,0-.2.035-.339.3-.255C2244.955,45.932,2245,46.121,2245,46.277Zm2.136,2.187a1.469,1.469,0,0,1-1.585.661c-.167-.042-.13-.151-.131-.251,0-.4,0-.807,0-1.211s.006-.807,0-1.21c0-.155.044-.214.2-.219.547-.017,1.116-.041,1.459.477A1.741,1.741,0,0,1,2247.137,48.463Z" transform="translate(-2244.824 -45.527)"/>
          <path id="Path_46599" data-name="Path 46599" d="M2567.7,43.414c0-.26-.092-.3-.316-.3s-.325.054-.311.307c.023.4.006.8.006,1.213-.863-.518-1.569-.313-1.9.523a1.73,1.73,0,0,0-.121.827,1.273,1.273,0,0,0,.738,1.18,1.113,1.113,0,0,0,1.325-.343,1.437,1.437,0,0,1,.025.176c0,.3.222.183.369.2.215.029.19-.119.189-.258C2567.7,45.765,2567.688,44.589,2567.7,43.414Zm-1.3,3.335c-.452-.011-.765-.461-.718-1.051a1.324,1.324,0,0,1,.1-.423.667.667,0,0,1,.771-.42c.332.051.457.3.509.591a1.627,1.627,0,0,1,.017.244C2567.08,46.418,2566.842,46.759,2566.4,46.748Z" transform="translate(-2541.427 -43.114)"/>
          <path id="Path_46600" data-name="Path 46600" d="M2346.259,60.615c-.14.542-.277,1.085-.442,1.734-.2-.713-.374-1.322-.524-1.937a.333.333,0,0,0-.647,0c-.07.3-.162.59-.258.881a2.668,2.668,0,0,1-.349.937c-.141-.633-.279-1.242-.41-1.853-.075-.348-.353-.215-.533-.195-.234.026-.065.21-.038.306.208.743.441,1.479.643,2.223a.3.3,0,0,0,.355.266c.2,0,.337-.023.4-.263.141-.57.314-1.132.474-1.7l.064.011c.159.576.329,1.149.471,1.729a.24.24,0,0,0,.311.213c.144-.018.319.072.389-.164.255-.867.525-1.729.79-2.6C2346.39,60.114,2346.389,60.113,2346.259,60.615Z" transform="translate(-2335.733 -58.881)"/>
          <path id="Path_46601" data-name="Path 46601" d="M2788.1,45.417a.974.974,0,0,0-1.783-.613c0-.515-.02-.943.007-1.369.018-.286-.131-.28-.333-.283s-.312.007-.309.265q.022,1.782,0,3.565c0,.272.135.257.318.255s.337.025.323-.253c-.022-.44-.009-.882,0-1.323,0-.5.21-.754.6-.758s.567.231.575.735c.008.465.009.931,0,1.4-.006.28.194.19.333.2s.3.05.29-.2C2788.1,46.5,2788.135,45.954,2788.1,45.417Z" transform="translate(-2745.783 -43.149)"/>
          <path id="Path_46602" data-name="Path 46602" d="M2637.375,59.879a1.364,1.364,0,0,0-1.38,1.443,1.343,1.343,0,0,0,1.348,1.465,1.384,1.384,0,0,0,1.364-1.466A1.34,1.34,0,0,0,2637.375,59.879Zm-.038,2.452c-.43.006-.72-.4-.713-1.013.006-.572.3-.981.716-.989s.725.416.715,1.015C2638.045,61.918,2637.749,62.325,2637.337,62.331Z" transform="translate(-2607.137 -58.642)"/>
          <path id="Path_46603" data-name="Path 46603" d="M2477.561,59.886a1.36,1.36,0,0,0-1.4,1.42,1.343,1.343,0,0,0,1.326,1.485,1.375,1.375,0,0,0,1.385-1.442A1.342,1.342,0,0,0,2477.561,59.886Zm-.089,2.45c-.424-.012-.7-.43-.684-1.04.013-.57.325-.974.742-.96s.685.41.688.969C2478.222,61.918,2477.91,62.348,2477.473,62.336Z" transform="translate(-2459.092 -58.648)"/>
          <path id="Path_46604" data-name="Path 46604" d="M2687.009,60.8a1.053,1.053,0,0,0-.57-1.068,1.077,1.077,0,0,0-1.3.386c.083-.426-.134-.422-.375-.415-.322.009-.172.243-.174.376-.009.7.011,1.4,0,2.1,0,.238.033.35.312.345.252-.005.341-.065.328-.329-.022-.44-.012-.882,0-1.323s.224-.682.594-.689.572.226.581.691.018.932,0,1.4c-.013.283.156.24.328.246s.3.006.294-.24C2687,61.776,2687.021,61.286,2687.009,60.8Z" transform="translate(-2652.115 -58.418)"/>
          <path id="Path_46605" data-name="Path 46605" d="M2298.87,59.879a1.371,1.371,0,0,0-1.369,1.456,1.344,1.344,0,0,0,1.327,1.45,1.372,1.372,0,0,0,1.383-1.477A1.331,1.331,0,0,0,2298.87,59.879Zm-.058,2.451c-.42-.016-.7-.44-.681-1.045.015-.565.335-.973.75-.954s.678.414.68.975C2299.562,61.923,2299.253,62.346,2298.812,62.33Z" transform="translate(-2293.615 -58.642)"/>
          <path id="Path_46606" data-name="Path 46606" d="M2409.662,60.432a.929.929,0,0,0-1.294-.751,1.9,1.9,0,0,0-.55.4c.092-.43-.135-.414-.368-.4-.324.013-.159.248-.16.379-.008.723.017,1.447,0,2.17-.006.267.13.255.315.259s.32-.011.308-.268c-.022-.453-.013-.907,0-1.361s.238-.712.62-.707c.363,0,.55.239.555.713s.013.932,0,1.4c-.008.229.122.243.276.217.131-.022.361.113.354-.172A11.036,11.036,0,0,0,2409.662,60.432Z" transform="translate(-2395.265 -58.394)"/>
          <path id="Path_46607" data-name="Path 46607" d="M2832.525,59.826a1.225,1.225,0,0,0-1.4.169,1.663,1.663,0,0,0-.374,1.794,1.269,1.269,0,0,0,1.4.769c.183-.008.364-.043.546-.064.167-.019.262-.069.229-.278s-.117-.213-.3-.176a1.962,1.962,0,0,1-.694.038c-.448-.068-.642-.274-.7-.772.528,0,1.053,0,1.579,0,.136,0,.256.019.29-.18A1.389,1.389,0,0,0,2832.525,59.826Zm-.014.931c-.042.216-.268.068-.407.1a.965.965,0,0,1-.219,0,2.006,2.006,0,0,1-.256,0c-.126-.017-.312.075-.367-.052-.061-.142.052-.3.145-.431a.639.639,0,0,1,.85-.157A.548.548,0,0,1,2832.511,60.756Z" transform="translate(-2787.419 -58.457)"/>
          <path id="Path_46608" data-name="Path 46608" d="M2524.761,60.8a1.041,1.041,0,0,0-.474-1.044,1.668,1.668,0,0,0-1.422.021c-.178.068-.094.2-.073.308.032.168.125.129.24.078a1.3,1.3,0,0,1,.648-.1.44.44,0,0,1,.429.338c.046.165.059.272-.179.277a1.7,1.7,0,0,0-1.071.328.889.889,0,0,0-.3.959.831.831,0,0,0,.786.559,1.075,1.075,0,0,0,.853-.353c.017.393.275.326.476.3.281-.04.089-.254.093-.379C2524.783,61.655,2524.769,61.225,2524.761,60.8Zm-.589.6a.58.58,0,0,1-.482.651.4.4,0,0,1-.5-.2.451.451,0,0,1,.082-.542.908.908,0,0,1,.784-.222C2524.267,61.1,2524.131,61.3,2524.172,61.4Z" transform="translate(-2502.033 -58.384)"/>
          <path id="Path_46609" data-name="Path 46609" d="M2752.464,52.843c.158.025.277.008.281-.218s-.106-.28-.29-.246c-.356.064-.449-.1-.41-.424.009-.071.076-.2-.094-.223a.473.473,0,0,0-.509.411c0,.169-.04.259-.225.235s-.2.081-.2.224.019.272.215.244.206.1.205.248c0,.454-.015.909.014,1.361a.716.716,0,0,0,.8.764.731.731,0,0,0,.11,0c.16-.025.347.018.343-.263,0-.244-.1-.278-.31-.267-.238.013-.313-.168-.322-.366-.015-.355.01-.713-.026-1.066S2752.131,52.791,2752.464,52.843Z" transform="translate(-2713.674 -51.093)"/>
          <path id="Path_46610" data-name="Path 46610" d="M2455.906,45.2c0-.6-.014-1.2.006-1.8.008-.257-.11-.279-.308-.265-.165.012-.338-.047-.334.24q.019,1.8,0,3.6c0,.282.158.239.329.246.189.008.323.006.313-.259C2455.892,46.371,2455.906,45.783,2455.906,45.2Z" transform="translate(-2439.744 -43.128)"/>
          <path id="Path_46611" data-name="Path 46611" d="M2246.179,48.4c.005.931,0,1.862,0,2.793v.431l.074-.005v-.361q0-1.378,0-2.756c0-.156-.046-.345.222-.355C2246.214,48.057,2246.177,48.192,2246.179,48.4Z" transform="translate(-2246.079 -47.747)"/>
        </g>
      </g>
    </g>
  </g>
</svg>
