<svg xmlns="http://www.w3.org/2000/svg" width="140" height="60" viewBox="0 0 140 60">
  <g id="Group_40379" data-name="Group 40379" transform="translate(-2904 -764)">
    <rect id="Rectangle_2964" data-name="Rectangle 2964" width="140" height="60" transform="translate(2904 764)" fill="#fff" opacity="0"/>
    <g id="Group_40378" data-name="Group 40378" transform="translate(-1.095 2)">
      <g id="Group_40377" data-name="Group 40377" transform="translate(2916.762 762.73)">
        <g id="Group_40376" data-name="Group 40376" transform="translate(5.332 4.27)">
          <path id="Path_46690" data-name="Path 46690" d="M14.875,41.288c.014.079.036.154.127.166h0c.063.059.138.032.208.032H45.219c.044,0,.09.009.125-.032h0a.143.143,0,0,0,.153-.1.086.086,0,0,0-.056-.121c-.055-.085-.158-.114-.2-.206a1.66,1.66,0,0,0-.279-.329c-.034-.038-.085-.061-.114-.1-.177-.253-.421-.438-.609-.679-.057-.072-.146-.116-.2-.192a7.291,7.291,0,0,0-.568-.67c-.386-.451-.81-.864-1.2-1.318a7.8,7.8,0,0,0-.537-.6c-.162-.153-.293-.339-.457-.49a.616.616,0,0,1-.145-.172.1.1,0,0,0-.092-.066c-.071-.11-.186-.173-.26-.274a5.912,5.912,0,0,0-.421-.507c-.213-.226-.417-.463-.629-.689s-.449-.478-.661-.731a6.211,6.211,0,0,0-.554-.616,1.475,1.475,0,0,1-.341-.466.414.414,0,0,1,.189-.019h5.144c.106,0,.211,0,.317,0,.218.008.29-.1.286-.312-.01-.473,0-.946,0-1.418a.368.368,0,0,0,.064-.286q0-13.152,0-26.3a1.191,1.191,0,0,0-.048-.317.249.249,0,0,0-.257-.208c-.144,0-.288,0-.433,0H15.466c-.111,0-.222,0-.333,0a.2.2,0,0,0-.225.187,1.312,1.312,0,0,0-.036.3q0,18.2,0,36.4A.715.715,0,0,0,14.875,41.288Zm23.732-4.079c.271.333.556.648.847.957l.019.02a.173.173,0,0,0,.047.115c.235.3.5.577.741.875.06.074.192.131.15.232s-.171.043-.261.043q-11.059,0-22.12,0c-.189,0-.378-.01-.566.008-.125.012-.174-.045-.174-.172,0-.048,0-.1,0-.144q0-2.76,0-5.519c0-.06,0-.12,0-.18.006-.1.05-.153.149-.145.122.01.244.008.367.008q8.484,0,16.968,0a.679.679,0,0,1,.558.25c.466.532.917,1.076,1.395,1.592.384.415.75.851,1.126,1.274a.358.358,0,0,0,.169.124.245.245,0,0,1,.022.033C38.238,36.785,38.431,36.991,38.607,37.209ZM17.422,6.431l22.6,0,1.65,0c.17,0,.243.086.22.269a1.928,1.928,0,0,0-.013.233q0,11.837,0,23.674c0,.06,0,.12,0,.18-.01.122-.056.165-.172.166s-.256-.006-.384-.006H17.771c-.122,0-.244,0-.367.006s-.165-.02-.187-.166a1.127,1.127,0,0,1-.009-.179q0-11.783,0-23.566c0-.126,0-.252,0-.378C17.21,6.472,17.25,6.431,17.422,6.431Z" transform="translate(-4.868 -4.27)" fill="#00a04e"/>
          <path id="Path_46691" data-name="Path 46691" d="M15.9,44.933a.339.339,0,0,0,.1-.106,1.115,1.115,0,0,1,.2-.219c.027-.032.042-.072.067-.105a4.318,4.318,0,0,1,.333-.4.5.5,0,0,0,.2-.25l.03-.037a3.776,3.776,0,0,1,.469-.5l.167,0h11c.261,0,.522,0,.783,0,.279,0,.352-.084.353-.383V39.283c0-.029,0-.06,0-.089a.286.286,0,0,0-.275-.3,1.656,1.656,0,0,0-.184,0h-15a.211.211,0,0,0-.18.072.44.44,0,0,0-.2.181.334.334,0,0,1-.074.094,3.475,3.475,0,0,0-.458.464c-.194.23-.419.423-.614.654s-.411.452-.621.674c-.3.318-.612.622-.9.951s-.6.6-.865.938a4.9,4.9,0,0,1-.367.383c-.206.206-.39.435-.6.644-.387.391-.761.8-1.144,1.2-.2.2-.358.443-.564.629-.223.2-.385.46-.6.666-.062.007-.092.06-.132.1-.129.13-.239.279-.372.406-.055.052-.115.094-.166.149a8.454,8.454,0,0,1-.685.725.535.535,0,0,0-.177.439A5.583,5.583,0,0,1,5.34,49.63a.238.238,0,0,0,.218.3,1.719,1.719,0,0,0,.216,0H29.1c.056,0,.111,0,.167,0a.582.582,0,0,0,.2-.033c.117-.035.144-.068.146-.2s0-.24,0-.36q0-1.69,0-3.38c0-.2-.088-.294-.272-.305-.049,0-.1,0-.15,0H15.629a.73.73,0,0,1-.1,0c-.1-.015-.117-.08-.06-.164.029-.043.079-.068.1-.122h0l.034-.037a.871.871,0,0,0,.166-.215h0A.507.507,0,0,1,15.9,44.933Zm-.3-3.352c-.7.852-1.377,1.725-2.084,2.57-.51.608-1,1.233-1.5,1.853a.759.759,0,0,0-.093.126.258.258,0,0,0,.2.4,2.322,2.322,0,0,0,.266.006H28.455c.078,0,.155,0,.234,0a.15.15,0,0,1,.157.166c.006.33.014.659,0,.989a.219.219,0,0,1-.211.231,2.632,2.632,0,0,1-.283.009H7.18c-.05,0-.1,0-.15,0s-.127.016-.15-.046.038-.106.077-.147c.259-.271.51-.552.763-.828.051-.055.114-.11.1-.2l.01-.012c.074.017.11-.045.152-.089.413-.441.836-.871,1.248-1.313.317-.34.628-.689.95-1.025.3-.312.595-.627.892-.938s.584-.618.868-.936c.394-.443.809-.866,1.215-1.3.048-.052.12-.094.108-.188l0,0a.072.072,0,0,0,.055.016.4.4,0,0,0,.163-.123c.225-.232.446-.468.669-.7a.81.81,0,0,1,.645-.256q6.816.008,13.633,0c.05,0,.1,0,.15,0,.2.007.254.055.263.279s0,.431,0,.647c0,.434,0,.435-.407.435q-6.017,0-12.034-.007a.956.956,0,0,0-.277.06h-.006a.309.309,0,0,0-.192.043l0,0A1.022,1.022,0,0,0,15.605,41.581Z" transform="translate(-5.332 0.267)" fill="#00a04e"/>
          <path id="Path_46692" data-name="Path 46692" d="M56.2,49.671c-.089-.1-.185-.19-.277-.284h0a.572.572,0,0,0-.134-.158c-.154-.146-.289-.313-.429-.474-.215-.247-.445-.48-.657-.732l-.165-.2c-.163-.195-.337-.379-.508-.566-.216-.233-.439-.457-.647-.7a9.2,9.2,0,0,0-.726-.812.328.328,0,0,0-.2-.086,1.631,1.631,0,0,0-.182,0H36.6c-.072,0-.145,0-.216,0-.209,0-.23-.032-.229-.25,0-.6,0-1.2,0-1.8,0-.054,0-.109,0-.162,0-.078.035-.124.108-.131.111-.01.221-.027.331-.027H50.174a.98.98,0,0,1,.2.015.958.958,0,0,0,.4-.025c.087-.02.107-.088.048-.158a1.772,1.772,0,0,0-.163-.2c-.207-.181-.365-.415-.573-.593s-.394-.421-.624-.592c-.1-.105-.168-.236-.305-.288l-.231-.249a.184.184,0,0,0-.065-.12c-.2-.233-.435-.425-.642-.649a.172.172,0,0,0-.06-.026.507.507,0,0,0-.12-.143c-.193-.193-.387-.385-.581-.576a.737.737,0,0,0-.336-.359l-.067-.07a.443.443,0,0,0-.233-.216c-.023-.009-.049-.011-.065-.036h0c-.035-.086-.107-.1-.179-.1-.05,0-.1,0-.15,0H31.741c-.111,0-.222,0-.333,0a.3.3,0,0,0-.318.3,1.185,1.185,0,0,0,0,.162V49.438c0,.084,0,.167,0,.251a.2.2,0,0,0,.186.21,1.967,1.967,0,0,0,.2,0h23.9c.194,0,.388.007.583.008a.75.75,0,0,0,.181-.018C56.26,49.864,56.287,49.765,56.2,49.671Zm-2.988-1.678c-.025.053-.076.041-.119.041l-.517,0H32.342a2.53,2.53,0,0,0-.333.012c-.13.017-.182-.034-.2-.172a3.207,3.207,0,0,1-.005-.449q0-3.549,0-7.1a3.541,3.541,0,0,1,0-.395c.02-.176.055-.212.224-.208.083,0,.167,0,.25,0q6.86,0,13.718,0a.594.594,0,0,1,.461.181c.209.207.382.451.594.653.182.174.338.377.524.545a.118.118,0,0,1-.047.215.28.28,0,0,1-.114.011,5.777,5.777,0,0,0-.7-.014H34.731c-.111,0-.222-.006-.333,0-.2.009-.278.089-.278.31q0,1.554,0,3.109,0,.665,0,1.331c0,.222.11.339.318.338,5.667-.044,11.335-.007,17-.018a1.053,1.053,0,0,1,.461.044.472.472,0,0,1,.175.128c.17.2.356.38.51.59.182.25.416.448.589.706C53.2,47.893,53.241,47.933,53.213,47.993Z" transform="translate(-4.078 0.267)" fill="#00a04e"/>
        </g>
        <path id="Path_46693" data-name="Path 46693" d="M39.668,8.174c-.046-.045-.12-.032-.171.035a.567.567,0,0,1-.15.139.2.2,0,0,0-.1.153.169.169,0,0,1-.087.144.263.263,0,0,0-.123.219c.005.006.013,0,.02,0l-.007.007-.013-.011a.524.524,0,0,0-.232.292.37.37,0,0,0-.13.141c-.035.027-.034.069-.038.109a1.425,1.425,0,0,0-.141.152c-.2.294-.408.589-.638.862a.361.361,0,0,0-.049.072,1.836,1.836,0,0,1-.275.4c-.25.287-.428.632-.68.918-.162.183-.283.407-.434.6-.063.084-.155.147-.193.243a2.057,2.057,0,0,1-.3.442c-.177.241-.347.489-.529.726-.151.2-.29.4-.435.605s-.323.423-.477.64a5.18,5.18,0,0,0-.313.417c-.139.245-.331.443-.483.675a1.831,1.831,0,0,1-.3.407c-.013.011-.012.044-.017.067a.056.056,0,0,0,0,.029h0a4.325,4.325,0,0,0-.583.77,1.447,1.447,0,0,0-.273.4c-.28.305-.49.672-.75,1-.18.224-.329.476-.511.7a1.8,1.8,0,0,0-.25.378l-.028.018c-.039.028-.062.1-.121.077s-.044-.1-.047-.158c0-.012,0-.024,0-.036q0-1.32,0-2.641c0-1.581,0-3.161,0-4.742,0-.259-.1-.322-.292-.32-.8.008-1.6.011-2.4,0-.233,0-.417.029-.505.29-.005.016-.022.027-.033.041-.116.145-.165.339-.3.475-.017.017-.012.057-.02.085-.066.207-.223.363-.276.578,0,0-.007.009-.01.012a.471.471,0,0,0-.134.222.4.4,0,0,1-.1.181.26.26,0,0,0-.079.153.447.447,0,0,1-.126.247.355.355,0,0,0-.077.136c-.071.2-.209.355-.295.546a1.278,1.278,0,0,0-.127.267.24.24,0,0,1-.061.124c-.128.135-.147.348-.294.471a.056.056,0,0,0-.01.034c-.01.12-.1.2-.141.3a4.007,4.007,0,0,1-.279.521.306.306,0,0,0-.02.1c-.041.086-.145.126-.158.226a.7.7,0,0,1-.146.3c-.022.033-.055.061-.058.105a.469.469,0,0,1-.116.233.659.659,0,0,0-.088.15c-.085.221-.24.4-.311.629a.161.161,0,0,1-.03.042c-.108.137-.168.307-.272.448-.048.063-.038.162-.089.228-.146.189-.2.435-.344.628a1.621,1.621,0,0,1-.128.207.179.179,0,0,0-.057.106.808.808,0,0,1-.131.283,2.568,2.568,0,0,1-.264.447c-.007.008-.006.024-.009.035a.583.583,0,0,1-.154.292.216.216,0,0,0-.05.111,1.7,1.7,0,0,1-.136.28,2.331,2.331,0,0,1-.263.444.057.057,0,0,0-.012.034.486.486,0,0,1-.12.25.367.367,0,0,0-.07.12,2.37,2.37,0,0,1-.293.551c-.09.185-.185.376-.288.558-.071.124-.129.26-.211.38-.1.182-.2.366-.3.55s-.189.346-.29.513-.178.348-.272.52a.187.187,0,0,0-.007.07.59.59,0,0,1-.125.189.17.17,0,0,0-.068.1.465.465,0,0,1-.156.287c-.019.02-.044.05-.043.074.006.228-.237.329-.24.551,0,.009-.013.019-.021.027a.564.564,0,0,0-.188.328.158.158,0,0,1-.049.071.466.466,0,0,0-.122.23.562.562,0,0,1-.1.2,2.5,2.5,0,0,1-.278.458l0,.017a.3.3,0,0,1-.124.221.123.123,0,0,0-.006.187c.053.062.1.045.158,0a3,3,0,0,0,.443-.5c.17-.212.323-.44.5-.641.318-.365.61-.752.912-1.13.165-.206.348-.392.5-.614a4.809,4.809,0,0,1,.458-.56c.221-.238.411-.509.615-.765l.8-1c.1-.122.2-.241.3-.364.153-.195.294-.4.458-.586.182-.2.326-.438.514-.632a.176.176,0,0,0,.042-.132,4.209,4.209,0,0,0,.376-.422c.091-.111.178-.227.266-.338.111-.139.2-.3.324-.425A1.872,1.872,0,0,0,26.125,20c.186-.222.35-.461.54-.681s.343-.437.519-.65c.129-.156.251-.318.371-.482.055-.076.119-.059.143.033a.49.49,0,0,1,.007.124c0,.114,0,.227,0,.342v4.925a1.243,1.243,0,0,1-.015.233c-.038.2.031.308.22.338a.937.937,0,0,0,.149.006h1.218c.427,0,.855,0,1.283,0a.3.3,0,0,0,.251-.069,1.116,1.116,0,0,0,.213-.319,4.637,4.637,0,0,0,.237-.466c.006-.025.037-.043.055-.067.113-.15.153-.353.29-.487l0-.017a5.1,5.1,0,0,1,.3-.563,1.955,1.955,0,0,0,.123-.231.308.308,0,0,1,.063-.123c.133-.138.152-.36.3-.485.034-.2.222-.314.244-.519A2.385,2.385,0,0,0,32.9,20.4c.182-.284.336-.587.5-.883a2.3,2.3,0,0,0,.3-.566.208.208,0,0,1,.046-.074,2.6,2.6,0,0,0,.287-.5c.082-.173.242-.3.255-.513.125-.1.162-.268.252-.395.1-.145.141-.339.284-.456a.056.056,0,0,0,.012-.033A.536.536,0,0,1,35,16.662a.211.211,0,0,0,.057-.107,1.712,1.712,0,0,1,.271-.485c.109-.184.2-.382.308-.568s.209-.347.3-.533a4.043,4.043,0,0,0,.354-.69.1.1,0,0,1,.029-.042,2.589,2.589,0,0,0,.364-.594c.121-.2.22-.411.348-.6a.63.63,0,0,0,.065-.124c.071-.207.233-.357.3-.566.008-.027.034-.046.048-.071a.511.511,0,0,0,.06-.107c.062-.179.215-.3.255-.5,0-.02.027-.037.044-.053a.413.413,0,0,0,.11-.2.33.33,0,0,1,.094-.166.165.165,0,0,0,.069-.118h0l0-.072-.008.006a.2.2,0,0,0-.1.057,2.419,2.419,0,0,0-.151.279,4.266,4.266,0,0,1-.243.417c-.028.051-.056.1-.085.153-.173.337-.363.663-.546.992-.108.191-.218.382-.326.575.149-.284.322-.55.465-.837.124-.248.267-.489.408-.73.015-.028.031-.054.046-.084.1-.2.225-.394.319-.6a.5.5,0,0,1,.114-.163c.044-.075.086-.15.132-.224l.005-.01c.006-.012,0-.031.013-.042a.146.146,0,0,0,.055-.118c.006.014,0,.023,0,.035.064-.115.131-.23.192-.345a1.891,1.891,0,0,1,.1-.167c.042-.064.074-.136.112-.2-.02.035-.035.072-.058.106s-.035.067-.055.1a3,3,0,0,0-.277.493l-.018.031c0,.057-.047.1-.078.139a.174.174,0,0,0-.021.074l0,.067v.006l.008,0a.086.086,0,0,1-.005.077c.064-.068.067-.172.133-.244.123-.133.139-.347.287-.467a.044.044,0,0,0,.008-.034.271.271,0,0,1,.114-.226.36.36,0,0,0,.108-.2.294.294,0,0,1,.082-.152.175.175,0,0,0,.065-.121c.082-.161.224-.278.266-.467a.273.273,0,0,1,.07-.1c.125-.143.147-.356.29-.485.006-.006,0-.023.006-.035a.439.439,0,0,1,.142-.274C39.7,8.3,39.732,8.237,39.668,8.174ZM20.82,25.347c-.025.046-.047.1-.076.138-.042.077-.085.154-.123.233-.027.057-.059.111-.088.166s-.04.083-.064.121c-.01.017-.022.033-.034.05a2.954,2.954,0,0,0-.2.378l.03-.015c0,.052.012.115-.03.152a1.64,1.64,0,0,0-.3.486,3.824,3.824,0,0,0-.33.632.8.8,0,0,1-.08.156c-.023.042-.044.081-.012.129.162-.149.264-.355.431-.5a.126.126,0,0,1,.016-.018v.072a.275.275,0,0,0-.1.111,1.126,1.126,0,0,0-.067.107c-.027.121-.121.18-.2.252h0c-.026.121-.122.179-.2.251h0c-.051.12-.1.161-.159.135s-.061-.169-.014-.243a.089.089,0,0,1,.072-.036,5.728,5.728,0,0,0,.3-.587.327.327,0,0,1,.048-.092.672.672,0,0,0,.16-.325.08.08,0,0,1,.023-.046c.177-.163.217-.423.369-.6a.362.362,0,0,1,.066-.2c.123-.21.242-.421.363-.632a.086.086,0,0,0,.005-.029H20.63l.006,0a.283.283,0,0,0,.109-.105c.016-.027.027-.057.044-.084s.027-.051.041-.076ZM38.146,10.2h-.04l.006-.009h0a.586.586,0,0,0,.144-.149C38.221,10.1,38.183,10.148,38.146,10.2Z" transform="translate(0.666 0.508)" fill="#eb2d2e"/>
      </g>
      <g id="Group_40363" data-name="Group 40363" transform="translate(2975.522 774)">
        <path id="Path_46640" data-name="Path 46640" d="M238.218,690.516v-7.062h2.731a3.48,3.48,0,0,1,1.337.215,1.763,1.763,0,0,1,1.075,1.592,1.57,1.57,0,0,1-.253.853,1.792,1.792,0,0,1-.764.646,1.906,1.906,0,0,1,1.015.641,1.685,1.685,0,0,1,.355,1.069,2.02,2.02,0,0,1-.216.923,1.778,1.778,0,0,1-.534.657,2.239,2.239,0,0,1-.8.35,4.973,4.973,0,0,1-1.174.119Zm.964-4.094h1.573a3.59,3.59,0,0,0,.918-.083,1.017,1.017,0,0,0,.553-.351.989.989,0,0,0,.186-.617,1.109,1.109,0,0,0-.174-.619.873.873,0,0,0-.5-.366,4.262,4.262,0,0,0-1.108-.1h-1.453Zm0,3.26h1.811a4.278,4.278,0,0,0,.656-.034,1.573,1.573,0,0,0,.556-.192,1.023,1.023,0,0,0,.367-.392,1.2,1.2,0,0,0,.145-.6,1.153,1.153,0,0,0-.209-.687,1.106,1.106,0,0,0-.578-.408,3.693,3.693,0,0,0-1.065-.119h-1.682Z" transform="translate(-237.981 -683.453)" fill="#005aa9"/>
        <path id="Path_46641" data-name="Path 46641" d="M247.088,689.519a3.338,3.338,0,0,1-.955.578,2.837,2.837,0,0,1-.985.169,1.954,1.954,0,0,1-1.335-.412,1.339,1.339,0,0,1-.467-1.053,1.367,1.367,0,0,1,.176-.685,1.429,1.429,0,0,1,.462-.5,2.188,2.188,0,0,1,.643-.285,6.689,6.689,0,0,1,.794-.13,8.469,8.469,0,0,0,1.593-.3c0-.119.005-.195.005-.227a.936.936,0,0,0-.253-.745,1.527,1.527,0,0,0-1.018-.295,1.609,1.609,0,0,0-.93.215,1.3,1.3,0,0,0-.444.759l-.874-.116a2.08,2.08,0,0,1,.392-.879,1.719,1.719,0,0,1,.789-.516,3.6,3.6,0,0,1,1.2-.18,3.263,3.263,0,0,1,1.1.154,1.456,1.456,0,0,1,.621.387,1.345,1.345,0,0,1,.277.591,4.7,4.7,0,0,1,.045.8v1.156a11.778,11.778,0,0,0,.057,1.53,1.883,1.883,0,0,0,.226.614h-.933A1.773,1.773,0,0,1,247.088,689.519Zm-.074-1.936a6.782,6.782,0,0,1-1.46.327,3.431,3.431,0,0,0-.779.174.764.764,0,0,0-.352.281.748.748,0,0,0,.146.99,1.186,1.186,0,0,0,.792.231,1.882,1.882,0,0,0,.918-.219,1.364,1.364,0,0,0,.591-.6,2.029,2.029,0,0,0,.145-.867Z" transform="translate(-236.706 -683.088)" fill="#005aa9"/>
        <path id="Path_46642" data-name="Path 46642" d="M248.116,690.151v-5.116h.8v.728a1.909,1.909,0,0,1,1.677-.843,2.252,2.252,0,0,1,.877.166,1.368,1.368,0,0,1,.6.435,1.653,1.653,0,0,1,.277.642,4.733,4.733,0,0,1,.05.843v3.145h-.893v-3.112a2.262,2.262,0,0,0-.1-.793.839.839,0,0,0-.37-.419,1.211,1.211,0,0,0-.623-.156,1.473,1.473,0,0,0-.985.352,1.7,1.7,0,0,0-.415,1.334v2.795Z" transform="translate(-235.519 -683.088)" fill="#005aa9"/>
        <path id="Path_46643" data-name="Path 46643" d="M252.548,690.574l.869.126a.8.8,0,0,0,.3.568,1.524,1.524,0,0,0,.908.24,1.637,1.637,0,0,0,.958-.24,1.192,1.192,0,0,0,.457-.674,5.394,5.394,0,0,0,.064-1.114,1.857,1.857,0,0,1-1.458.67,2.013,2.013,0,0,1-1.683-.762,2.878,2.878,0,0,1-.6-1.826,3.3,3.3,0,0,1,.273-1.351,2.139,2.139,0,0,1,.792-.956,2.185,2.185,0,0,1,1.219-.336,1.911,1.911,0,0,1,1.538.731v-.615h.824v4.421a4.077,4.077,0,0,1-.251,1.693,1.807,1.807,0,0,1-.794.788,2.823,2.823,0,0,1-1.337.29,2.575,2.575,0,0,1-1.523-.413A1.377,1.377,0,0,1,252.548,690.574Zm.74-3.073a2.175,2.175,0,0,0,.412,1.47,1.385,1.385,0,0,0,2.064,0,2.1,2.1,0,0,0,.417-1.442,2.056,2.056,0,0,0-.43-1.416,1.345,1.345,0,0,0-1.034-.477,1.3,1.3,0,0,0-1.013.469A2.041,2.041,0,0,0,253.288,687.5Z" transform="translate(-234.462 -683.088)" fill="#005aa9"/>
        <path id="Path_46644" data-name="Path 46644" d="M257.155,690.516v-7.062h.894v7.062Z" transform="translate(-233.272 -683.453)" fill="#005aa9"/>
        <path id="Path_46645" data-name="Path 46645" d="M262.479,689.519a3.339,3.339,0,0,1-.955.578,2.837,2.837,0,0,1-.985.169,1.958,1.958,0,0,1-1.336-.412,1.338,1.338,0,0,1-.466-1.053,1.367,1.367,0,0,1,.176-.685,1.418,1.418,0,0,1,.462-.5,2.2,2.2,0,0,1,.642-.285,6.78,6.78,0,0,1,.794-.13,8.487,8.487,0,0,0,1.594-.3c0-.119,0-.195,0-.227a.936.936,0,0,0-.252-.745,1.527,1.527,0,0,0-1.018-.295,1.606,1.606,0,0,0-.93.215,1.291,1.291,0,0,0-.445.759l-.874-.116a2.065,2.065,0,0,1,.392-.879,1.712,1.712,0,0,1,.789-.516,3.6,3.6,0,0,1,1.2-.18,3.263,3.263,0,0,1,1.1.154,1.452,1.452,0,0,1,.619.387,1.347,1.347,0,0,1,.278.591,4.705,4.705,0,0,1,.045.8v1.156a11.766,11.766,0,0,0,.057,1.53,1.881,1.881,0,0,0,.225.614h-.933A1.8,1.8,0,0,1,262.479,689.519Zm-.074-1.936a6.8,6.8,0,0,1-1.46.327,3.431,3.431,0,0,0-.779.174.774.774,0,0,0-.353.281.751.751,0,0,0,.147.99,1.183,1.183,0,0,0,.792.231,1.885,1.885,0,0,0,.918-.219,1.37,1.37,0,0,0,.591-.6,2.03,2.03,0,0,0,.145-.867Z" transform="translate(-232.878 -683.088)" fill="#005aa9"/>
        <path id="Path_46646" data-name="Path 46646" d="M266.991,690.516v-.646a1.654,1.654,0,0,1-1.475.76,2.113,2.113,0,0,1-1.159-.337,2.236,2.236,0,0,1-.819-.941,3.169,3.169,0,0,1-.29-1.39,3.552,3.552,0,0,1,.262-1.39,2.024,2.024,0,0,1,.789-.955,2.153,2.153,0,0,1,1.176-.332,1.8,1.8,0,0,1,.849.194,1.754,1.754,0,0,1,.606.509v-2.535h.889v7.062Zm-2.825-2.554a2.176,2.176,0,0,0,.427,1.47,1.3,1.3,0,0,0,1.008.486,1.281,1.281,0,0,0,1-.465,2.1,2.1,0,0,0,.41-1.418,2.354,2.354,0,0,0-.417-1.541,1.3,1.3,0,0,0-1.028-.492,1.252,1.252,0,0,0-1,.472A2.283,2.283,0,0,0,264.167,687.962Z" transform="translate(-231.756 -683.453)" fill="#005aa9"/>
        <path id="Path_46647" data-name="Path 46647" d="M271.7,688.5l.923.111a2.177,2.177,0,0,1-.808,1.219,2.484,2.484,0,0,1-1.51.433,2.453,2.453,0,0,1-1.834-.69,2.657,2.657,0,0,1-.677-1.939,2.78,2.78,0,0,1,.684-2,2.357,2.357,0,0,1,1.777-.712,2.292,2.292,0,0,1,1.728.7,2.732,2.732,0,0,1,.669,1.967c0,.051,0,.127,0,.231h-3.931a1.938,1.938,0,0,0,.492,1.291,1.484,1.484,0,0,0,1.1.447,1.4,1.4,0,0,0,.839-.25A1.674,1.674,0,0,0,271.7,688.5Zm-2.933-1.4h2.943a1.71,1.71,0,0,0-.337-.969,1.389,1.389,0,0,0-1.108-.5,1.448,1.448,0,0,0-1.035.4A1.561,1.561,0,0,0,268.769,687.1Z" transform="translate(-230.625 -683.088)" fill="#005aa9"/>
        <path id="Path_46648" data-name="Path 46648" d="M272.276,688.624l.883-.135a1.2,1.2,0,0,0,.415.79,1.484,1.484,0,0,0,.952.273,1.426,1.426,0,0,0,.913-.242.72.72,0,0,0,.3-.572.524.524,0,0,0-.262-.462,4.023,4.023,0,0,0-.914-.293,8.548,8.548,0,0,1-1.362-.417,1.315,1.315,0,0,1-.576-.486,1.26,1.26,0,0,1-.2-.687,1.291,1.291,0,0,1,.161-.634,1.414,1.414,0,0,1,.44-.483,1.844,1.844,0,0,1,.568-.254,2.792,2.792,0,0,1,.772-.1,3.161,3.161,0,0,1,1.09.172,1.486,1.486,0,0,1,.692.47,1.822,1.822,0,0,1,.308.793l-.874.115a.922.922,0,0,0-.345-.616,1.294,1.294,0,0,0-.807-.222,1.492,1.492,0,0,0-.879.2.569.569,0,0,0-.262.462.471.471,0,0,0,.109.3.8.8,0,0,0,.342.231q.135.049.789.221a11.372,11.372,0,0,1,1.324.4,1.345,1.345,0,0,1,.588.456,1.245,1.245,0,0,1,.214.742,1.428,1.428,0,0,1-.261.817,1.671,1.671,0,0,1-.752.592,2.785,2.785,0,0,1-1.113.21,2.528,2.528,0,0,1-1.566-.415A1.909,1.909,0,0,1,272.276,688.624Z" transform="translate(-229.511 -683.088)" fill="#005aa9"/>
        <path id="Path_46649" data-name="Path 46649" d="M276.632,690.516v-7.062h.894v2.535a2.017,2.017,0,0,1,1.578-.7,2.182,2.182,0,0,1,1.018.223,1.332,1.332,0,0,1,.618.619,2.779,2.779,0,0,1,.186,1.146v3.241h-.894v-3.241a1.313,1.313,0,0,0-.291-.948,1.1,1.1,0,0,0-.82-.3,1.484,1.484,0,0,0-.747.2,1.15,1.15,0,0,0-.5.542,2.417,2.417,0,0,0-.149.945v2.8Z" transform="translate(-228.428 -683.453)" fill="#005aa9"/>
        <path id="Path_46650" data-name="Path 46650" d="M243.5,699.154l.963.236a3.13,3.13,0,0,1-1.089,1.757,3.063,3.063,0,0,1-1.924.6,3.539,3.539,0,0,1-1.913-.466,2.918,2.918,0,0,1-1.121-1.346,4.67,4.67,0,0,1-.385-1.893,4.059,4.059,0,0,1,.435-1.924,2.919,2.919,0,0,1,1.235-1.247,3.694,3.694,0,0,1,1.764-.427,3.047,3.047,0,0,1,1.837.541,2.789,2.789,0,0,1,1.038,1.517l-.948.216a2.173,2.173,0,0,0-.735-1.121,2,2,0,0,0-1.21-.352,2.4,2.4,0,0,0-1.4.391,2.067,2.067,0,0,0-.792,1.046,4.131,4.131,0,0,0-.227,1.356,4.205,4.205,0,0,0,.27,1.573,1.973,1.973,0,0,0,.842,1,2.408,2.408,0,0,0,1.236.332,2.111,2.111,0,0,0,1.37-.453A2.3,2.3,0,0,0,243.5,699.154Z" transform="translate(-238.028 -683.15)" fill="#005aa9"/>
        <path id="Path_46651" data-name="Path 46651" d="M243.771,698.684a2.6,2.6,0,0,1,.814-2.105,2.5,2.5,0,0,1,1.658-.568,2.4,2.4,0,0,1,1.777.691,2.586,2.586,0,0,1,.69,1.91,3.3,3.3,0,0,1-.306,1.553,2.129,2.129,0,0,1-.888.879,2.657,2.657,0,0,1-1.274.313,2.408,2.408,0,0,1-1.789-.689A2.7,2.7,0,0,1,243.771,698.684Zm.919,0a2.132,2.132,0,0,0,.442,1.471,1.5,1.5,0,0,0,2.219,0,2.193,2.193,0,0,0,.441-1.5,2.073,2.073,0,0,0-.443-1.439,1.5,1.5,0,0,0-2.216,0A2.126,2.126,0,0,0,244.69,698.684Z" transform="translate(-236.6 -682.923)" fill="#005aa9"/>
        <path id="Path_46652" data-name="Path 46652" d="M248.565,701.242v-5.115h.8v.717a1.87,1.87,0,0,1,.661-.6,1.9,1.9,0,0,1,.938-.228,1.774,1.774,0,0,1,.96.236,1.275,1.275,0,0,1,.529.661,1.9,1.9,0,0,1,1.627-.9,1.627,1.627,0,0,1,1.206.422,1.765,1.765,0,0,1,.422,1.3v3.511h-.888v-3.223a2.273,2.273,0,0,0-.087-.748.726.726,0,0,0-.315-.368,1,1,0,0,0-.537-.14,1.265,1.265,0,0,0-.923.359,1.551,1.551,0,0,0-.367,1.149v2.972H251.7v-3.323a1.427,1.427,0,0,0-.219-.868.837.837,0,0,0-.714-.289,1.325,1.325,0,0,0-.7.192,1.1,1.1,0,0,0-.465.564,3.074,3.074,0,0,0-.144,1.069v2.653Z" transform="translate(-235.408 -682.912)" fill="#005aa9"/>
        <path id="Path_46653" data-name="Path 46653" d="M255.346,703.2v-7.076h.814v.664a1.986,1.986,0,0,1,.651-.586,1.832,1.832,0,0,1,.879-.195,2.124,2.124,0,0,1,1.19.337,2.084,2.084,0,0,1,.78.951,3.392,3.392,0,0,1,.262,1.346,3.335,3.335,0,0,1-.29,1.414,2.141,2.141,0,0,1-.844.964,2.213,2.213,0,0,1-1.164.335,1.718,1.718,0,0,1-.8-.184,1.8,1.8,0,0,1-.583-.462V703.2Zm.809-4.49a2.179,2.179,0,0,0,.412,1.46,1.278,1.278,0,0,0,1,.472,1.3,1.3,0,0,0,1.02-.489,2.267,2.267,0,0,0,.425-1.515,2.216,2.216,0,0,0-.415-1.465,1.263,1.263,0,0,0-.99-.486,1.3,1.3,0,0,0-1.01.517A2.276,2.276,0,0,0,256.155,698.713Z" transform="translate(-233.721 -683.095)" fill="#005aa9"/>
        <path id="Path_46654" data-name="Path 46654" d="M263.333,701.219v-.752a1.947,1.947,0,0,1-1.673.868,2.206,2.206,0,0,1-.872-.174,1.447,1.447,0,0,1-.6-.436,1.612,1.612,0,0,1-.275-.643,4.3,4.3,0,0,1-.055-.81V696.1h.894v2.836a4.949,4.949,0,0,0,.054.915.909.909,0,0,0,.357.537,1.125,1.125,0,0,0,.675.2,1.5,1.5,0,0,0,.754-.2,1.131,1.131,0,0,0,.5-.544,2.667,2.667,0,0,0,.146-1V696.1h.894v5.115Z" transform="translate(-232.599 -682.908)" fill="#005aa9"/>
        <path id="Path_46655" data-name="Path 46655" d="M266.45,700.8l.129.767a3.432,3.432,0,0,1-.676.076,1.58,1.58,0,0,1-.754-.149.847.847,0,0,1-.377-.393,3.019,3.019,0,0,1-.11-1.024v-2.943h-.654v-.673h.654v-1.268l.889-.521v1.788h.9v.673h-.9v2.992a1.469,1.469,0,0,0,.048.477.359.359,0,0,0,.154.169.62.62,0,0,0,.306.062A2.989,2.989,0,0,0,266.45,700.8Z" transform="translate(-231.567 -683.114)" fill="#005aa9"/>
        <path id="Path_46656" data-name="Path 46656" d="M270.331,699.595l.923.111a2.17,2.17,0,0,1-.809,1.217,2.478,2.478,0,0,1-1.508.435,2.447,2.447,0,0,1-1.834-.692,2.647,2.647,0,0,1-.677-1.938,2.776,2.776,0,0,1,.684-2,2.352,2.352,0,0,1,1.777-.713,2.283,2.283,0,0,1,1.727.7,2.724,2.724,0,0,1,.671,1.965c0,.051,0,.129-.005.231h-3.931a1.941,1.941,0,0,0,.491,1.291,1.486,1.486,0,0,0,1.1.448,1.4,1.4,0,0,0,.839-.251A1.665,1.665,0,0,0,270.331,699.595Zm-2.933-1.4h2.943a1.7,1.7,0,0,0-.338-.968,1.385,1.385,0,0,0-1.106-.5,1.445,1.445,0,0,0-1.035.4A1.561,1.561,0,0,0,267.4,698.192Z" transform="translate(-230.966 -682.923)" fill="#005aa9"/>
        <path id="Path_46657" data-name="Path 46657" d="M271.182,701.242v-5.115h.8v.775a2.115,2.115,0,0,1,.569-.718,1.006,1.006,0,0,1,.573-.173,1.782,1.782,0,0,1,.918.28l-.307.8a1.311,1.311,0,0,0-.656-.187.865.865,0,0,0-.526.17.931.931,0,0,0-.333.476,3.3,3.3,0,0,0-.149,1.011v2.677Z" transform="translate(-229.784 -682.912)" fill="#005aa9"/>
        <path id="Path_46658" data-name="Path 46658" d="M243.5,710.246l.963.236a3.122,3.122,0,0,1-1.089,1.756,3.063,3.063,0,0,1-1.924.6,3.54,3.54,0,0,1-1.913-.465,2.924,2.924,0,0,1-1.121-1.346,4.671,4.671,0,0,1-.385-1.894,4.054,4.054,0,0,1,.435-1.923,2.922,2.922,0,0,1,1.235-1.249,3.706,3.706,0,0,1,1.764-.426,3.047,3.047,0,0,1,1.837.539,2.794,2.794,0,0,1,1.038,1.517l-.948.217a2.182,2.182,0,0,0-.735-1.123,2,2,0,0,0-1.21-.352,2.4,2.4,0,0,0-1.4.391,2.07,2.07,0,0,0-.792,1.047,4.132,4.132,0,0,0-.227,1.356,4.2,4.2,0,0,0,.27,1.572,1.975,1.975,0,0,0,.842,1.005,2.421,2.421,0,0,0,1.236.332,2.111,2.111,0,0,0,1.37-.453A2.3,2.3,0,0,0,243.5,710.246Z" transform="translate(-238.028 -682.843)" fill="#005aa9"/>
        <path id="Path_46659" data-name="Path 46659" d="M243.771,709.775a2.6,2.6,0,0,1,.814-2.105,2.5,2.5,0,0,1,1.658-.567,2.4,2.4,0,0,1,1.777.69,2.586,2.586,0,0,1,.69,1.91,3.3,3.3,0,0,1-.306,1.553,2.137,2.137,0,0,1-.888.879,2.654,2.654,0,0,1-1.274.312,2.407,2.407,0,0,1-1.789-.688A2.706,2.706,0,0,1,243.771,709.775Zm.919,0a2.135,2.135,0,0,0,.442,1.472,1.5,1.5,0,0,0,2.219,0,2.189,2.189,0,0,0,.441-1.5,2.078,2.078,0,0,0-.443-1.439,1.5,1.5,0,0,0-2.216,0A2.124,2.124,0,0,0,244.69,709.775Z" transform="translate(-236.6 -682.455)" fill="#005aa9"/>
        <path id="Path_46660" data-name="Path 46660" d="M252.024,712.311v-.752a1.946,1.946,0,0,1-1.673.866,2.2,2.2,0,0,1-.87-.172,1.447,1.447,0,0,1-.6-.437,1.623,1.623,0,0,1-.275-.642,4.3,4.3,0,0,1-.055-.81v-3.169h.894v2.837a4.952,4.952,0,0,0,.054.915.905.905,0,0,0,.358.537,1.13,1.13,0,0,0,.674.195,1.52,1.52,0,0,0,.755-.2,1.131,1.131,0,0,0,.5-.546,2.659,2.659,0,0,0,.146-1v-2.741h.894v5.116Z" transform="translate(-235.412 -682.432)" fill="#005aa9"/>
        <path id="Path_46661" data-name="Path 46661" d="M253.093,712.334v-5.116h.8v.728a1.909,1.909,0,0,1,1.677-.843,2.276,2.276,0,0,1,.877.165,1.389,1.389,0,0,1,.6.436,1.654,1.654,0,0,1,.277.642,4.744,4.744,0,0,1,.05.843v3.145h-.893v-3.112a2.261,2.261,0,0,0-.1-.793.845.845,0,0,0-.37-.419,1.21,1.21,0,0,0-.623-.156,1.473,1.473,0,0,0-.985.352,1.7,1.7,0,0,0-.415,1.335v2.793Z" transform="translate(-234.282 -682.455)" fill="#005aa9"/>
        <path id="Path_46662" data-name="Path 46662" d="M261.114,710.459l.878.111a2.116,2.116,0,0,1-2.194,1.878,2.3,2.3,0,0,1-1.739-.685,2.735,2.735,0,0,1-.657-1.968,3.466,3.466,0,0,1,.282-1.45,1.935,1.935,0,0,1,.862-.933,2.608,2.608,0,0,1,1.257-.31,2.23,2.23,0,0,1,1.4.421,1.919,1.919,0,0,1,.7,1.2l-.869.13a1.379,1.379,0,0,0-.44-.775,1.154,1.154,0,0,0-.762-.26,1.4,1.4,0,0,0-1.1.469,2.175,2.175,0,0,0-.422,1.486,2.254,2.254,0,0,0,.407,1.5,1.339,1.339,0,0,0,1.061.467,1.276,1.276,0,0,0,.879-.312A1.541,1.541,0,0,0,261.114,710.459Z" transform="translate(-233.21 -682.455)" fill="#005aa9"/>
        <path id="Path_46663" data-name="Path 46663" d="M261.694,706.634v-1h.894v1Zm0,6.065v-5.116h.894V712.7Z" transform="translate(-232.143 -682.819)" fill="#005aa9"/>
        <path id="Path_46664" data-name="Path 46664" d="M263.483,712.7v-7.062h.894V712.7Z" transform="translate(-231.698 -682.819)" fill="#005aa9"/>
      </g>
    </g>
  </g>
</svg>
