<svg id="Layer_1" data-name="Layer 1" xmlns="http://www.w3.org/2000/svg" viewBox="0 0 140 60"><defs><style>.cls-1{fill:#1788a1;}.cls-2{fill:#a21f60;}.cls-3{fill:#e6332e;}.cls-4{fill:#e65d25;}.cls-5{fill:#f4b01c;}.cls-6{fill:#099146;}.cls-7{fill:#e6e41a;}.cls-8{fill:#e38625;}.cls-9{fill:#d44c27;}.cls-10{fill:#cb2034;}.cls-11{fill:#d21d58;}.cls-12{fill:#48307e;}.cls-13{fill:#1bb2d1;}.cls-14{fill:#124d6e;}.cls-15{fill:#cc1e5a;}.cls-16{fill:#f3d214;}.cls-17{fill:#6abd46;}.cls-18{fill:#f4b11b;}.cls-19{fill:#e95249;}.cls-20{fill:#6c2d86;}.cls-21{fill:#088c9b;}.cls-22{fill:#1a6484;}.cls-23{fill:#d53d6a;}.cls-24{fill:#ec774f;}.cls-25{fill:#d31b65;}.cls-26{fill:#231f20;}.cls-27{fill:#1888c9;}</style></defs><polygon class="cls-1" points="3.77 48.39 3.77 48.39 2.24 45.34 5.29 45.34 3.77 48.39"/><polygon class="cls-2" points="6.81 42.3 6.81 42.3 8.34 45.34 5.29 45.34 6.81 42.3"/><polygon class="cls-3" points="9.86 42.3 9.86 42.3 11.38 45.34 8.34 45.34 9.86 42.3"/><polygon class="cls-4" points="12.9 48.39 12.9 48.39 11.38 45.34 14.42 45.34 12.9 48.39"/><polygon class="cls-5" points="15.94 48.39 15.94 48.39 14.42 45.34 17.46 45.34 15.94 48.39"/><polygon class="cls-6" points="18.99 42.3 18.99 42.3 20.5 45.34 17.46 45.34 18.99 42.3"/><polygon class="cls-7" points="22.03 48.39 22.03 48.39 20.5 45.34 23.55 45.34 22.03 48.39"/><polygon class="cls-8" points="25.07 42.3 25.07 42.3 26.6 45.34 23.55 45.34 25.07 42.3"/><polygon class="cls-9" points="28.12 42.3 28.12 42.3 29.64 45.34 26.6 45.34 28.12 42.3"/><polygon class="cls-10" points="31.16 42.3 31.16 42.3 32.68 45.34 29.64 45.34 31.16 42.3"/><polygon class="cls-11" points="34.2 42.3 34.2 42.3 35.73 45.34 32.68 45.34 34.2 42.3"/><polygon class="cls-2" points="37.25 42.3 37.25 42.3 38.77 45.34 35.73 45.34 37.25 42.3"/><polygon class="cls-12" points="40.29 42.3 40.29 42.3 41.81 45.34 38.77 45.34 40.29 42.3"/><polygon class="cls-13" points="43.33 48.39 43.33 48.39 41.81 45.34 44.86 45.34 43.33 48.39"/><polygon class="cls-14" points="46.38 42.3 46.38 42.3 47.9 45.34 44.86 45.34 46.38 42.3"/><polygon class="cls-2" points="49.42 42.3 49.42 42.3 50.94 45.34 47.9 45.34 49.42 42.3"/><polygon class="cls-15" points="52.47 48.39 52.47 48.39 50.94 45.34 53.98 45.34 52.47 48.39"/><polygon class="cls-3" points="52.47 42.3 52.47 42.3 53.98 45.34 50.94 45.34 52.47 42.3"/><polygon class="cls-16" points="55.51 42.3 55.51 42.3 57.03 45.34 53.98 45.34 55.51 42.3"/><polygon class="cls-5" points="58.55 48.39 58.55 48.39 57.03 45.34 60.07 45.34 58.55 48.39"/><polygon class="cls-2" points="53.98 39.26 53.98 39.26 52.47 42.3 55.51 42.3 53.98 39.26"/><polygon class="cls-15" points="50.94 45.34 50.94 45.34 52.47 42.3 49.42 42.3 50.94 45.34"/><polygon class="cls-3" points="50.94 39.26 50.94 39.26 49.42 42.3 52.47 42.3 50.94 39.26"/><polygon class="cls-3" points="47.9 45.34 47.9 45.34 49.42 42.3 46.38 42.3 47.9 45.34"/><polygon class="cls-4" points="47.9 39.26 47.9 39.26 46.38 42.3 49.42 42.3 47.9 39.26"/><polygon class="cls-5" points="44.86 45.34 44.86 45.34 46.38 42.3 43.33 42.3 44.86 45.34"/><polygon class="cls-5" points="44.86 39.26 44.86 39.26 43.33 42.3 46.38 42.3 44.86 39.26"/><polygon class="cls-14" points="41.81 45.34 41.81 45.34 43.33 42.3 40.29 42.3 41.81 45.34"/><polygon class="cls-17" points="41.81 39.26 41.81 39.26 40.29 42.3 43.33 42.3 41.81 39.26"/><polygon class="cls-7" points="38.77 45.34 38.77 45.34 40.29 42.3 37.25 42.3 38.77 45.34"/><polygon class="cls-18" points="38.77 39.26 38.77 39.26 37.25 42.3 40.29 42.3 38.77 39.26"/><polygon class="cls-4" points="35.73 45.34 35.73 45.34 37.25 42.3 34.2 42.3 35.73 45.34"/><polygon class="cls-5" points="35.73 39.26 35.73 39.26 34.2 42.3 37.25 42.3 35.73 39.26"/><polygon class="cls-3" points="32.68 45.34 32.68 45.34 34.2 42.3 31.16 42.3 32.68 45.34"/><polygon class="cls-2" points="32.68 39.26 32.68 39.26 31.16 42.3 34.2 42.3 32.68 39.26"/><polygon class="cls-19" points="29.64 45.34 29.64 45.34 31.16 42.3 28.12 42.3 29.64 45.34"/><polygon class="cls-4" points="29.64 39.26 29.64 39.26 28.12 42.3 31.16 42.3 29.64 39.26"/><polygon class="cls-2" points="26.6 45.34 26.6 45.34 28.12 42.3 25.07 42.3 26.6 45.34"/><polygon class="cls-8" points="26.6 39.26 26.6 39.26 25.07 42.3 28.12 42.3 26.6 39.26"/><polygon class="cls-20" points="23.55 45.34 23.55 45.34 25.07 42.3 22.03 42.3 23.55 45.34"/><polygon class="cls-2" points="23.55 39.26 23.55 39.26 22.03 42.3 25.07 42.3 23.55 39.26"/><polygon class="cls-14" points="20.5 45.34 20.5 45.34 22.03 42.3 18.99 42.3 20.5 45.34"/><polygon class="cls-2" points="20.5 39.26 20.5 39.26 18.99 42.3 22.03 42.3 20.5 39.26"/><polygon class="cls-13" points="17.46 45.34 17.46 45.34 18.99 42.3 15.94 42.3 17.46 45.34"/><polygon class="cls-21" points="17.46 39.26 17.46 39.26 15.94 42.3 18.99 42.3 17.46 39.26"/><polygon class="cls-21" points="14.42 45.34 14.42 45.34 15.94 42.3 12.9 42.3 14.42 45.34"/><polygon class="cls-13" points="14.42 39.26 14.42 39.26 12.9 42.3 15.94 42.3 14.42 39.26"/><polygon class="cls-12" points="11.38 45.34 11.38 45.34 12.9 42.3 9.86 42.3 11.38 45.34"/><polygon class="cls-2" points="11.38 39.26 11.38 39.26 9.86 42.3 12.9 42.3 11.38 39.26"/><polygon class="cls-3" points="8.34 39.26 8.34 39.26 6.81 42.3 9.86 42.3 8.34 39.26"/><polygon class="cls-4" points="46.38 36.22 46.38 36.22 47.9 39.26 44.86 39.26 46.38 36.22"/><polygon class="cls-16" points="46.38 42.3 46.38 42.3 44.86 39.26 47.9 39.26 46.38 42.3"/><polygon class="cls-5" points="43.33 36.22 43.33 36.22 44.86 39.26 41.81 39.26 43.33 36.22"/><polygon class="cls-7" points="43.33 42.3 43.33 42.3 41.81 39.26 44.86 39.26 43.33 42.3"/><polygon class="cls-17" points="40.29 36.22 40.29 36.22 41.81 39.26 38.77 39.26 40.29 36.22"/><polygon class="cls-6" points="40.29 42.3 40.29 42.3 38.77 39.26 41.81 39.26 40.29 42.3"/><polygon class="cls-7" points="37.25 36.22 37.25 36.22 38.77 39.26 35.73 39.26 37.25 36.22"/><polygon class="cls-13" points="37.25 42.3 37.25 42.3 35.73 39.26 38.77 39.26 37.25 42.3"/><polygon class="cls-4" points="34.2 36.22 34.2 36.22 35.73 39.26 32.68 39.26 34.2 36.22"/><polygon class="cls-8" points="34.2 42.3 34.2 42.3 32.68 39.26 35.73 39.26 34.2 42.3"/><polygon class="cls-20" points="31.16 36.22 31.16 36.22 32.68 39.26 29.64 39.26 31.16 36.22"/><polygon class="cls-9" points="31.16 42.3 31.16 42.3 29.64 39.26 32.68 39.26 31.16 42.3"/><polygon class="cls-19" points="28.12 36.22 28.12 36.22 29.64 39.26 26.6 39.26 28.12 36.22"/><polygon class="cls-10" points="28.12 42.3 28.12 42.3 26.6 39.26 29.64 39.26 28.12 42.3"/><polygon class="cls-2" points="25.07 36.22 25.07 36.22 26.6 39.26 23.55 39.26 25.07 36.22"/><polygon class="cls-11" points="25.07 42.3 25.07 42.3 23.55 39.26 26.6 39.26 25.07 42.3"/><polygon class="cls-20" points="22.03 36.22 22.03 36.22 23.55 39.26 20.5 39.26 22.03 36.22"/><polygon class="cls-9" points="22.03 42.3 22.03 42.3 20.5 39.26 23.55 39.26 22.03 42.3"/><polygon class="cls-14" points="18.99 36.22 18.99 36.22 20.5 39.26 17.46 39.26 18.99 36.22"/><polygon class="cls-12" points="18.99 42.3 18.99 42.3 17.46 39.26 20.5 39.26 18.99 42.3"/><polygon class="cls-13" points="15.94 36.22 15.94 36.22 17.46 39.26 14.42 39.26 15.94 36.22"/><polygon class="cls-22" points="15.94 42.3 15.94 42.3 14.42 39.26 17.46 39.26 15.94 42.3"/><polygon class="cls-14" points="12.9 42.3 12.9 42.3 11.38 39.26 14.42 39.26 12.9 42.3"/><polygon class="cls-4" points="14.42 39.26 14.42 39.26 12.9 36.21 15.94 36.21 14.42 39.26"/><polygon class="cls-5" points="17.46 39.26 17.46 39.26 15.94 36.21 18.99 36.21 17.46 39.26"/><polygon class="cls-7" points="17.46 33.17 17.46 33.17 18.99 36.21 15.94 36.21 17.46 33.17"/><polygon class="cls-17" points="20.5 39.26 20.5 39.26 18.99 36.21 22.03 36.21 20.5 39.26"/><polygon class="cls-6" points="20.5 33.17 20.5 33.17 22.03 36.21 18.99 36.21 20.5 33.17"/><polygon class="cls-7" points="23.55 39.26 23.55 39.26 22.03 36.21 25.07 36.21 23.55 39.26"/><polygon class="cls-8" points="23.55 33.17 23.55 33.17 25.07 36.21 22.03 36.21 23.55 33.17"/><polygon class="cls-4" points="26.6 39.26 26.6 39.26 25.07 36.21 28.12 36.21 26.6 39.26"/><polygon class="cls-18" points="26.6 33.17 26.6 33.17 28.12 36.21 25.07 36.21 26.6 33.17"/><polygon class="cls-3" points="29.64 39.26 29.64 39.26 28.12 36.21 31.16 36.21 29.64 39.26"/><polygon class="cls-2" points="29.64 33.17 29.64 33.17 31.16 36.21 28.12 36.21 29.64 33.17"/><polygon class="cls-5" points="32.68 39.26 32.68 39.26 31.16 36.21 34.2 36.21 32.68 39.26"/><polygon class="cls-4" points="32.68 33.17 32.68 33.17 34.2 36.21 31.16 36.21 32.68 33.17"/><polygon class="cls-2" points="35.73 39.26 35.73 39.26 34.2 36.21 37.25 36.21 35.73 39.26"/><polygon class="cls-8" points="35.73 33.17 35.73 33.17 37.25 36.21 34.2 36.21 35.73 33.17"/><polygon class="cls-20" points="38.77 39.26 38.77 39.26 37.25 36.21 40.29 36.21 38.77 39.26"/><polygon class="cls-4" points="38.77 33.17 38.77 33.17 40.29 36.21 37.25 36.21 38.77 33.17"/><polygon class="cls-14" points="41.81 39.26 41.81 39.26 40.29 36.21 43.33 36.21 41.81 39.26"/><polygon class="cls-21" points="41.81 33.17 41.81 33.17 43.33 36.21 40.29 36.21 41.81 33.17"/><polygon class="cls-13" points="44.86 39.26 44.86 39.26 43.33 36.21 46.38 36.21 44.86 39.26"/><polygon class="cls-22" points="44.86 33.17 44.86 33.17 46.38 36.21 43.33 36.21 44.86 33.17"/><polygon class="cls-21" points="47.9 39.26 47.9 39.26 46.38 36.21 49.42 36.21 47.9 39.26"/><polygon class="cls-7" points="22.03 30.13 22.03 30.13 20.5 33.17 23.55 33.17 22.03 30.13"/><polygon class="cls-18" points="22.03 36.21 22.03 36.21 23.55 33.17 20.5 33.17 22.03 36.21"/><polygon class="cls-4" points="25.07 30.13 25.07 30.13 23.55 33.17 26.6 33.17 25.07 30.13"/><polygon class="cls-3" points="25.07 36.21 25.07 36.21 26.6 33.17 23.55 33.17 25.07 36.21"/><polygon class="cls-3" points="28.12 30.13 28.12 30.13 26.6 33.17 29.64 33.17 28.12 30.13"/><polygon class="cls-9" points="28.12 36.21 28.12 36.21 29.64 33.17 26.6 33.17 28.12 36.21"/><polygon class="cls-19" points="31.16 30.13 31.16 30.13 29.64 33.17 32.68 33.17 31.16 30.13"/><polygon class="cls-10" points="31.16 36.21 31.16 36.21 32.68 33.17 29.64 33.17 31.16 36.21"/><polygon class="cls-2" points="34.2 30.13 34.2 30.13 32.68 33.17 35.73 33.17 34.2 30.13"/><polygon class="cls-11" points="34.2 36.21 34.2 36.21 35.73 33.17 32.68 33.17 34.2 36.21"/><polygon class="cls-20" points="37.25 30.13 37.25 30.13 35.73 33.17 38.77 33.17 37.25 30.13"/><polygon class="cls-2" points="37.25 36.21 37.25 36.21 38.77 33.17 35.73 33.17 37.25 36.21"/><polygon class="cls-14" points="40.29 30.13 40.29 30.13 38.77 33.17 41.81 33.17 40.29 30.13"/><polygon class="cls-12" points="40.29 36.21 40.29 36.21 41.81 33.17 38.77 33.17 40.29 36.21"/><polygon class="cls-3" points="28.12 24.04 28.12 24.04 26.6 21 29.64 21 28.12 24.04"/><polygon class="cls-9" points="28.12 17.95 28.12 17.95 29.64 21 26.6 21 28.12 17.95"/><polygon class="cls-19" points="31.16 24.04 31.16 24.04 29.64 21 32.68 21 31.16 24.04"/><polygon class="cls-10" points="31.16 17.95 31.16 17.95 32.68 21 29.64 21 31.16 17.95"/><polygon class="cls-2" points="34.2 24.04 34.2 24.04 32.68 21 35.73 21 34.2 24.04"/><polygon class="cls-23" points="34.2 17.95 34.2 17.95 35.73 21 32.68 21 34.2 17.95"/><polygon class="cls-20" points="37.25 24.04 37.25 24.04 35.73 21 38.77 21 37.25 24.04"/><polygon class="cls-2" points="26.6 21 26.6 21 28.12 17.95 25.07 17.95 26.6 21"/><polygon class="cls-11" points="29.64 14.91 29.64 14.91 28.12 17.95 31.16 17.95 29.64 14.91"/><polygon class="cls-8" points="29.64 21 29.64 21 31.16 17.95 28.12 17.95 29.64 21"/><polygon class="cls-19" points="32.68 14.91 32.68 14.91 31.16 17.95 34.2 17.95 32.68 14.91"/><polygon class="cls-20" points="32.68 21 32.68 21 34.2 17.95 31.16 17.95 32.68 21"/><polygon class="cls-11" points="35.73 21 35.73 21 37.25 17.95 34.2 17.95 35.73 21"/><polygon class="cls-17" points="41.81 33.17 41.81 33.17 43.33 30.13 40.29 30.13 41.81 33.17"/><polygon class="cls-7" points="38.77 33.17 38.77 33.17 40.29 30.13 37.25 30.13 38.77 33.17"/><polygon class="cls-18" points="38.77 27.08 38.77 27.08 37.25 30.13 40.29 30.13 38.77 27.08"/><polygon class="cls-4" points="35.73 33.17 35.73 33.17 37.25 30.13 34.2 30.13 35.73 33.17"/><polygon class="cls-8" points="35.73 27.08 35.73 27.08 34.2 30.13 37.25 30.13 35.73 27.08"/><polygon class="cls-3" points="32.68 33.17 32.68 33.17 34.2 30.13 31.16 30.13 32.68 33.17"/><polygon class="cls-9" points="32.68 27.08 32.68 27.08 31.16 30.13 34.2 30.13 32.68 27.08"/><polygon class="cls-8" points="29.64 33.17 29.64 33.17 31.16 30.13 28.12 30.13 29.64 33.17"/><polygon class="cls-10" points="29.64 27.08 29.64 27.08 28.12 30.13 31.16 30.13 29.64 27.08"/><polygon class="cls-2" points="26.6 33.17 26.6 33.17 28.12 30.13 25.07 30.13 26.6 33.17"/><polygon class="cls-11" points="26.6 27.08 26.6 27.08 25.07 30.13 28.12 30.13 26.6 27.08"/><polygon class="cls-20" points="23.55 33.17 23.55 33.17 25.07 30.13 22.03 30.13 23.55 33.17"/><polygon class="cls-2" points="23.55 27.08 23.55 27.08 22.03 30.13 25.07 30.13 23.55 27.08"/><polygon class="cls-14" points="20.5 33.17 20.5 33.17 22.03 30.13 18.99 30.13 20.5 33.17"/><polygon class="cls-18" points="22.03 30.13 22.03 30.13 23.55 27.08 20.5 27.08 22.03 30.13"/><polygon class="cls-8" points="25.07 30.13 25.07 30.13 26.6 27.08 23.55 27.08 25.07 30.13"/><polygon class="cls-3" points="28.12 24.04 28.12 24.04 26.6 27.08 29.64 27.08 28.12 24.04"/><polygon class="cls-9" points="28.12 30.13 28.12 30.13 29.64 27.08 26.6 27.08 28.12 30.13"/><polygon class="cls-19" points="31.16 24.04 31.16 24.04 29.64 27.08 32.68 27.08 31.16 24.04"/><polygon class="cls-3" points="31.16 30.13 31.16 30.13 32.68 27.08 29.64 27.08 31.16 30.13"/><polygon class="cls-2" points="34.2 24.04 34.2 24.04 32.68 27.08 35.73 27.08 34.2 24.04"/><polygon class="cls-11" points="34.2 30.13 34.2 30.13 35.73 27.08 32.68 27.08 34.2 30.13"/><polygon class="cls-20" points="37.25 24.04 37.25 24.04 35.73 27.08 38.77 27.08 37.25 24.04"/><polygon class="cls-2" points="37.25 30.13 37.25 30.13 38.77 27.08 35.73 27.08 37.25 30.13"/><polygon class="cls-12" points="40.29 30.13 40.29 30.13 41.81 27.08 38.77 27.08 40.29 30.13"/><polygon class="cls-18" points="23.55 21 23.55 21 25.07 24.04 22.03 24.04 23.55 21"/><polygon class="cls-18" points="41.81 21 41.81 21 43.33 24.04 40.29 24.04 41.81 21"/><polygon class="cls-4" points="26.6 27.08 26.6 27.08 25.07 24.04 28.12 24.04 26.6 27.08"/><polygon class="cls-8" points="26.6 21 26.6 21 28.12 24.04 25.07 24.04 26.6 21"/><polygon class="cls-8" points="29.64 27.08 29.64 27.08 28.12 24.04 31.16 24.04 29.64 27.08"/><polygon class="cls-9" points="29.64 21 29.64 21 31.16 24.04 28.12 24.04 29.64 21"/><polygon class="cls-11" points="32.68 27.08 32.68 27.08 31.16 24.04 34.2 24.04 32.68 27.08"/><polygon class="cls-10" points="32.68 21 32.68 21 34.2 24.04 31.16 24.04 32.68 21"/><polygon class="cls-23" points="35.73 27.08 35.73 27.08 34.2 24.04 37.25 24.04 35.73 27.08"/><polygon class="cls-11" points="35.73 21 35.73 21 37.25 24.04 34.2 24.04 35.73 21"/><polygon class="cls-3" points="28.12 17.96 28.12 17.96 26.6 14.91 29.64 14.91 28.12 17.96"/><polygon class="cls-9" points="26.6 14.91 26.6 14.91 28.12 17.96 25.07 17.96 26.6 14.91"/><polygon class="cls-24" points="31.16 17.96 31.16 17.96 29.64 14.91 32.68 14.91 31.16 17.96"/><polygon class="cls-10" points="31.16 11.87 31.16 11.87 32.68 14.91 29.64 14.91 31.16 11.87"/><polygon class="cls-2" points="34.2 17.96 34.2 17.96 32.68 14.91 35.73 14.91 34.2 17.96"/><polygon class="cls-11" points="34.2 11.87 34.2 11.87 35.73 14.91 32.68 14.91 34.2 11.87"/><polygon class="cls-3" points="32.68 14.91 32.68 14.91 34.2 11.87 31.16 11.87 32.68 14.91"/><polygon class="cls-9" points="32.68 8.83 32.68 8.83 31.16 11.87 34.2 11.87 32.68 8.83"/><polygon class="cls-19" points="29.64 14.91 29.64 14.91 31.16 11.87 28.12 11.87 29.64 14.91"/><polygon class="cls-10" points="29.64 8.83 29.64 8.83 28.12 11.87 31.16 11.87 29.64 8.83"/><polygon class="cls-25" points="31.16 5.78 31.16 5.78 32.68 8.83 29.64 8.83 31.16 5.78"/><polygon class="cls-8" points="31.16 11.87 31.16 11.87 29.64 8.83 32.68 8.83 31.16 11.87"/><polygon class="cls-3" points="29.64 8.82 29.64 8.82 28.12 5.78 31.16 5.78 29.64 8.82"/><polygon class="cls-19" points="32.68 8.82 32.68 8.82 31.16 5.78 34.2 5.78 32.68 8.82"/><polygon class="cls-19" points="31.16 -0.3 31.16 -0.3 29.64 2.74 32.68 2.74 31.16 -0.3"/><polygon class="cls-2" points="31.16 5.78 31.16 5.78 32.68 2.74 29.64 2.74 31.16 5.78"/><path class="cls-26" d="M62.63,35.48a2.29,2.29,0,0,1-.59.84,2.59,2.59,0,0,1-.92.52A3.82,3.82,0,0,1,60,37H56.1V27.46h3.72a3,3,0,0,1,2.11.7,2.42,2.42,0,0,1,.77,1.91,2.09,2.09,0,0,1-.11.72,3.34,3.34,0,0,1-.29.6,2.16,2.16,0,0,1-.41.44,2.26,2.26,0,0,1-.47.27,2.17,2.17,0,0,1,.53.3,2.57,2.57,0,0,1,.46.47,2.19,2.19,0,0,1,.32.63,2.55,2.55,0,0,1,.12.81A2.87,2.87,0,0,1,62.63,35.48Zm-1.8-6.37a1.77,1.77,0,0,0-1.13-.35H57.55V31.5H59.7a1.77,1.77,0,0,0,1.13-.35,1.26,1.26,0,0,0,.42-1A1.24,1.24,0,0,0,60.83,29.11ZM61,33.2a1.58,1.58,0,0,0-1.17-.4H57.55v2.91h2.28A1.59,1.59,0,0,0,61,35.3a1.58,1.58,0,0,0,0-2.1Z"/><path class="cls-26" d="M70.28,37l-.66-1.92H65.86L65.2,37H63.66l3.5-9.55h1.16L71.83,37Zm-2.51-7.38-1.48,4.24h2.94Z"/><path class="cls-26" d="M78.84,37l-4.41-6.72V37H73V27.46h1.33l4.41,6.71V27.46h1.45V37Z"/><path class="cls-26" d="M88.84,34.87A3,3,0,0,1,88.18,36a3.41,3.41,0,0,1-1.21.83,3.89,3.89,0,0,1-1.42.25,3.65,3.65,0,0,1-1.38-.26A3.57,3.57,0,0,1,83,36.07a2.86,2.86,0,0,1-.54-.74,3.59,3.59,0,0,1-.27-.84,6.07,6.07,0,0,1-.1-1c0-.36,0-.78,0-1.23s0-.87,0-1.25a6.17,6.17,0,0,1,.1-1,3.59,3.59,0,0,1,.27-.84A2.86,2.86,0,0,1,83,28.4a3.48,3.48,0,0,1,1.12-.76,3.66,3.66,0,0,1,1.39-.26,3.84,3.84,0,0,1,1.36.23,3.26,3.26,0,0,1,1,.64,3.11,3.11,0,0,1,.71.94A4.44,4.44,0,0,1,89,30.34H87.56a2.28,2.28,0,0,0-.7-1.23,1.93,1.93,0,0,0-1.31-.43,1.86,1.86,0,0,0-.79.16,2,2,0,0,0-.62.43,1.69,1.69,0,0,0-.29.41,2.73,2.73,0,0,0-.18.55c0,.22-.06.49-.08.8s0,.72,0,1.21,0,.88,0,1.21,0,.59.08.8a2.53,2.53,0,0,0,.18.55,1.69,1.69,0,0,0,.29.41,1.79,1.79,0,0,0,.62.42,1.86,1.86,0,0,0,.79.16,2.29,2.29,0,0,0,.87-.17,2,2,0,0,0,.69-.5,1.93,1.93,0,0,0,.37-.67,3,3,0,0,0,.11-.83v-.54h-2V31.86H89v1.46A5.31,5.31,0,0,1,88.84,34.87Z"/><path class="cls-26" d="M91,37V27.46h1.45v8.25H97V37Z"/><path class="cls-26" d="M104,37l-.66-1.92H99.53L98.87,37H97.33l3.5-9.55H102L105.5,37Zm-2.51-7.38L100,33.87h2.94Z"/><path class="cls-26" d="M113.43,33.23a6.12,6.12,0,0,1-.09,1.05,4.11,4.11,0,0,1-.27,1,2.93,2.93,0,0,1-1.68,1.54A4.09,4.09,0,0,1,110,37h-3.35V27.46H110a4.09,4.09,0,0,1,1.39.22,2.76,2.76,0,0,1,1.08.68,3,3,0,0,1,.6.84,3.76,3.76,0,0,1,.27.94,5.36,5.36,0,0,1,.09,1c0,.34,0,.69,0,1S113.44,32.87,113.43,33.23Zm-1.51-2.73a1.86,1.86,0,0,0-.44-1.1,2.09,2.09,0,0,0-1.62-.64H108.1v7h1.76a2.09,2.09,0,0,0,1.62-.64,1.94,1.94,0,0,0,.44-1.16c0-.5.07-1.08.07-1.74A15.6,15.6,0,0,0,111.92,30.5Z"/><path class="cls-26" d="M115.39,37V27.46h6.1v1.3h-4.66v2.79h4v1.29h-4v2.87h4.66V37Z"/><path class="cls-26" d="M129,35.47a2.56,2.56,0,0,1-.72.88,2.9,2.9,0,0,1-1.08.55,4.65,4.65,0,0,1-1.38.19,5.62,5.62,0,0,1-1.89-.28,3.79,3.79,0,0,1-1.49-1l1-.95a2.69,2.69,0,0,0,1.12.71,4.16,4.16,0,0,0,1.32.2,2.44,2.44,0,0,0,1.46-.38,1.27,1.27,0,0,0,.52-1.09,1.24,1.24,0,0,0-.38-1,1.19,1.19,0,0,0-.4-.26,4.61,4.61,0,0,0-.65-.15l-1.12-.16a3.28,3.28,0,0,1-1.82-.76,2.41,2.41,0,0,1-.69-1.83,2.78,2.78,0,0,1,.22-1.13,2.57,2.57,0,0,1,.63-.89,2.74,2.74,0,0,1,1-.58,4.24,4.24,0,0,1,1.34-.2,4.77,4.77,0,0,1,1.65.25,3.66,3.66,0,0,1,1.31.84l-.92.91a2.39,2.39,0,0,0-1-.59,4,4,0,0,0-1.12-.15,1.86,1.86,0,0,0-1.3.42,1.44,1.44,0,0,0-.45,1.07,1.13,1.13,0,0,0,.1.49,1.05,1.05,0,0,0,.27.4,2.07,2.07,0,0,0,1.07.44l1.09.16a4.71,4.71,0,0,1,1.07.27,2.43,2.43,0,0,1,.71.44,2.05,2.05,0,0,1,.58.84,3.1,3.1,0,0,1,.2,1.12A2.68,2.68,0,0,1,129,35.47Z"/><path class="cls-26" d="M136.31,37V32.84h-3.88V37H131V27.46h1.44v4.08h3.88V27.46h1.45V37Z"/><path class="cls-27" d="M11.07,56.49a1.83,1.83,0,0,1-.53.65,2.35,2.35,0,0,1-.79.4,3.57,3.57,0,0,1-1,.14,4.15,4.15,0,0,1-1.39-.21,2.73,2.73,0,0,1-1.09-.72l.7-.69a2.26,2.26,0,0,0,.82.52,3,3,0,0,0,1,.15,1.82,1.82,0,0,0,1.07-.28.94.94,0,0,0,.38-.79,1,1,0,0,0-.28-.74.92.92,0,0,0-.3-.18,3,3,0,0,0-.47-.11l-.82-.11A2.4,2.4,0,0,1,7,54a1.74,1.74,0,0,1-.51-1.34,2.22,2.22,0,0,1,.16-.82,1.83,1.83,0,0,1,.46-.66,2,2,0,0,1,.74-.42,3,3,0,0,1,1-.15,3.42,3.42,0,0,1,1.21.19,2.78,2.78,0,0,1,1,.61l-.68.67a1.59,1.59,0,0,0-.7-.43,3.06,3.06,0,0,0-.82-.12,1.37,1.37,0,0,0-1,.31,1.11,1.11,0,0,0-.27,1.15,1.08,1.08,0,0,0,.2.29,1.55,1.55,0,0,0,.79.32l.8.11a4.05,4.05,0,0,1,.78.21,1.87,1.87,0,0,1,.53.32,1.49,1.49,0,0,1,.42.62,2.14,2.14,0,0,1,.15.82A1.84,1.84,0,0,1,11.07,56.49Z"/><path class="cls-27" d="M15.47,57.62l-1.4-2.3-.74.84v1.46h-1v-7h1v4.32l1.94-2.31h1.21l-1.73,2,2,3Z"/><path class="cls-27" d="M17.45,51.65V50.59h1.06v1.06Zm0,6v-5h1v5Z"/><path class="cls-27" d="M21.18,57.62a1.46,1.46,0,0,1-.62-.12,1.09,1.09,0,0,1-.42-.29,1.07,1.07,0,0,1-.25-.44,1.57,1.57,0,0,1-.08-.52V50.62h1v5.56a.7.7,0,0,0,.11.44.51.51,0,0,0,.42.14h.44v.86Z"/><path class="cls-27" d="M24,57.62a1.49,1.49,0,0,1-.62-.12,1.21,1.21,0,0,1-.43-.29,1.34,1.34,0,0,1-.24-.44,1.57,1.57,0,0,1-.08-.52V50.62h1v5.56a.7.7,0,0,0,.11.44.52.52,0,0,0,.42.14h.44v.86Z"/><path class="cls-27" d="M26,55.42a1.49,1.49,0,0,0,.33,1,1.16,1.16,0,0,0,.94.37,1.71,1.71,0,0,0,.69-.12,2.07,2.07,0,0,0,.52-.38l.64.59a2.37,2.37,0,0,1-.39.34,1.58,1.58,0,0,1-.42.24,1.73,1.73,0,0,1-.47.15,3.42,3.42,0,0,1-.59,0,3.12,3.12,0,0,1-.88-.13,1.81,1.81,0,0,1-.71-.44,2.15,2.15,0,0,1-.48-.78A3.55,3.55,0,0,1,25,55.12a2.8,2.8,0,0,1,.58-1.88,1.94,1.94,0,0,1,1.54-.66,2.16,2.16,0,0,1,.9.17,1.93,1.93,0,0,1,.66.5,2,2,0,0,1,.41.75,3,3,0,0,1,.15,1v.45Zm2.21-1.07a1.58,1.58,0,0,0-.1-.31,1,1,0,0,0-.38-.46,1.07,1.07,0,0,0-.61-.17,1.12,1.12,0,0,0-.61.17,1,1,0,0,0-.38.46.82.82,0,0,0-.09.31,1.82,1.82,0,0,0,0,.37h2.25A3,3,0,0,0,28.19,54.35Z"/><path class="cls-27" d="M33.16,57.62v-.53a1.61,1.61,0,0,1-.59.46,1.86,1.86,0,0,1-.73.13,1.92,1.92,0,0,1-.69-.12,1.39,1.39,0,0,1-.53-.32,1.88,1.88,0,0,1-.31-.43,4.64,4.64,0,0,1-.16-.53,3.7,3.7,0,0,1-.07-.57c0-.21,0-.4,0-.59s0-.38,0-.57a3.42,3.42,0,0,1,.07-.57,4.1,4.1,0,0,1,.16-.53,1.53,1.53,0,0,1,.31-.43,1.39,1.39,0,0,1,.53-.32,1.65,1.65,0,0,1,.68-.12,1.82,1.82,0,0,1,.72.12,1.41,1.41,0,0,1,.59.44V50.62h1v7Zm-.06-3.13A1.32,1.32,0,0,0,33,54a.81.81,0,0,0-.31-.37,1.08,1.08,0,0,0-.54-.13,1.09,1.09,0,0,0-.55.13,1,1,0,0,0-.31.37,1.32,1.32,0,0,0-.15.52,4.26,4.26,0,0,0,0,.63,4.4,4.4,0,0,0,0,.64,1.43,1.43,0,0,0,.15.53,1.06,1.06,0,0,0,1.4.36.83.83,0,0,0,.31-.36,1.43,1.43,0,0,0,.14-.53c0-.2,0-.42,0-.64A6.26,6.26,0,0,0,33.1,54.49Z"/><path class="cls-27" d="M35.47,57.62v-1.2h1.21v1.2Z"/><path class="cls-27" d="M40.24,57.62v-7h4.47v1H41.3v2h2.91v.94H41.3v2.11h3.41v.95Z"/><path class="cls-27" d="M48.65,59.64V57.11a1.43,1.43,0,0,1-.59.44,1.8,1.8,0,0,1-.71.13,1.88,1.88,0,0,1-.69-.12,1.35,1.35,0,0,1-.52-.32,1.62,1.62,0,0,1-.31-.43,2.49,2.49,0,0,1-.16-.53,3.72,3.72,0,0,1-.08-.57c0-.21,0-.4,0-.59s0-.38,0-.57a3.4,3.4,0,0,1,.08-.57,2.33,2.33,0,0,1,.16-.53,1.46,1.46,0,0,1,.83-.75,2.13,2.13,0,0,1,1.41,0,1.53,1.53,0,0,1,.61.47v-.54h1v7Zm0-5.15a1.78,1.78,0,0,0-.15-.52.81.81,0,0,0-.31-.37,1.08,1.08,0,0,0-.54-.13,1.09,1.09,0,0,0-.55.13.87.87,0,0,0-.31.37,1.52,1.52,0,0,0-.15.52q0,.3,0,.63c0,.22,0,.44,0,.64a1.65,1.65,0,0,0,.15.53.9.9,0,0,0,.31.36,1,1,0,0,0,.55.13,1,1,0,0,0,.54-.13.83.83,0,0,0,.31-.36,2,2,0,0,0,.15-.53c0-.2,0-.42,0-.64S48.64,54.69,48.62,54.49Z"/><path class="cls-27" d="M54,57.62v-.5a1.59,1.59,0,0,1-.61.42,1.92,1.92,0,0,1-.72.14,1.78,1.78,0,0,1-1.23-.45,1.48,1.48,0,0,1-.39-.64,2.65,2.65,0,0,1-.11-.77V52.63h1v3a1.08,1.08,0,0,0,.3.84,1,1,0,0,0,.71.26,1.23,1.23,0,0,0,.39-.06.83.83,0,0,0,.34-.2,1.23,1.23,0,0,0,.22-.35,1.48,1.48,0,0,0,.08-.49v-3h1v5Z"/><path class="cls-27" d="M56.33,51.65V50.59h1.06v1.06Zm0,6v-5h1v5Z"/><path class="cls-27" d="M62.79,55.71a3.72,3.72,0,0,1-.08.57,3.27,3.27,0,0,1-.17.53,1.84,1.84,0,0,1-.3.43,1.39,1.39,0,0,1-.53.32,1.83,1.83,0,0,1-.68.12,1.78,1.78,0,0,1-.72-.13,1.65,1.65,0,0,1-.59-.44v2.53h-1v-7h1v.54a1.5,1.5,0,0,1,.6-.47,1.78,1.78,0,0,1,.72-.12,1.73,1.73,0,0,1,.69.12,1.47,1.47,0,0,1,.53.32,1.5,1.5,0,0,1,.3.43,3,3,0,0,1,.17.53,3.4,3.4,0,0,1,.08.57c0,.19,0,.39,0,.57S62.8,55.5,62.79,55.71Zm-1-1.22a1.52,1.52,0,0,0-.14-.52.87.87,0,0,0-.31-.37,1.12,1.12,0,0,0-.55-.13,1.15,1.15,0,0,0-.55.13.85.85,0,0,0-.3.37,1.32,1.32,0,0,0-.15.52,4.26,4.26,0,0,0,0,.63,4.4,4.4,0,0,0,0,.64,1.43,1.43,0,0,0,.15.53.88.88,0,0,0,.3.36,1,1,0,0,0,.55.13,1,1,0,0,0,.55-.13.9.9,0,0,0,.31-.36,1.65,1.65,0,0,0,.14-.53,4.43,4.43,0,0,0,0-.64A4.29,4.29,0,0,0,61.76,54.49Z"/><path class="cls-27" d="M68,55.71a2.78,2.78,0,0,1-.07.57,2.52,2.52,0,0,1-.17.53,1.84,1.84,0,0,1-.3.43,1.43,1.43,0,0,1-.52.32,1.92,1.92,0,0,1-.69.12,1.78,1.78,0,0,1-.72-.13,1.47,1.47,0,0,1-.58-.44v2.53h-1v-7h1v.54a1.48,1.48,0,0,1,.59-.47,1.75,1.75,0,0,1,.72-.12,1.73,1.73,0,0,1,.69.12,1.39,1.39,0,0,1,.53.32,1.5,1.5,0,0,1,.3.43,2.34,2.34,0,0,1,.17.53,2.62,2.62,0,0,1,.07.57c0,.19,0,.39,0,.57S68,55.5,68,55.71Zm-1-1.22a1.18,1.18,0,0,0-.15-.52.79.79,0,0,0-.3-.37,1.23,1.23,0,0,0-1.1,0,1,1,0,0,0-.31.37,1.78,1.78,0,0,0-.15.52c0,.2,0,.41,0,.63s0,.44,0,.64a2,2,0,0,0,.15.53,1.07,1.07,0,0,0,1.41.36.81.81,0,0,0,.3-.36,1.26,1.26,0,0,0,.15-.53,4.43,4.43,0,0,0,0-.64A4.29,4.29,0,0,0,67,54.49Z"/><path class="cls-27" d="M69.87,55.42a1.44,1.44,0,0,0,.33,1,1.14,1.14,0,0,0,.93.37,1.64,1.64,0,0,0,.69-.12,2.11,2.11,0,0,0,.53-.38l.63.59a2.37,2.37,0,0,1-.39.34,1.52,1.52,0,0,1-.41.24,1.8,1.8,0,0,1-.48.15,3.39,3.39,0,0,1-.58,0,3.06,3.06,0,0,1-.88-.13,1.74,1.74,0,0,1-.71-.44,2,2,0,0,1-.49-.78,3.57,3.57,0,0,1-.17-1.21,2.8,2.8,0,0,1,.57-1.88A2,2,0,0,1,71,52.58a2.13,2.13,0,0,1,.9.17,1.87,1.87,0,0,1,.67.5A2.17,2.17,0,0,1,73,54a3.29,3.29,0,0,1,.14,1v.45Zm2.2-1.07A1.11,1.11,0,0,0,72,54a1,1,0,0,0-.37-.46,1.1,1.1,0,0,0-.62-.17,1.08,1.08,0,0,0-.6.17A.94.94,0,0,0,70,54a.86.86,0,0,0-.1.31,1.9,1.9,0,0,0,0,.37h2.24A3,3,0,0,0,72.07,54.35Z"/><path class="cls-27" d="M77,57.62v-.53a1.61,1.61,0,0,1-.59.46,1.81,1.81,0,0,1-.72.13,1.92,1.92,0,0,1-.69-.12,1.38,1.38,0,0,1-.83-.75,2.52,2.52,0,0,1-.17-.53,3.72,3.72,0,0,1-.08-.57c0-.21,0-.4,0-.59s0-.38,0-.57A3.4,3.4,0,0,1,74,54a2.34,2.34,0,0,1,.17-.53,1.19,1.19,0,0,1,.3-.43A1.43,1.43,0,0,1,75,52.7a1.7,1.7,0,0,1,.69-.12,1.73,1.73,0,0,1,.71.12,1.35,1.35,0,0,1,.59.44V50.62h1v7ZM77,54.49a1.52,1.52,0,0,0-.14-.52.89.89,0,0,0-.32-.37,1.05,1.05,0,0,0-.54-.13,1,1,0,0,0-.54.13.89.89,0,0,0-.32.37,1.32,1.32,0,0,0-.15.52q0,.3,0,.63c0,.22,0,.44,0,.64a1.43,1.43,0,0,0,.15.53.93.93,0,0,0,.32.36.94.94,0,0,0,.54.13,1,1,0,0,0,.54-.13.93.93,0,0,0,.32-.36,1.65,1.65,0,0,0,.14-.53c0-.2,0-.42,0-.64S77,54.69,77,54.49Z"/><path class="cls-27" d="M79.35,57.62v-1.2h1.2v1.2Z"/><path class="cls-27" d="M89.09,54.85a6.48,6.48,0,0,1-.06.77,3,3,0,0,1-.21.71,2,2,0,0,1-.43.63,2.13,2.13,0,0,1-.8.5,3.19,3.19,0,0,1-1,.16H84.12v-7h2.46a3.19,3.19,0,0,1,1,.16,2.13,2.13,0,0,1,.8.5,2.06,2.06,0,0,1,.43.61,2.89,2.89,0,0,1,.21.69,6,6,0,0,1,.06.73c0,.25,0,.5,0,.76S89.1,54.58,89.09,54.85Zm-1.11-2a1.24,1.24,0,0,0-.33-.8,1.48,1.48,0,0,0-1.18-.48H85.18v5.1h1.29a1.51,1.51,0,0,0,1.18-.47,1.32,1.32,0,0,0,.33-.86A11.76,11.76,0,0,0,88,54.07,10.31,10.31,0,0,0,88,52.85Z"/><path class="cls-27" d="M90.28,51.65V50.59h1.07v1.06Zm0,6v-5h1v5Z"/><path class="cls-27" d="M96.33,58.43a1.86,1.86,0,0,1-.42.67,2.05,2.05,0,0,1-.67.44,2.54,2.54,0,0,1-.9.15,3.1,3.1,0,0,1-1-.14,2.48,2.48,0,0,1-.78-.51l.64-.64a1.65,1.65,0,0,0,.46.33,1.41,1.41,0,0,0,.62.11,1.25,1.25,0,0,0,.53-.1,1,1,0,0,0,.36-.28,1.31,1.31,0,0,0,.22-.4,1.91,1.91,0,0,0,.06-.48v-.64a1.52,1.52,0,0,1-.6.44,1.92,1.92,0,0,1-.69.12,2.06,2.06,0,0,1-.68-.11,1.66,1.66,0,0,1-.51-.33,1.54,1.54,0,0,1-.46-.88,5.73,5.73,0,0,1-.1-1.15,5.86,5.86,0,0,1,.1-1.15A1.58,1.58,0,0,1,93,53a1.6,1.6,0,0,1,1.2-.43,1.8,1.8,0,0,1,.71.12,1.57,1.57,0,0,1,.6.47v-.54h1v5A2.24,2.24,0,0,1,96.33,58.43Zm-.89-4a1.32,1.32,0,0,0-.13-.5,1,1,0,0,0-.3-.36,1.12,1.12,0,0,0-.55-.13,1.05,1.05,0,0,0-.54.13.83.83,0,0,0-.31.36,1.32,1.32,0,0,0-.13.5,3.77,3.77,0,0,0,0,.58,3.69,3.69,0,0,0,0,.58,1.32,1.32,0,0,0,.13.5.76.76,0,0,0,.31.35,1,1,0,0,0,.54.14,1,1,0,0,0,.55-.14.86.86,0,0,0,.3-.35,1.32,1.32,0,0,0,.13-.5,5.46,5.46,0,0,0,0-.58A5.65,5.65,0,0,0,95.44,54.46Z"/><path class="cls-27" d="M97.8,51.65V50.59h1.07v1.06Zm0,6v-5h1v5Z"/><path class="cls-27" d="M101.68,57.62a1.41,1.41,0,0,1-.61-.12,1.1,1.1,0,0,1-.42-.31,1.5,1.5,0,0,1-.26-.44,1.81,1.81,0,0,1-.08-.51V53.49h-.57v-.77h.57V51.21h1v1.51h1v.77h-1v2.69a.6.6,0,0,0,.13.43.48.48,0,0,0,.42.15h.41v.86Z"/><path class="cls-27" d="M106,57.62v-.45a1.85,1.85,0,0,1-.58.39,2,2,0,0,1-.75.12,2.26,2.26,0,0,1-.79-.12,1.33,1.33,0,0,1-.55-.33,1.52,1.52,0,0,1-.39-1.07,1.36,1.36,0,0,1,.43-1,1.84,1.84,0,0,1,1.29-.4h1.31v-.35a.9.9,0,0,0-.25-.71,1.21,1.21,0,0,0-.83-.23,1.59,1.59,0,0,0-.65.11,1,1,0,0,0-.44.38l-.67-.62a1.84,1.84,0,0,1,.77-.57,3,3,0,0,1,1-.15c1.37,0,2.06.57,2.06,1.71v3.33Zm0-2.2h-1.16a1,1,0,0,0-.67.19.65.65,0,0,0-.23.53.63.63,0,0,0,.23.52,1.06,1.06,0,0,0,.69.18,2.53,2.53,0,0,0,.5,0,.81.81,0,0,0,.43-.24,1.07,1.07,0,0,0,.21-.74Z"/><path class="cls-27" d="M109.59,57.62a1.46,1.46,0,0,1-.62-.12,1.3,1.3,0,0,1-.43-.29,1.18,1.18,0,0,1-.24-.44,1.58,1.58,0,0,1-.09-.52V50.62h1v5.56a.7.7,0,0,0,.12.44.5.5,0,0,0,.42.14h.44v.86Z"/><path class="cls-27" d="M115.05,57.62l-1.47-2.95h-1.33v2.95h-1.06v-7h2.71a2.57,2.57,0,0,1,.9.15,2.11,2.11,0,0,1,.68.42,2,2,0,0,1,.44.65,2.27,2.27,0,0,1,.16.83,1.8,1.8,0,0,1-.41,1.22,2.09,2.09,0,0,1-1,.64l1.62,3.09Zm-.37-5.76a1.26,1.26,0,0,0-.86-.29h-1.57v2.21h1.57a1.26,1.26,0,0,0,.86-.29,1,1,0,0,0,.33-.81A1,1,0,0,0,114.68,51.86Z"/><path class="cls-27" d="M118,55.42a1.54,1.54,0,0,0,.32,1,1.19,1.19,0,0,0,1,.37,1.66,1.66,0,0,0,.68-.12,1.77,1.77,0,0,0,.52-.38l.65.59a2.41,2.41,0,0,1-.4.34,1.63,1.63,0,0,1-.4.24,2.13,2.13,0,0,1-.49.15,3.42,3.42,0,0,1-.59,0,3.1,3.1,0,0,1-.87-.13,1.78,1.78,0,0,1-.72-.44,2.3,2.3,0,0,1-.48-.78,3.81,3.81,0,0,1-.18-1.21,2.75,2.75,0,0,1,.59-1.88,1.92,1.92,0,0,1,1.53-.66,2.1,2.1,0,0,1,.9.17,1.75,1.75,0,0,1,.66.5,2,2,0,0,1,.42.75,3,3,0,0,1,.14,1v.45Zm2.2-1.07a1.11,1.11,0,0,0-.1-.31,1,1,0,0,0-.37-.46,1.18,1.18,0,0,0-1.22,0,1,1,0,0,0-.38.46.86.86,0,0,0-.1.31,3.25,3.25,0,0,0,0,.37h2.24A1.82,1.82,0,0,0,120.22,54.35Z"/><path class="cls-27" d="M125,57.62v-.45a1.81,1.81,0,0,1-.57.39,2.05,2.05,0,0,1-.76.12,2.26,2.26,0,0,1-.79-.12,1.47,1.47,0,0,1-.55-.33,1.51,1.51,0,0,1-.38-1.07,1.39,1.39,0,0,1,.42-1,1.86,1.86,0,0,1,1.29-.4H125v-.35a.94.94,0,0,0-.25-.71,1.26,1.26,0,0,0-.84-.23,1.59,1.59,0,0,0-.65.11,1.11,1.11,0,0,0-.44.38l-.66-.62a1.88,1.88,0,0,1,.76-.57,3,3,0,0,1,1-.15c1.36,0,2.06.57,2.06,1.71v3.33Zm0-2.2h-1.17a1,1,0,0,0-.67.19.64.64,0,0,0-.22.53.62.62,0,0,0,.22.52,1.08,1.08,0,0,0,.69.18,2.64,2.64,0,0,0,.51,0,.82.82,0,0,0,.42-.24,1,1,0,0,0,.22-.74Z"/><path class="cls-27" d="M130.17,57.62v-.53a1.56,1.56,0,0,1-.6.46,1.78,1.78,0,0,1-.72.13,2,2,0,0,1-.69-.12,1.35,1.35,0,0,1-.52-.32,1.43,1.43,0,0,1-.31-.43,3.27,3.27,0,0,1-.17-.53,3.7,3.7,0,0,1-.07-.57c0-.21,0-.4,0-.59s0-.38,0-.57a3.42,3.42,0,0,1,.07-.57,3,3,0,0,1,.17-.53,1.22,1.22,0,0,1,.31-.43,1.39,1.39,0,0,1,.51-.32,1.73,1.73,0,0,1,.69-.12,1.82,1.82,0,0,1,.72.12,1.47,1.47,0,0,1,.59.44V50.62h1v7Zm0-3.13A1.79,1.79,0,0,0,130,54a1,1,0,0,0-.32-.37,1.08,1.08,0,0,0-.54-.13,1.09,1.09,0,0,0-.55.13,1,1,0,0,0-.32.37,1.79,1.79,0,0,0-.14.52,4.29,4.29,0,0,0,0,.63,4.43,4.43,0,0,0,0,.64,2,2,0,0,0,.14.53,1,1,0,0,0,.32.36,1,1,0,0,0,.55.13,1,1,0,0,0,.54-.13,1,1,0,0,0,.32-.36,2,2,0,0,0,.14-.53c0-.2,0-.42,0-.64S130.14,54.69,130.12,54.49Z"/><path class="cls-27" d="M134.07,58.61a1.54,1.54,0,0,1-.36.62,1.23,1.23,0,0,1-.47.29,2,2,0,0,1-.56.08h-.4v-.9h.25a.81.81,0,0,0,.47-.11,1,1,0,0,0,.26-.42l.27-.78-1.74-4.76h1.07L134,56.14l1.16-3.51h1.08Z"/><path class="cls-27" d="M136.2,57.62v-1.2h1.2v1.2Z"/><path class="cls-26" d="M56.94,20.15a6,6,0,0,1-.09,1.05,3.78,3.78,0,0,1-.28,1A2.59,2.59,0,0,1,56,23a2.81,2.81,0,0,1-1.08.67,3.9,3.9,0,0,1-1.39.22H50.16V14.38h3.35a4.4,4.4,0,0,1,1.39.22,3.1,3.1,0,0,1,1.08.68,2.74,2.74,0,0,1,.59.84,3.5,3.5,0,0,1,.28.94,5.55,5.55,0,0,1,.09,1c0,.34,0,.69,0,1S57,19.8,56.94,20.15Zm-1.51-2.73A1.83,1.83,0,0,0,55,16.33a2.09,2.09,0,0,0-1.62-.65H51.61v7h1.76A2.09,2.09,0,0,0,55,22a1.91,1.91,0,0,0,.44-1.16c0-.5.07-1.08.07-1.74A15.72,15.72,0,0,0,55.43,17.42Z"/><path class="cls-26" d="M58.89,23.93V14.38h1.45v9.55Z"/><path class="cls-26" d="M69,21.8a2.72,2.72,0,0,1-.66,1.13,3.28,3.28,0,0,1-1.21.83,3.9,3.9,0,0,1-1.42.26,3.54,3.54,0,0,1-2.51-1,2.6,2.6,0,0,1-.53-.74,3.32,3.32,0,0,1-.28-.84,7.66,7.66,0,0,1-.1-1c0-.37,0-.78,0-1.24s0-.87,0-1.24a7.34,7.34,0,0,1,.1-1,3.26,3.26,0,0,1,.28-.85,2.6,2.6,0,0,1,.53-.74,3.43,3.43,0,0,1,2.51-1,3.63,3.63,0,0,1,1.36.23,3.31,3.31,0,0,1,1,.64,3.21,3.21,0,0,1,.7.93,4.51,4.51,0,0,1,.38,1.16H67.73A2.2,2.2,0,0,0,67,16a2,2,0,0,0-1.32-.43,1.86,1.86,0,0,0-.79.16,1.82,1.82,0,0,0-.62.43,1.65,1.65,0,0,0-.28.41,1.77,1.77,0,0,0-.18.55,5.24,5.24,0,0,0-.08.8c0,.32,0,.72,0,1.2s0,.88,0,1.21a5.53,5.53,0,0,0,.08.81,1.87,1.87,0,0,0,.18.55,1.65,1.65,0,0,0,.28.41,1.79,1.79,0,0,0,.62.42,2,2,0,0,0,.79.15,2.11,2.11,0,0,0,.87-.17,1.89,1.89,0,0,0,.69-.49,1.78,1.78,0,0,0,.37-.67,2.72,2.72,0,0,0,.11-.84V20h-2V18.79h3.49v1.45A5,5,0,0,1,69,21.8Z"/><path class="cls-26" d="M71.14,23.93V14.38h1.45v9.55Z"/><path class="cls-26" d="M78.12,15.68v8.25H76.67V15.68H74v-1.3h6.7v1.3Z"/><path class="cls-26" d="M86.88,23.93,86.22,22H82.45l-.66,1.91H80.25l3.5-9.55h1.17l3.5,9.55Zm-2.51-7.37L82.88,20.8h2.94Z"/><path class="cls-26" d="M89.57,23.93V14.38H91v8.26h4.6v1.29Z"/></svg>