<svg xmlns="http://www.w3.org/2000/svg" width="116.902" height="38" viewBox="0 0 116.902 38"><path d="M3.6,3.647c2.59,0,3.775-1.811,3.775-4.012V-7.576H4.752V-.585c0,1.506-.474,1.964-1.422,1.964A1.643,1.643,0,0,1,1.875.448L.216,1.582A3.463,3.463,0,0,0,3.6,3.647Zm9.344,0a4.146,4.146,0,0,0,4.13-4.418,4.131,4.131,0,0,0-4.13-4.4,4.128,4.128,0,0,0-4.113,4.4A4.143,4.143,0,0,0,12.945,3.647Zm0-2.116c-.982,0-1.439-.9-1.439-2.3,0-1.388.457-2.3,1.439-2.3s1.439.914,1.439,2.3C14.384.634,13.927,1.531,12.945,1.531ZM22.9,3.647c1.811,0,3.521-1.659,3.521-4.553,0-2.59-1.27-4.266-3.3-4.266a3.3,3.3,0,0,0-2.167.9L21-5.544V-8.388H18.4V3.444h2.048l.2-.9h.068A2.981,2.981,0,0,0,22.9,3.647ZM22.272,1.5A1.862,1.862,0,0,1,21,1.006V-2.328a1.8,1.8,0,0,1,1.354-.711c.931,0,1.371.694,1.371,2.167C23.727.837,23.084,1.5,22.272,1.5ZM31.04,3.444H33.68V-.212h1.3C37.3-.212,39.317-1.363,39.317-4c0-2.708-1.98-3.572-4.4-3.572H31.04ZM33.68-2.294v-3.2h1.083c1.286,0,1.98.389,1.98,1.49s-.609,1.71-1.913,1.71ZM43.938,3.647a4.146,4.146,0,0,0,4.13-4.418,4.131,4.131,0,0,0-4.13-4.4,4.128,4.128,0,0,0-4.113,4.4A4.143,4.143,0,0,0,43.938,3.647Zm0-2.116c-.982,0-1.439-.9-1.439-2.3,0-1.388.457-2.3,1.439-2.3s1.439.914,1.439,2.3C45.377.634,44.92,1.531,43.938,1.531Zm5.45,1.913H52V-1.363a2.063,2.063,0,0,1,1.828-1.523,3.356,3.356,0,0,1,.863.1L55.177-5a2.2,2.2,0,0,0-1.016-.169,2.809,2.809,0,0,0-2.387,1.659h-.068l-.186-1.456H49.388Zm9.818.2a5.308,5.308,0,0,0,1.913-.339L60.712,1.48a2.279,2.279,0,0,1-.779.118c-.626,0-1.066-.355-1.066-1.3V-2.921h1.98V-4.969h-1.98V-7.542H56.7l-.3,2.573-1.286.085v1.964h1.134V.329C56.244,2.31,57.107,3.647,59.206,3.647Zm4.723,0a3.521,3.521,0,0,0,2.4-1.049H66.4l.186.846h2.133V-1.33c0-2.641-1.219-3.842-3.385-3.842a6.845,6.845,0,0,0-3.622,1.1l.914,1.693a4.5,4.5,0,0,1,2.2-.711,1.108,1.108,0,0,1,1.286,1.1c-3.318.339-4.689,1.3-4.689,3.081A2.44,2.44,0,0,0,63.928,3.647Zm.9-2.031c-.576,0-.9-.237-.9-.728,0-.592.508-1.049,2.184-1.27V.956A1.752,1.752,0,0,1,64.826,1.616Zm7.989,2.031a3.488,3.488,0,0,0,1.3-.22l-.3-1.93a1.044,1.044,0,0,1-.3.034c-.2,0-.474-.169-.474-.711V-8.388H70.428V.719C70.428,2.479,71.021,3.647,72.815,3.647Z" transform="translate(42.784 28.029)" fill="#008454"/><g transform="translate(-220.507 -134.114)"><g transform="translate(231.488 134.114)"><path d="M269.162,136.093a10.637,10.637,0,0,0-1.066-.745,8.021,8.021,0,0,0-4.208-1.234,8.228,8.228,0,0,0-3.216.68,11.7,11.7,0,0,0-3.292,2.171,11.41,11.41,0,0,0-1.248,1.326,1.49,1.49,0,0,0,2.355,1.825h0l.006-.007a9.879,9.879,0,0,1,1.726-1.629,7.893,7.893,0,0,1,1.7-.974,5.218,5.218,0,0,1,1.966-.406,5,5,0,0,1,2.587.758A4.192,4.192,0,0,1,269.162,136.093Z" transform="translate(-255.822 -134.114)" fill="#5262aa"/><path d="M295.12,160.554c-.143-.4-.314-.8-.51-1.21a4.208,4.208,0,0,1-2.315,2.16l.025.064a6.971,6.971,0,0,1,.449,2.374,5.4,5.4,0,0,1-.67,2.609,9.538,9.538,0,0,1-2.691,2.938c-.517.392-1.03.732-1.486,1.025-.229.147-.443.282-.641.41s-.38.248-.556.378a1.491,1.491,0,0,0,1.773,2.4c.1-.077.318-.219.586-.389.473-.3,1.12-.707,1.819-1.217a13.915,13.915,0,0,0,3.184-3.109,9.171,9.171,0,0,0,1.189-2.269,8.306,8.306,0,0,0,.472-2.774A9.95,9.95,0,0,0,295.12,160.554Z" transform="translate(-276.7 -151.482)" fill="#5262aa"/><path d="M291.49,144.808a3.2,3.2,0,1,0,2.639-1.4h0A3.191,3.191,0,0,0,291.49,144.808Z" transform="translate(-280.015 -140.514)" fill="#5262aa"/></g><g transform="translate(236.259 144.618)"><path d="M283.024,207.191a6.178,6.178,0,0,1-1.872.307,5.452,5.452,0,0,1-2.5-.618,9.964,9.964,0,0,1-2.96-2.484c-.4-.476-.76-.948-1.069-1.369-.155-.211-.3-.409-.433-.592s-.263-.351-.4-.514a1.49,1.49,0,1,0-2.272,1.929c.081.1.229.291.408.537.317.433.742,1.026,1.268,1.667a14.378,14.378,0,0,0,3.123,2.911,9.419,9.419,0,0,0,2.2,1.085,8.268,8.268,0,0,0,2.638.432,9.5,9.5,0,0,0,3.583-.738c.214-.087.43-.185.647-.288A4.212,4.212,0,0,1,283.024,207.191Z" transform="translate(-271.165 -190.933)" fill="#3fb192"/><path d="M326.442,172.675a11.488,11.488,0,0,0-2.435-3.362,11.623,11.623,0,0,0-1.48-1.237,1.491,1.491,0,0,0-1.663,2.475h0l.037.026a10.044,10.044,0,0,1,1.875,1.806,7.46,7.46,0,0,1,1.03,1.694,5.01,5.01,0,0,1,.423,1.976,5.262,5.262,0,0,1-.735,2.605c-.082.147-.176.3-.276.451a4.193,4.193,0,0,1,1.6,2.822,11.836,11.836,0,0,0,1.269-1.814,8.265,8.265,0,0,0,1.116-4.064A8.07,8.07,0,0,0,326.442,172.675Z" transform="translate(-304.959 -167.823)" fill="#3fb192"/><path d="M316.565,205.1a3.2,3.2,0,1,0-2.451,5.685,3.171,3.171,0,0,0,3.666-2.874c.008-.1.014-.192.014-.289A3.2,3.2,0,0,0,316.565,205.1Z" transform="translate(-298.889 -193.013)" fill="#3fb192"/></g><g transform="translate(227.733 149.811)"><path d="M247.025,196.365a6.211,6.211,0,0,1-.3-1.876,5.477,5.477,0,0,1,.621-2.505,9.968,9.968,0,0,1,2.484-2.961c.476-.405.947-.76,1.368-1.069.21-.155.408-.3.592-.433s.351-.263.513-.4a1.491,1.491,0,0,0-1.92-2.28c-.095.081-.291.229-.537.408-.433.316-1.025.742-1.665,1.267a14.379,14.379,0,0,0-2.911,3.124,9.463,9.463,0,0,0-1.086,2.2,8.318,8.318,0,0,0-.436,2.643,9.558,9.558,0,0,0,.729,3.592c.086.215.183.432.286.649A4.213,4.213,0,0,1,247.025,196.365Z" transform="translate(-243.745 -184.489)" fill="#f8a500"/><path d="M270.377,239.837a12.316,12.316,0,0,0,4.6-3.915,1.489,1.489,0,0,0-2.466-1.671h0l-.026.037a10.047,10.047,0,0,1-1.806,1.875,7.449,7.449,0,0,1-1.692,1.03,4.981,4.981,0,0,1-1.973.42,5.235,5.235,0,0,1-2.6-.742c-.146-.083-.3-.177-.449-.277a4.179,4.179,0,0,1-2.819,1.6,11.855,11.855,0,0,0,1.808,1.276,8.219,8.219,0,0,0,4.054,1.126A8.02,8.02,0,0,0,270.377,239.837Z" transform="translate(-255.734 -218.294)" fill="#f8a500"/><path d="M255,229.888a3.194,3.194,0,1,0-2.807,1.212c.1.009.191.015.289.015A3.186,3.186,0,0,0,255,229.888Z" transform="translate(-247.566 -212.175)" fill="#f8a500"/></g><g transform="translate(220.507 141.649)"><path d="M261.522,165.609c-.077-.1-.218-.32-.387-.591-.3-.477-.7-1.129-1.209-1.835a13.867,13.867,0,0,0-3.1-3.212,9.116,9.116,0,0,0-2.269-1.2,8.264,8.264,0,0,0-2.778-.476,9.934,9.934,0,0,0-3.364.62c-.193.069-.388.147-.585.228a4.213,4.213,0,0,1,2.034,2.44,6.713,6.713,0,0,1,1.914-.3,5.358,5.358,0,0,1,2.612.675,9.5,9.5,0,0,1,2.929,2.713c.39.521.727,1.038,1.018,1.5.146.231.281.447.407.647s.246.383.376.561a1.49,1.49,0,1,0,2.4-1.765Z" transform="translate(-239.334 -158.295)" fill="#e62c59"/><path d="M226.468,186.138h0l-.007-.006a9.858,9.858,0,0,1-1.611-1.729,7.918,7.918,0,0,1-.963-1.7,5.268,5.268,0,0,1-.4-1.965,5.05,5.05,0,0,1,.8-2.674c.078-.128.164-.259.257-.391a4.2,4.2,0,0,1-1.635-2.727,11.113,11.113,0,0,0-1.163,1.563,8.053,8.053,0,0,0-1.24,4.229,8.3,8.3,0,0,0,.671,3.211,11.755,11.755,0,0,0,2.146,3.293,11.422,11.422,0,0,0,1.311,1.251,1.491,1.491,0,0,0,1.832-2.351Z" transform="translate(-220.507 -169.755)" fill="#e62c59"/><path d="M235.42,162.785a3.194,3.194,0,0,0-4.162,2.965c0,.029,0,.058,0,.088a3.2,3.2,0,1,0,4.167-3.053Z" transform="translate(-227.912 -161.282)" fill="#e62c59"/></g></g><g transform="translate(-76.694 -250.734)"><path d="M121.072,277.691a2.763,2.763,0,0,1,0-2.069l.007-.018a2.756,2.756,0,0,1,5.091,0l.007.018q.026.064.049.13l.11.317h-4.178a2.291,2.291,0,0,0,0,1.177h5.354l.013-.1a3.931,3.931,0,1,0-3.9,3.444,3.919,3.919,0,0,0,2.779-1.151l.082-.082-.832-.833-.082.082a2.749,2.749,0,0,1-1.051.657l-.025.009a2.757,2.757,0,0,1-3.416-1.56l-.007-.019Z" transform="translate(0 -13.83)" fill="#008454" fill-rule="evenodd"/><path d="M401.643,280.326v-1.306a2.763,2.763,0,0,1-1.869.353l-.038-.006a2.754,2.754,0,0,1,.038-5.425,2.77,2.77,0,0,1,.908,0l.035.006a2.754,2.754,0,0,1,2.264,2.71v3.931h1.177v-3.931a3.932,3.932,0,0,0-3.444-3.9,3.979,3.979,0,0,0-.974,0,3.931,3.931,0,1,0,1.9,7.57Z" transform="translate(-230.563 -13.83)" fill="#008454" fill-rule="evenodd"/><path d="M248.381,282.789h1.178v-6.132a2.754,2.754,0,0,1,2.3-2.716,2.768,2.768,0,0,1,.908,0l.036.006a2.754,2.754,0,0,1-.944,5.426l-.038-.006a2.735,2.735,0,0,1-.923-.347v1.306a3.917,3.917,0,0,0,.928.232,3.931,3.931,0,1,0-3.444-3.9v6.132Z" transform="translate(-107.267 -13.83)" fill="#008454" fill-rule="evenodd"/><path d="M382.916,258.892v7.865h1.178v-7.865Zm.589-2.758a.747.747,0,1,0,.747.747.747.747,0,0,0-.747-.747Z" transform="translate(-219.277)" fill="#008454" fill-rule="evenodd"/><path d="M172.441,280.6h1.177v-4.648a2.047,2.047,0,0,1,4.095,0V280.6h1.178v-4.648a2.047,2.047,0,1,1,4.095,0V280.6h1.178v-4.648a3.222,3.222,0,0,0-5.612-2.163.336.336,0,0,1-.5,0,3.222,3.222,0,0,0-5.612,2.163V280.6Z" transform="translate(-43.967 -13.83)" fill="#008454" fill-rule="evenodd"/><path d="M304.573,272.756a3.931,3.931,0,1,0,.974,0,3.978,3.978,0,0,0-.974,0Zm.977,1.191a2.754,2.754,0,0,1-.944,5.426l-.038-.006a2.754,2.754,0,0,1,.038-5.425,2.768,2.768,0,0,1,.908,0l.036.006Z" transform="translate(-151.235 -13.83)" fill="#008454" fill-rule="evenodd"/><path d="M353.876,280.6h1.177v-3.865c0-.026,0-.051,0-.077a2.786,2.786,0,0,1,.037-.454,2.754,2.754,0,0,1,2.716-2.3h.116v-1.177h-.116a3.928,3.928,0,0,0-3.931,3.931c0,.027,0,.054,0,.078V280.6Z" transform="translate(-195.203 -13.83)" fill="#008454" fill-rule="evenodd"/></g></svg>