<svg xmlns="http://www.w3.org/2000/svg" width="170.92" height="89.158" viewBox="0 0 170.92 89.158">
  <g id="Group_39220" data-name="Group 39220" transform="translate(-271.43 -805.365)">
    <path id="Path_10521" data-name="Path 10521" d="M907.574,488.743c0,2.146-38.262,3.886-85.46,3.886s-85.46-1.74-85.46-3.886,38.261-3.885,85.46-3.885S907.574,486.6,907.574,488.743Z" transform="translate(-465.224 401.894)" fill="#eef1f2"/>
    <g id="Group_39219" data-name="Group 39219" transform="translate(271.43 805.865)">
      <g id="Group_39217" data-name="Group 39217" transform="translate(17.421)">
        <g id="Group_39216" data-name="Group 39216" transform="translate(0)">
          <path id="Path_10516" data-name="Path 10516" d="M1246.35,309.076V245.76a6.7,6.7,0,0,0-6.7-6.7h-94.814a6.7,6.7,0,0,0-6.7,6.7v63.316Z" transform="translate(-1122.562 -238.752)" fill="#fff"/>
          <path id="Path_10517" data-name="Path 10517" d="M1245.576,308.605H1137.353a.3.3,0,0,1-.3-.3V244.985a7.016,7.016,0,0,1,7.008-7.007h94.814a7.016,7.016,0,0,1,7.008,7.007V308.3A.3.3,0,0,1,1245.576,308.605ZM1137.656,308h107.616V244.985a6.408,6.408,0,0,0-6.4-6.4h-94.814a6.408,6.408,0,0,0-6.4,6.4Z" transform="translate(-1121.788 -237.978)" fill="#28c76f" stroke="#28c76f" stroke-width="1"/>
          <path id="Path_10518" data-name="Path 10518" d="M1221.938,495.276H1083.192a.3.3,0,0,1-.3-.3v-8.195a.3.3,0,0,1,.3-.3h138.746a.3.3,0,0,1,.3.3v8.195A.3.3,0,0,1,1221.938,495.276Zm-138.442-.608h138.139v-7.586H1083.5Z" transform="translate(-1082.888 -416.454)" fill="#28c76f" stroke="#28c76f" stroke-width="1"/>
          <path id="Path_10519" data-name="Path 10519" d="M1229.88,519.608H1101.388a.3.3,0,0,1-.3-.3v-3.445a.3.3,0,0,1,.3-.3H1229.88a.3.3,0,0,1,.3.3V519.3A.3.3,0,0,1,1229.88,519.608ZM1101.692,519h127.884v-2.838H1101.692Z" transform="translate(-1095.956 -437.341)" fill="#28c76f" stroke="#28c76f" stroke-width="1"/>
          <rect id="Rectangle_2709" data-name="Rectangle 2709" width="96.65" height="63.968" transform="translate(21.353 6.356)" fill="#fff"/>
          <path id="Path_10520" data-name="Path 10520" d="M1254.54,324.032h-96.65a.3.3,0,0,1-.3-.3V259.761a.3.3,0,0,1,.3-.3h96.65a.3.3,0,0,1,.3.3v63.968A.3.3,0,0,1,1254.54,324.032Zm-96.346-.608h96.042v-63.36h-96.042Z" transform="translate(-1136.538 -253.405)" fill="#28c76f" stroke="#28c76f" stroke-width="1"/>
        </g>
        <path id="Path_4663" data-name="Path 4663" d="M3.068-39.577a.045.045,0,0,0,.016.031.045.045,0,0,1,.016.031l.235.659v-.016a1.492,1.492,0,0,0,.094.282q.063.141.11.282l-.031-.047q.173.235.392.486a3.342,3.342,0,0,0,.486.455l.863.643a5.123,5.123,0,0,0,.69.361q.424.188.973.408l3.514,1.224a3.26,3.26,0,0,1,1.059.933,4.841,4.841,0,0,1,.635,1.169l.11.643q0,.408-.016.675a1.577,1.577,0,0,1-.078.439v-.016l-.329,1.161A8.178,8.178,0,0,1,10.77-27.5a19.536,19.536,0,0,1-1.647,2.165,12.849,12.849,0,0,1-1.7,1.624,7.517,7.517,0,0,1-1.694,1.02,4.212,4.212,0,0,1-1.639.353l-.471-.016A3.218,3.218,0,0,1,1.734-23.81a4.116,4.116,0,0,1-.957-2.275V-39.577h-2.51L-4.008-41.93H12.779l2.369,2.353ZM7.633-32.3q-.345-.141-.588-.251a1.26,1.26,0,0,1-.416-.3q-.753-.424-1.388-.863a7.305,7.305,0,0,1-1-.8,7.54,7.54,0,0,1-.573-.612,7.541,7.541,0,0,1-.588-.8v9.789a1.09,1.09,0,0,0,.118.557.671.671,0,0,0,.447.275,1.217,1.217,0,0,0,.431-.086,4.4,4.4,0,0,0,.541-.259H4.6a10.666,10.666,0,0,0,1.537-1.067L7.68-28.454A4.632,4.632,0,0,0,8.056-29a9.778,9.778,0,0,0,.533-1v.031A4.2,4.2,0,0,0,8.9-31.341v-.377l-.047-.188Zm15.814-7.279h-4.5v19.955L16.7-21.975V-36.141a2.58,2.58,0,0,0-.094-.784,2.614,2.614,0,0,0-.392-1.067,4.631,4.631,0,0,0-.5-.573,5,5,0,0,0-.675-.541,2.839,2.839,0,0,0-1.569-.5l-.565.031L10.5-41.93h1.3l.737-.047h.58a4.92,4.92,0,0,1,1.788.345q.282.141.494.275a2.1,2.1,0,0,1,.369.29l-.031-.016a5.064,5.064,0,0,1,1.271,1.851l.11.235-.282-2.087L16.7-43.358V-44.2a4.328,4.328,0,0,0-.055-.58q-.055-.377-.149-.847l1.318,1.051.173,1.051.11.549.173.392.408.518.141.141h2.29Zm11.766,0v.91a.174.174,0,0,0,.055-.008.174.174,0,0,1,.055-.008,4.724,4.724,0,0,1,2.016.51,9.71,9.71,0,0,1,2.11,1.388,8.352,8.352,0,0,1,2.055,2.7,7.662,7.662,0,0,1,.722,3.326,3.976,3.976,0,0,1-.267,1.475,3.71,3.71,0,0,1-.714,1.161,3.278,3.278,0,0,1-1.035.761,2.914,2.914,0,0,1-1.247.275A2.856,2.856,0,0,1,36.781-28.2l-.424-.722-.094-.69.094-.643a2.264,2.264,0,0,1,.2-.494,2.584,2.584,0,0,1,.275-.4l.643-.6,1.177-.188a2.425,2.425,0,0,1,1.663.643l.047.063q-.031-.282-.086-.588a4.594,4.594,0,0,0-.133-.557,3.731,3.731,0,0,0-1.145-1.71,5.541,5.541,0,0,0-.659-.565,7.4,7.4,0,0,0-.737-.471,4.96,4.96,0,0,0-1.051-.384,4.769,4.769,0,0,0-1.13-.133l-.251.016v15.343l-1.1-1.145-.58-1.694a3.758,3.758,0,0,0-.533-1.035q-.408-.6-1.051-1.365a7.144,7.144,0,0,0-2.322-2.2l-.973-.565.016.016q-.314-.126-.62-.267t-.62-.267a8.188,8.188,0,0,0-2.322-.518L22.27-32.768q.8-.6,1.726-1.247T26-35.341q.973-.6,1.812-1.059t1.561-.777q.659-.3,1.545-.635t2.016-.714v-1.051H21.658l-2.4-2.353H42.68l2.29,2.353Zm-2.338,4.095a9.9,9.9,0,0,0-1.059.377,9.638,9.638,0,0,0-.9.439l-1.977,1.114q-.314.22-.635.431t-.62.431q-.141.094-.235.165t-.173.133q-.078.063-.173.133t-.235.18q.471.2.879.392a4.159,4.159,0,0,1,.69.392H28.42l.3.188.3.2.408.282.486.377q.408.329.879.761a6.932,6.932,0,0,1,.879.981q.267.361.58.792t.628.886Zm27.2-10.433a5.743,5.743,0,0,0-1.067-.745,7.7,7.7,0,0,0-1.412-.588,13.853,13.853,0,0,0-2.385-.659h.016l-1.506-.11a8.771,8.771,0,0,0-1.867.22,3.882,3.882,0,0,0-.847.22,3.9,3.9,0,0,0-.816.439,4.279,4.279,0,0,0-.831.58L48.5-45.523l.016-.016-.863,1.318v-.016a2.978,2.978,0,0,0-.243.51q-.086.243-.133.416.157.377.314.682t.329.7h3.326l1.945,2.353H48.61v19.594l-2.369-2.055.031-17.539h-2.62L41.315-41.93h4.863L44.861-43.3v.016a1.4,1.4,0,0,1-.314-1.02,2.657,2.657,0,0,1,.157-1v.016l.267-.706,1.02-1.585a8.032,8.032,0,0,1,.612-.831,13.339,13.339,0,0,1,2.792-1.663,6.214,6.214,0,0,1,2.573-.471,11.215,11.215,0,0,1,2.188.22,13.665,13.665,0,0,1,2.455.769l1.647.722a8.077,8.077,0,0,1,.8.377,6.245,6.245,0,0,1,.737.471L59.764-48a18.648,18.648,0,0,1,2.73,2.212l.69.753.69,1.945Zm5.852,6.338v19.359L64.816-21.3,63.09-24.485a4.375,4.375,0,0,0-.565-.879,11.9,11.9,0,0,0-.879-.973q-.439-.408-.894-.777a10.757,10.757,0,0,0-.941-.682h.016L58.1-28.689l.016.016a8.333,8.333,0,0,0-1.483-.486,7.253,7.253,0,0,0-1.608-.173l-2.651-3.64,2.4-1.616,1.208-.722,1.208-.643,3.2-1.553,3.232-1.224v-.847H51.136L48.83-41.93H67.263l2.4,2.353ZM60.282-23.2a1.875,1.875,0,0,1-1.694,1.1,2.069,2.069,0,0,1-.792-.165,2.587,2.587,0,0,1-.73-.455,2.248,2.248,0,0,1-.533-.706,2.091,2.091,0,0,1-.2-.933,1.8,1.8,0,0,1,.086-.573,2.327,2.327,0,0,1,.259-.526,1.911,1.911,0,0,1,1.694-.957,2.012,2.012,0,0,1,.784.165,2.6,2.6,0,0,1,.714.447,2.193,2.193,0,0,1,.518.675,1.835,1.835,0,0,1,.2.831,2.215,2.215,0,0,1-.024.377,1.5,1.5,0,0,1-.071.251Zm2.526-4.251q.361.439.58.769l.235.424V-35.5q-.267.078-.526.165t-.526.149h.016l-.831.361q-.5.251-1,.494t-.988.494h.016l-1.647,1,.016-.016-1.13.831.643.267.455.212q.188.086.337.165a1.989,1.989,0,0,1,.282.18l.322.243,1.02.753,1.145,1.02Z" transform="translate(36.482 69.353)" fill="#008454"/>
      </g>
      <g id="Group_39218" data-name="Group 39218" transform="translate(0 4.581)">
        <g id="Group_12776" data-name="Group 12776" transform="matrix(0.829, 0.559, -0.559, 0.829, 40.89, 0)">
          <g id="Group_12774" data-name="Group 12774" transform="translate(0 0)">
            <circle id="Ellipse_213" data-name="Ellipse 213" cx="18.611" cy="18.611" r="18.611" transform="translate(5.584 3.241)" fill="#28c76f"/>
            <g id="Group_12773" data-name="Group 12773" transform="translate(0 0)">
              <g id="Group_12768" data-name="Group 12768" transform="translate(11.159 38.987)">
                <rect id="Rectangle_1866" data-name="Rectangle 1866" width="6.142" height="8.306" transform="translate(3.134 0) rotate(22.172)" fill="#eaefee"/>
                <rect id="Rectangle_1867" data-name="Rectangle 1867" width="2.212" height="8.306" transform="translate(3.134 0) rotate(22.172)" fill="#adadba" opacity="0.5" style="mix-blend-mode: multiply;isolation: isolate"/>
              </g>
              <g id="Group_12769" data-name="Group 12769" transform="translate(0 43.701)">
                <rect id="Rectangle_1868" data-name="Rectangle 1868" width="9.578" height="27.869" rx="4.789" transform="matrix(0.926, 0.377, -0.377, 0.926, 10.518, 0)" fill="#28c76f"/>
                <path id="Rectangle_1869" data-name="Rectangle 1869" d="M3.45,0h0a0,0,0,0,1,0,0V27.869a0,0,0,0,1,0,0h0A3.45,3.45,0,0,1,0,24.419V3.45A3.45,3.45,0,0,1,3.45,0Z" transform="translate(10.518 0) rotate(22.173)" fill="#adadba" opacity="0.5" style="mix-blend-mode: multiply;isolation: isolate"/>
              </g>
              <g id="Group_12772" data-name="Group 12772" transform="translate(2.908 0)">
                <path id="Path_4874" data-name="Path 4874" d="M29.634,1.6a21.511,21.511,0,1,0,11.8,28.038A21.511,21.511,0,0,0,29.634,1.6ZM14.819,37.952a17.748,17.748,0,1,1,23.134-9.738A17.748,17.748,0,0,1,14.819,37.952Z" transform="translate(0)" fill="#28c76f"/>
                <path id="Path_4875" data-name="Path 4875" d="M28.107,1.514A20.4,20.4,0,1,0,39.3,28.107,20.4,20.4,0,0,0,28.107,1.514ZM14.055,36A16.834,16.834,0,1,1,36,26.76,16.833,16.833,0,0,1,14.055,36Z" transform="translate(1.109 1.109)" fill="#fff"/>
              </g>
            </g>
            <circle id="Ellipse_214" data-name="Ellipse 214" cx="18.611" cy="18.611" r="18.611" transform="translate(5.913 2.849)" fill="#eaefee"/>
          </g>
        </g>
        <path id="Path_4878" data-name="Path 4878" d="M4.74-25.548a.056.056,0,0,0,.019.039.056.056,0,0,1,.019.039l.291.815v-.019a1.844,1.844,0,0,0,.116.349q.078.175.136.349l-.039-.058q.213.291.485.6a4.132,4.132,0,0,0,.6.562l1.067.8a6.334,6.334,0,0,0,.853.446q.524.233,1.2.5l4.345,1.513a4.03,4.03,0,0,1,1.309,1.154,5.985,5.985,0,0,1,.786,1.445l.136.8q0,.5-.019.834a1.95,1.95,0,0,1-.1.543v-.019l-.407,1.435a10.111,10.111,0,0,1-1.28,2.812,24.154,24.154,0,0,1-2.037,2.677,15.887,15.887,0,0,1-2.1,2.008A9.294,9.294,0,0,1,8.028-4.667,5.208,5.208,0,0,1,6-4.231L5.419-4.25a3.979,3.979,0,0,1-2.328-1.8A5.089,5.089,0,0,1,1.908-8.867V-25.548H-1.2l-2.812-2.909H16.746l2.929,2.909Zm5.644,9q-.427-.175-.727-.31a1.558,1.558,0,0,1-.514-.369q-.931-.524-1.717-1.067a9.033,9.033,0,0,1-1.232-.989,9.324,9.324,0,0,1-.708-.756,9.323,9.323,0,0,1-.727-.989v12.1a1.347,1.347,0,0,0,.145.689.829.829,0,0,0,.553.339A1.505,1.505,0,0,0,5.991-8a5.435,5.435,0,0,0,.669-.32H6.641a13.186,13.186,0,0,0,1.9-1.319l1.9-2.153a5.728,5.728,0,0,0,.466-.669,12.089,12.089,0,0,0,.659-1.232v.039a5.187,5.187,0,0,0,.388-1.707v-.466l-.058-.233ZM21.479-22.27a3.232,3.232,0,0,0-.485-1.319,5.726,5.726,0,0,0-.621-.708,6.177,6.177,0,0,0-.834-.669,3.51,3.51,0,0,0-1.94-.621l-.7.039-2.968-2.909h1.61l.912-.058h.718a6.083,6.083,0,0,1,2.211.427q.349.175.611.339a2.6,2.6,0,0,1,.456.359l-.039-.019C20.942-27,21.557-22.037,21.479-22.27Z" transform="translate(43.576 49.963)" fill="#505358"/>
      </g>
    </g>
  </g>
</svg>
