<svg xmlns="http://www.w3.org/2000/svg" xmlns:xlink="http://www.w3.org/1999/xlink" width="145.778" height="88.078" viewBox="0 0 145.778 88.078">
  <defs>
    <clipPath id="clip-path">
      <rect id="Rectangle_1904" data-name="Rectangle 1904" width="145.778" height="88.078" fill="#fff" opacity="0"/>
    </clipPath>
  </defs>
  <g id="Mask_Group_20" data-name="Mask Group 20" clip-path="url(#clip-path)">
    <line id="Line_67" data-name="Line 67" y1="3.652" x2="7.288" transform="translate(43.69 38.632) rotate(19)" fill="none" stroke="#000" stroke-linecap="round" stroke-linejoin="round" stroke-width="4.147" opacity="0.5" style="mix-blend-mode: multiply;isolation: isolate"/>
    <g id="Group_39212" data-name="Group 39212" transform="translate(24.268 27.388) rotate(14)" opacity="0.05">
      <path id="Path_4925" data-name="Path 4925" d="M26.22,12.666l-.344-2.387a1.175,1.175,0,0,0-1.331-1l-.5-3.474a1.208,1.208,0,0,0-1.368-1.027l-.162.024-.449-3.117A1.959,1.959,0,0,0,19.848.021l-9.8,1.427a1.573,1.573,0,0,0-.521.172L.644,6.4,0,8.528l14.751,11.2a1.676,1.676,0,0,1,1.22-.845L23.1,17.843a2.318,2.318,0,0,0,1.959-2.585l-.1-.815A.4.4,0,0,1,25.276,14,1.18,1.18,0,0,0,26.22,12.666Z" transform="translate(16.978 0)"/>
      <path id="Path_4947" data-name="Path 4947" d="M26.813,4.222A2.7,2.7,0,0,0,26.131.479a2.669,2.669,0,0,0-3.55.451l-6.974,8.1a1.7,1.7,0,0,1-2.1.39L10.067,7.566A7.258,7.258,0,0,1,7.65,5.46L6.5,3.886,3.621,5.434a1.592,1.592,0,0,0-.806,1.092L.027,20.478a1.406,1.406,0,0,0,0,.527l1.827,10L.839,37.718l11.432-1.5c1.635-2.312,2.185-2.856,2.914-4.005a26.987,26.987,0,0,0,3.37-7.5L20.443,17.6a1.681,1.681,0,0,1,.162-.39l.7-4.951Z" transform="translate(11.125 2.516)"/>
      <path id="Path_4948" data-name="Path 4948" d="M8.4.045,26,3.154a1.793,1.793,0,0,1,1.423,2.072L21.091,41.774,0,38.08,6.389,1.206A1.559,1.559,0,0,1,8.4.045Z" transform="translate(0 41.807)"/>
    </g>
    <path id="Path_4949" data-name="Path 4949" d="M15.754,8.066l.8-4.562a.85.85,0,0,0-.686-.986L1.783.013A.846.846,0,0,0,.8.7L0,5.264Z" transform="translate(24.095 65.11) rotate(14)" opacity="0.05"/>
    <path id="Path_10507" data-name="Path 10507" d="M.015,0H1.269L1.254,16H0Z" transform="translate(22.812 70.237) rotate(-66)" opacity="0.05"/>
    <path id="Path_4950" data-name="Path 4950" d="M26.22,12.666l-.344-2.387a1.175,1.175,0,0,0-1.331-1l-.5-3.474a1.208,1.208,0,0,0-1.368-1.027l-.162.024-.449-3.117A1.959,1.959,0,0,0,19.848.021l-9.8,1.427a1.574,1.574,0,0,0-.521.172L.644,6.4,0,8.528l14.751,11.2a1.676,1.676,0,0,1,1.22-.845L23.1,17.843a2.318,2.318,0,0,0,1.959-2.585l-.1-.815A.4.4,0,0,1,25.276,14,1.18,1.18,0,0,0,26.22,12.666Z" transform="matrix(0.966, 0.259, -0.259, 0.966, 38.211, 29.404)" fill="#f4c4a4"/>
    <line id="Line_70" data-name="Line 70" y1="3.652" x2="7.288" transform="matrix(0.966, 0.259, -0.259, 0.966, 42.364, 36.422)" fill="none" stroke="#f4c4a4" stroke-linecap="round" stroke-linejoin="round" stroke-width="4.147" opacity="0.5" style="mix-blend-mode: multiply;isolation: isolate"/>
    <g id="Group_39211" data-name="Group 39211" transform="translate(32.386 5.391)">
      <path id="Path_10514" data-name="Path 10514" d="M845.6,251.747V257a8.638,8.638,0,0,0,8.638,8.638h56.472" transform="translate(-845.599 -187.62)" fill="none" stroke="#28c76f" stroke-linecap="round" stroke-linejoin="round" stroke-width="2"/>
      <path id="Path_10515" data-name="Path 10515" d="M861.883,272.081V207.954H918.45v70.279a7.742,7.742,0,0,1-7.742,7.742h0a7.742,7.742,0,0,1-7.742-7.742v-6.152H845.6" transform="translate(-845.599 -207.954)" fill="#fafbfc" stroke="#28c76f" stroke-linecap="round" stroke-linejoin="round" stroke-width="2"/>
      <g id="Group_39210" data-name="Group 39210" transform="translate(24.166 6.677)">
        <line id="Line_102" data-name="Line 102" x2="18.288" transform="translate(23.03 11.595)" fill="none" stroke="#28c76f" stroke-linecap="round" stroke-linejoin="round" stroke-width="2"/>
        <line id="Line_103" data-name="Line 103" x2="42.843" transform="translate(0 44.498)" fill="none" stroke="#28c76f" stroke-linecap="round" stroke-linejoin="round" stroke-width="2"/>
        <line id="Line_108" data-name="Line 108" x2="42.843" transform="translate(0 50.224)" fill="none" stroke="#28c76f" stroke-linecap="round" stroke-linejoin="round" stroke-width="2"/>
        <line id="Line_104" data-name="Line 104" x2="42.843" transform="translate(0 38.703)" fill="none" stroke="#28c76f" stroke-linecap="round" stroke-linejoin="round" stroke-width="2"/>
        <line id="Line_105" data-name="Line 105" x2="20.84" transform="translate(0 29.349)" fill="none" stroke="#28c76f" stroke-linecap="round" stroke-linejoin="round" stroke-width="2"/>
        <line id="Line_106" data-name="Line 106" x2="18.373" transform="translate(23.199)" fill="none" stroke="#28c76f" stroke-linecap="round" stroke-linejoin="round" stroke-width="2"/>
        <line id="Line_107" data-name="Line 107" x2="18.373" transform="translate(23.199 5.93)" fill="none" stroke="#28c76f" stroke-linecap="round" stroke-linejoin="round" stroke-width="2"/>
      </g>
      <g id="Group_39214" data-name="Group 39214" transform="translate(22.706 5.822)">
        <rect id="Rectangle_1863" data-name="Rectangle 1863" width="21.069" height="27.019" fill="#eaefee"/>
        <g id="Group_12756" data-name="Group 12756" transform="translate(1.248 1.943)">
          <rect id="Rectangle_1864" data-name="Rectangle 1864" width="4.413" height="4.733" transform="translate(7.109 11.251)" fill="#efc3a1"/>
          <path id="Path_4855" data-name="Path 4855" d="M743.953,205.082c.222-2.409.051-4.235-1.494-4.487.064-.933-1.253-1.917-4.234-1.409-3.2.545-4.259,2.72-3.419,5.9a.865.865,0,0,0-.751,1.291,2.619,2.619,0,0,0,.793,1.07.856.856,0,0,0,.52.141,13.5,13.5,0,0,0,1.317,2.707,4.029,4.029,0,0,0,5.389,0,13.512,13.512,0,0,0,1.317-2.707.855.855,0,0,0,.52-.141,2.616,2.616,0,0,0,.793-1.07A.865.865,0,0,0,743.953,205.082Z" transform="translate(-730.07 -198.152)" fill="#f7d1af"/>
          <path id="Path_4856" data-name="Path 4856" d="M740.75,216.5l-2.349,2.878-2.35-2.878c-1.153.417-3.155,3.784-3.771,4.431-.649.683-1.382,6.532-1.382,6.532h15s-.733-5.848-1.382-6.532C743.906,220.284,741.9,216.917,740.75,216.5Z" transform="translate(-729.085 -203.692)" fill="#fff"/>
          <path id="Path_4857" data-name="Path 4857" d="M743.238,199.89c-.026-1.006-1.171-2.883-4.3-1.856-2.673.876-4.568,1.986-4.426,4.047a13.279,13.279,0,0,0,.3,2.595l.531.911s-.035-3.8,1.7-3.993,5.241.049,5.949-.471c.089.909.522,1.556.649,2.317.138.826.255,1.984.255,1.984a1.492,1.492,0,0,0,.5-.723C744.549,204.223,745.815,200.32,743.238,199.89Z" transform="translate(-730.242 -197.736)" fill="#716f53"/>
          <path id="Path_4858" data-name="Path 4858" d="M741.476,221.575l-.525-.859-.524.859.29.394-.452,5.648.686.876.686-.876-.452-5.648Z" transform="translate(-731.636 -205.03)" fill="#8db6d1"/>
          <g id="Group_12754" data-name="Group 12754" transform="translate(0 13.085)">
            <path id="Path_4859" data-name="Path 4859" d="M729.859,218.665c-.766.683-1.632,8.926-1.632,8.926h8.859v-1.769l-2.637-8.917C733.14,217.805,730.586,218.018,729.859,218.665Z" transform="translate(-728.227 -216.905)" fill="#5f6062"/>
            <path id="Path_4860" data-name="Path 4860" d="M736.387,220.932h-.872l-.557-2.435a9.987,9.987,0,0,0,1.146,4.666c.947,2.228,2.131,4.625,2.131,4.625l-2.4-6.273Z" transform="translate(-730.384 -217.41)" fill="#565759"/>
          </g>
          <g id="Group_12755" data-name="Group 12755" transform="translate(9.773 13.085)">
            <path id="Path_4861" data-name="Path 4861" d="M743.913,216.905l-2.637,8.917v1.769h8.859s-.866-8.242-1.632-8.926C747.777,218.018,745.223,217.805,743.913,216.905Z" transform="translate(-741.276 -216.905)" fill="#5f6062"/>
            <path id="Path_4862" data-name="Path 4862" d="M745.482,220.932h-.872l.558.584-2.406,6.273s1.183-2.4,2.13-4.625a9.988,9.988,0,0,0,1.146-4.666Z" transform="translate(-741.753 -217.41)" fill="#565759"/>
          </g>
        </g>
      </g>
    </g>
    <g id="Icon" transform="translate(105.731 46.409)" fill="none" stroke-linecap="round" stroke-linejoin="round">
      <path d="M28.9,30H5.117a3.372,3.372,0,0,1-3.4-3.335V20H13.6a1.642,1.642,0,0,0,.5,1.177,1.706,1.706,0,0,0,1.2.49h3.4A1.685,1.685,0,0,0,20.4,20H32.3v6.666A3.372,3.372,0,0,1,28.9,30ZM13.6,18.334H3.4A3.371,3.371,0,0,1,0,15V10A3.371,3.371,0,0,1,3.4,6.667h6.8a6.8,6.8,0,0,1,13.6,0h6.8A3.371,3.371,0,0,1,34,10v5a3.371,3.371,0,0,1-3.4,3.333H20.4V16.666A1.685,1.685,0,0,0,18.7,15H15.3a1.685,1.685,0,0,0-1.7,1.666v1.667Zm0-11.667h6.8a3.287,3.287,0,0,0-1-2.356A3.408,3.408,0,0,0,17,3.333a3.371,3.371,0,0,0-3.4,3.334Z" stroke="none"/>
      <path d="M 28.90014839172363 30 C 30.77483940124512 30 32.30010986328125 28.50391006469727 32.30010986328125 26.66527938842773 L 32.30010986328125 19.99926948547363 L 20.39892959594727 19.99926948547363 C 20.39892959594727 20.91869926452637 19.63628959655762 21.66576957702637 18.69878959655762 21.66576957702637 L 15.29906940460205 21.66576957702637 C 14.84508895874023 21.66576957702637 14.41802883148193 21.4912109375 14.09673881530762 21.17577934265137 C 13.77636909484863 20.86133003234863 13.59997940063477 20.443359375 13.5991792678833 19.99926948547363 L 1.716548919677734 19.99926948547363 L 1.716548919677734 26.66527938842773 C 1.716548919677734 28.50391006469727 3.241638898849487 30 5.116579055786133 30 L 28.90014839172363 30 M 13.5991792678833 18.33398056030273 L 13.5991792678833 18.33300971984863 L 13.5991792678833 16.66601943969727 C 13.5991792678833 15.7470703125 14.36175918579102 15 15.29906940460205 15 L 18.69878959655762 15 C 19.63628959655762 15 20.39892959594727 15.7470703125 20.39892959594727 16.66601943969727 L 20.39892959594727 18.33300971984863 L 30.59997940063477 18.33300971984863 C 32.47472763061523 18.33300971984863 33.99993896484375 16.83691024780273 33.99993896484375 15 L 33.99993896484375 9.999759674072266 C 33.99993896484375 8.162349700927734 32.47472763061523 6.666989803314209 30.59997940063477 6.666989803314209 L 23.80035972595215 6.666989803314209 C 23.80035972595215 2.990240097045898 20.7493896484375 -1.77635683940025e-15 16.99908828735352 -1.77635683940025e-15 C 13.25048923492432 -1.77635683940025e-15 10.19927883148193 2.991460084915161 10.19927883148193 6.666989803314209 L 3.399718999862671 6.666989803314209 C 1.525088906288147 6.666989803314209 -6.103515625e-05 8.162349700927734 -6.103515625e-05 9.999759674072266 L -6.103515625e-05 15 C -6.103515625e-05 16.83691024780273 1.525088906288147 18.33300971984863 3.399718999862671 18.33300971984863 L 13.59753894805908 18.33398056030273 L 13.5991792678833 18.33398056030273 M 16.99908828735352 3.333009958267212 C 17.90594863891602 3.333009958267212 18.75902938842773 3.679929971694946 19.40179824829102 4.310790061950684 C 20.04449844360352 4.941649913787842 20.39788818359375 5.779300212860107 20.39892959594727 6.666989803314209 L 13.5991792678833 6.666989803314209 C 13.5991792678833 4.828129768371582 15.1242094039917 3.333009958267212 16.99908828735352 3.333009958267212 M 28.90014839172363 31.5 L 5.116579055786133 31.5 C 2.414689064025879 31.5 0.216548964381218 29.33115005493164 0.216548964381218 26.66527938842773 L 0.216548964381218 19.99926948547363 C 0.216548964381218 19.60432052612305 0.3691494166851044 19.24506378173828 0.6186540126800537 18.9771900177002 C -0.6605140566825867 18.1042594909668 -1.50006103515625 16.64703941345215 -1.50006103515625 15 L -1.50006103515625 9.999759674072266 C -1.50006103515625 7.334959983825684 0.6979689598083496 5.166989803314209 3.399718999862671 5.166989803314209 L 8.839582443237305 5.166989803314209 C 9.557467460632324 1.377737402915955 12.94322872161865 -1.5 16.99908828735352 -1.5 C 21.05566787719727 -1.5 24.44202041625977 1.377737402915955 25.16003036499023 5.166989803314209 L 30.59997940063477 5.166989803314209 C 33.30183029174805 5.166989803314209 35.49993896484375 7.334959983825684 35.49993896484375 9.999759674072266 L 35.49993896484375 15 C 35.49993896484375 16.64264678955078 34.66489791870117 18.0964412689209 33.39140319824219 18.97014808654785 C 33.64477920532227 19.23874282836914 33.80010986328125 19.60088157653809 33.80010986328125 19.99926948547363 L 33.80010986328125 26.66527938842773 C 33.80010986328125 29.33115005493164 31.60199928283691 31.5 28.90014839172363 31.5 Z M 14.84682559967041 19.16629219055176 C 15.00576782226563 19.40386581420898 15.09862613677979 19.6893367767334 15.0991792678833 19.9965705871582 C 15.09922885894775 20.02516937255859 15.10475921630859 20.0633602142334 15.14745903015137 20.10527992248535 C 15.18896865844727 20.14602088928223 15.23851871490479 20.16576957702637 15.29906940460205 20.16576957702637 L 18.69878959655762 20.16576957702637 C 18.80727958679199 20.16576957702637 18.89892959594727 20.08951950073242 18.89892959594727 19.99926948547363 C 18.89892959594727 19.69098472595215 18.99190711975098 19.40445518493652 19.15138244628906 19.16613960266113 C 18.99190711975098 18.92782402038574 18.89892959594727 18.64129447937012 18.89892959594727 18.33300971984863 L 18.89892959594727 16.66601943969727 C 18.89892959594727 16.58584022521973 18.81850814819336 16.5 18.69878959655762 16.5 L 15.29906940460205 16.5 C 15.17949867248535 16.5 15.0991792678833 16.58584022521973 15.0991792678833 16.66601943969727 L 15.0991792678833 18.33300971984863 C 15.0991792678833 18.64119338989258 15.00620555877686 18.92785453796387 14.84682559967041 19.16629219055176 Z M 15.90705394744873 5.166989803314209 L 18.09045028686523 5.166989803314209 C 17.77298545837402 4.949918270111084 17.39546585083008 4.833010196685791 16.99908828735352 4.833010196685791 C 16.59293556213379 4.833010196685791 16.21620941162109 4.956623554229736 15.90705394744873 5.166989803314209 Z" stroke="none" fill="#28c76f"/>
    </g>
    <g id="Group_12811" data-name="Group 12811" transform="translate(78.343 41.571) rotate(-17)">
      <g id="Group_12807" data-name="Group 12807" transform="translate(1.652 0.949)" opacity="0.05" style="mix-blend-mode: multiply;isolation: isolate">
        <path id="Path_4975" data-name="Path 4975" d="M2.9,7.511l2.809,2.948c-.049-.193,6.219,3.7,6.219,3.7L14.8,9.735,13,5.4,1.924.051,0,0C-.026.312,2.9,7.511,2.9,7.511Z" transform="translate(8.633 6.683)"/>
        <path id="Path_4976" data-name="Path 4976" d="M.665,7.344.008,2.728a.77.77,0,0,1,.65-.872L13.488.008a.767.767,0,0,1,.868.653l.658,4.616Z" transform="translate(12.79 35.447)"/>
        <path id="Path_10509" data-name="Path 10509" d="M0,.011,14.5,0V1.6L0,1.614Z" transform="translate(13.227 41.193) rotate(-8.152)"/>
        <path id="Path_4977" data-name="Path 4977" d="M17.4.028,1.366,2.318A1.624,1.624,0,0,0,.016,4.151l4.9,35.017,19.206-2.715L19.181,1.14A1.413,1.413,0,0,0,17.4.028Z" transform="translate(10.879 40.402)"/>
        <path id="Path_4978" data-name="Path 4978" d="M16.588,3.913a.411.411,0,0,0-.28-.237L1.371.032A1.112,1.112,0,0,0,.016,1.3L.391,3.519a.79.79,0,0,1,.006.2l1.79.047,10.3,4.971,1.67,4.036-1.663,2.564-1,1.548.284.262a.311.311,0,0,1-.034.484l-2.094,1.45a.306.306,0,0,1-.219.051L9.1,19.085c.669,3.936,3.834,7.406,7.586,9.111a1.2,1.2,0,0,1,.141-.325l3.626-5.649L21.6,20.443a2.431,2.431,0,0,0,.361-1.65l-.508-3.634Z" transform="translate(8.305 3.451)"/>
        <path id="Path_4979" data-name="Path 4979" d="M25.672,20.422,2.55,0,0,2.866l23.1,20.6a1.216,1.216,0,0,0,1.761-.15l.96-1.2A1.232,1.232,0,0,0,25.672,20.422Z" transform="translate(1.856 1.026)"/>
        <path id="Path_4980" data-name="Path 4980" d="M1.856,3.892,0,0,4.406,1.026Z"/>
        <path id="Path_4981" data-name="Path 4981" d="M0,0,.719,1.508,1.644.383Z"/>
        <path id="Path_4982" data-name="Path 4982" d="M10.977,14.693l-1.466-.212a.308.308,0,0,1-.235-.174L8.518,12.69l-.02-.055-.56-2.187L6.63,5.726,5.123,1.77A2.739,2.739,0,0,0,2.182.027L1.513.122A2.648,2.648,0,0,0,.222,3.575L.889,5.1l.872,4.361.252,7.285a1.96,1.96,0,0,0,.052.386l1.1,4.626a2.342,2.342,0,0,0,.488.968L6.09,25.61a1.182,1.182,0,0,1,.254.517l.7,3.294L19.008,27.73l-.481-3.441a1.192,1.192,0,0,1,.036-.486C14.81,22.1,11.646,18.629,10.977,14.693Z" transform="translate(6.43 7.843)"/>
      </g>
      <g id="Group_12810" data-name="Group 12810">
        <g id="Group_12809" data-name="Group 12809">
          <path id="Path_4983" data-name="Path 4983" d="M2.9,7.511l2.809,2.948c-.049-.193,6.219,3.7,6.219,3.7L14.8,9.735,13,5.4,1.924.051,0,0C-.026.312,2.9,7.511,2.9,7.511Z" transform="translate(8.633 6.683)" fill="#f4c4a4"/>
          <path id="Path_4984" data-name="Path 4984" d="M.665,7.344.008,2.728a.77.77,0,0,1,.65-.872L13.488.008a.767.767,0,0,1,.868.653l.658,4.616Z" transform="translate(12.79 35.447)" fill="#e0e0e0"/>
          <path id="Path_10510" data-name="Path 10510" d="M0,.011,14.5,0V1.6L0,1.614Z" transform="translate(13.227 41.193) rotate(-8.152)" fill="#bdbdbd"/>
          <path id="Path_4985" data-name="Path 4985" d="M17.4.028,1.366,2.318A1.624,1.624,0,0,0,.016,4.151l4.9,35.017,19.206-2.715L19.181,1.14A1.413,1.413,0,0,0,17.4.028Z" transform="translate(10.879 40.402)" fill="#727477"/>
          <path id="Path_4986" data-name="Path 4986" d="M16.588,3.913a.411.411,0,0,0-.28-.237L1.371.032A1.112,1.112,0,0,0,.016,1.3L.391,3.519a.8.8,0,0,1,.006.2l1.79.047,10.3,4.971,1.67,4.036-1.663,2.564-1,1.548.284.262a.311.311,0,0,1-.034.484l-2.094,1.45a.306.306,0,0,1-.219.051L9.1,19.085c.669,3.936,3.834,7.406,7.586,9.111a1.194,1.194,0,0,1,.141-.325l3.626-5.649L21.6,20.443a2.432,2.432,0,0,0,.361-1.65l-.508-3.634Z" transform="translate(8.305 3.451)" fill="#ffd7b7"/>
          <path id="Path_4987" data-name="Path 4987" d="M25.672,20.422,2.551,0,0,2.866l23.1,20.6a1.216,1.216,0,0,0,1.761-.15l.96-1.2A1.232,1.232,0,0,0,25.672,20.422Z" transform="translate(1.856 1.026)" fill="#4d7991"/>
          <path id="Path_4988" data-name="Path 4988" d="M1.856,3.892,0,0,4.407,1.026Z" fill="#ffd7b7"/>
          <g id="Group_12808" data-name="Group 12808">
            <path id="Path_4989" data-name="Path 4989" d="M0,0,.719,1.508,1.644.383Z" fill="#4d7991"/>
          </g>
          <path id="Path_4990" data-name="Path 4990" d="M10.977,14.693l-1.466-.212a.308.308,0,0,1-.235-.174L8.518,12.69l-.02-.055-.561-2.188L6.63,5.726,5.123,1.77A2.739,2.739,0,0,0,2.182.027L1.513.122A2.647,2.647,0,0,0,.222,3.575L.889,5.1l.872,4.361.252,7.285a1.961,1.961,0,0,0,.052.386l1.1,4.626a2.342,2.342,0,0,0,.488.968L6.09,25.61a1.181,1.181,0,0,1,.253.518l.7,3.294L19.008,27.73l-.481-3.441a1.192,1.192,0,0,1,.036-.486C14.81,22.1,11.646,18.629,10.977,14.693Z" transform="translate(6.43 7.843)" fill="#ffd7b7"/>
        </g>
      </g>
    </g>
    <path id="Path_4972" data-name="Path 4972" d="M26.813,4.222A2.7,2.7,0,0,0,26.131.479a2.668,2.668,0,0,0-3.55.451l-6.974,8.1a1.7,1.7,0,0,1-2.1.39L10.067,7.566A7.258,7.258,0,0,1,7.65,5.46L7.2,1.335,4.324,2.882c-.417.225-1.416,3.176-1.509,3.643L.027,20.478a1.406,1.406,0,0,0,0,.527l1.827,10L.839,37.718l11.432-1.5c1.635-2.312,2.185-2.856,2.914-4.005a26.988,26.988,0,0,0,3.369-7.5L20.443,17.6a1.681,1.681,0,0,1,.162-.39l.7-4.951Z" transform="matrix(0.961, 0.276, -0.276, 0.961, 33.713, 31.653)" fill="#ffd7b7"/>
    <g id="Group_12803" data-name="Group 12803" transform="translate(13.903 61.501) rotate(14)">
      <path id="Path_4973" data-name="Path 4973" d="M8.4.045,26,3.154a1.793,1.793,0,0,1,1.423,2.072L21.091,41.774,0,38.08,6.389,1.206A1.559,1.559,0,0,1,8.4.045Z" transform="translate(0 5.164)" fill="#727477"/>
      <path id="Path_4974" data-name="Path 4974" d="M15.754,8.066l.8-4.562a.85.85,0,0,0-.686-.986L1.783.013A.846.846,0,0,0,.8.7L0,5.264Z" transform="translate(8.958 0)" fill="#e0e0e0"/>
      <path id="Path_10508" data-name="Path 10508" d="M.015,0H1.269L1.254,16H0Z" transform="translate(8.954 5.279) rotate(-79.971)" fill="#bdbdbd"/>
    </g>
    <rect id="Rectangle_2710" data-name="Rectangle 2710" width="6" height="6" transform="translate(119.731 61.409)" fill="#28c76f"/>
  </g>
</svg>
