<svg xmlns="http://www.w3.org/2000/svg" width="140" height="60" viewBox="0 0 140 60">
  <g id="Group_40368" data-name="Group 40368" transform="translate(-0.168)">
    <rect id="Rectangle_2963" data-name="Rectangle 2963" width="140" height="60" transform="translate(0.168)" fill="#fff" opacity="0"/>
    <g id="Group_40362" data-name="Group 40362" transform="translate(16.498 3.331)">
      <g id="Group_40357" data-name="Group 40357" transform="translate(0 48.341)">
        <path id="Path_46598" data-name="Path 46598" d="M185.85,649.221v-4.594h4.631v.776h-3.266v1.088h2.819v.777h-2.819v1.953Z" transform="translate(-185.85 -644.536)" fill="#ec1c24"/>
        <path id="Path_46599" data-name="Path 46599" d="M193.956,644.627h1.364v2.495a3.551,3.551,0,0,0,.05.77.785.785,0,0,0,.417.455,1.985,1.985,0,0,0,.9.171,1.86,1.86,0,0,0,.875-.162.652.652,0,0,0,.355-.4,3.553,3.553,0,0,0,.06-.782v-2.548h1.364v2.419a4.318,4.318,0,0,1-.11,1.171,1.2,1.2,0,0,1-.408.578,2.245,2.245,0,0,1-.795.376,4.967,4.967,0,0,1-1.3.139,5.321,5.321,0,0,1-1.468-.152,2.224,2.224,0,0,1-.79-.4,1.2,1.2,0,0,1-.383-.51,3.89,3.89,0,0,1-.133-1.17Z" transform="translate(-185.85 -644.536)" fill="#ec1c24"/>
        <path id="Path_46600" data-name="Path 46600" d="M204.66,649.221V645.4h-2.005v-.776h5.368v.776h-2v3.818Z" transform="translate(-185.85 -644.536)" fill="#ec1c24"/>
        <path id="Path_46601" data-name="Path 46601" d="M211.253,644.627h1.364v2.495a3.528,3.528,0,0,0,.051.77.779.779,0,0,0,.417.455,1.985,1.985,0,0,0,.9.171,1.86,1.86,0,0,0,.875-.162.652.652,0,0,0,.355-.4,3.553,3.553,0,0,0,.06-.782v-2.548h1.364v2.419a4.267,4.267,0,0,1-.111,1.171,1.19,1.19,0,0,1-.408.578,2.248,2.248,0,0,1-.794.376,4.97,4.97,0,0,1-1.3.139,5.318,5.318,0,0,1-1.467-.152,2.239,2.239,0,0,1-.791-.4,1.192,1.192,0,0,1-.382-.51,3.885,3.885,0,0,1-.134-1.17Z" transform="translate(-185.85 -644.536)" fill="#ec1c24"/>
        <path id="Path_46602" data-name="Path 46602" d="M220.441,649.221v-4.594h2.871a7.1,7.1,0,0,1,1.574.123,1.564,1.564,0,0,1,.785.44,1.037,1.037,0,0,1-.152,1.578,2.655,2.655,0,0,1-1.336.425,3.3,3.3,0,0,1,.73.385,5.806,5.806,0,0,1,.776.746l.825.9h-1.631l-.986-1a7.322,7.322,0,0,0-.719-.675,1.132,1.132,0,0,0-.41-.191,3.24,3.24,0,0,0-.686-.052H221.8v1.918Zm1.364-2.651h1.009a7.537,7.537,0,0,0,1.226-.057.771.771,0,0,0,.383-.194.47.47,0,0,0,.138-.345.454.454,0,0,0-.182-.375,1.011,1.011,0,0,0-.514-.18c-.111-.01-.443-.016-1-.016H221.8Z" transform="translate(-185.85 -644.536)" fill="#ec1c24"/>
        <path id="Path_46603" data-name="Path 46603" d="M229.611,649.221v-4.594h5.008v.776h-3.644v1.019h3.391v.774h-3.391v1.25h3.773v.775Z" transform="translate(-185.85 -644.536)" fill="#ec1c24"/>
        <path id="Path_46604" data-name="Path 46604" d="M243.2,649.221v-4.594h1.364v4.594Z" transform="translate(-185.85 -644.536)" fill="#ec1c24"/>
        <path id="Path_46605" data-name="Path 46605" d="M247.881,647.731l1.327-.089a1.042,1.042,0,0,0,.486.671,1.948,1.948,0,0,0,.988.214,2.042,2.042,0,0,0,.993-.191q.334-.19.334-.445a.352.352,0,0,0-.14-.28,1.3,1.3,0,0,0-.491-.2q-.24-.056-1.092-.2a4.688,4.688,0,0,1-1.539-.457,1.094,1.094,0,0,1-.622-.93.939.939,0,0,1,.293-.66,1.84,1.84,0,0,1,.843-.468,4.769,4.769,0,0,1,1.329-.161,3.827,3.827,0,0,1,1.915.381,1.228,1.228,0,0,1,.675,1.018l-1.364.041a.755.755,0,0,0-.376-.511,1.868,1.868,0,0,0-.864-.156,2.127,2.127,0,0,0-.93.167.322.322,0,0,0-.217.287.332.332,0,0,0,.2.28,4.658,4.658,0,0,0,1.253.309,8.936,8.936,0,0,1,1.472.333,1.814,1.814,0,0,1,.747.47,1.057,1.057,0,0,1,.269.735,1.073,1.073,0,0,1-.322.743,1.932,1.932,0,0,1-.913.516,5.45,5.45,0,0,1-1.47.168,3.909,3.909,0,0,1-1.967-.4A1.634,1.634,0,0,1,247.881,647.731Z" transform="translate(-185.85 -644.536)" fill="#ec1c24"/>
        <path id="Path_46606" data-name="Path 46606" d="M261.865,649.221v-4.594h1.364v1.807H265.9v-1.807h1.365v4.594H265.9v-2.009h-2.672v2.009Z" transform="translate(-185.85 -644.536)" fill="#ec1c24"/>
        <path id="Path_46607" data-name="Path 46607" d="M271.035,649.221v-4.594h5.008v.776H272.4v1.019h3.391v.774H272.4v1.25h3.773v.775Z" transform="translate(-185.85 -644.536)" fill="#ec1c24"/>
        <path id="Path_46608" data-name="Path 46608" d="M279.693,649.221v-4.594h2.87a7.094,7.094,0,0,1,1.574.123,1.563,1.563,0,0,1,.786.44,1.038,1.038,0,0,1-.152,1.578,2.659,2.659,0,0,1-1.337.425,3.311,3.311,0,0,1,.731.385,5.87,5.87,0,0,1,.776.746l.825.9h-1.631l-.986-1a7.321,7.321,0,0,0-.719-.675,1.14,1.14,0,0,0-.41-.191,3.257,3.257,0,0,0-.687-.052h-.276v1.918Zm1.364-2.651h1.009a7.512,7.512,0,0,0,1.225-.057.767.767,0,0,0,.383-.194.466.466,0,0,0,.138-.345.452.452,0,0,0-.182-.375,1,1,0,0,0-.513-.18c-.111-.01-.443-.016-1-.016h-1.064Z" transform="translate(-185.85 -644.536)" fill="#ec1c24"/>
        <path id="Path_46609" data-name="Path 46609" d="M288.862,649.221v-4.594h5.009v.776h-3.645v1.019h3.392v.774h-3.392v1.25H294v.775Z" transform="translate(-185.85 -644.536)" fill="#ec1c24"/>
      </g>
      <g id="Group_40361" data-name="Group 40361" transform="translate(0.5 0.018)">
        <path id="Path_46610" data-name="Path 46610" d="M186.193,622.491l1.786-.076-1.386.911.455,1.653-1.4-1.112-1.259,1.094.343-1.653-1.311-.893,1.729.038.531-1.424Z" transform="translate(-181.35 -595.939)" fill="#ec1c24"/>
        <path id="Path_46611" data-name="Path 46611" d="M189.946,629.206l1.8-.065-1.394.906.47,1.663-1.422-1.126-1.262,1.09.334-1.658-1.329-.9,1.745.048.529-1.427Z" transform="translate(-181.35 -595.939)" fill="#ec1c24"/>
        <path id="Path_46612" data-name="Path 46612" d="M221.594,622.567l1.785-.076-1.387.912.456,1.653-1.4-1.113-1.258,1.094.342-1.653-1.31-.892,1.728.038.532-1.425Z" transform="translate(-181.35 -595.939)" fill="#ec1c24"/>
        <path id="Path_46613" data-name="Path 46613" d="M217.75,629.13l1.8-.066-1.394.907.47,1.661-1.421-1.125-1.264,1.09.335-1.657-1.33-.9,1.745.048.529-1.425Z" transform="translate(-181.35 -595.939)" fill="#ec1c24"/>
        <path id="Path_46614" data-name="Path 46614" d="M217.886,618.313a14.657,14.657,0,1,1-14.657-14.656A14.659,14.659,0,0,1,217.886,618.313Z" transform="translate(-181.35 -595.939)" fill="#ec1c24"/>
        <path id="Path_46615" data-name="Path 46615" d="M210.344,623.63a4.628,4.628,0,0,0-1.058-3.323,1.473,1.473,0,0,1-.36-1.082c0-.3.133-1.652-.646-1.73s-.74.495-.626.571.056.342-.171.342-.285.361-.3.437-.19.209-.228.057-.133-.247-.266-.19-.114.209-.342.247-.361-.836-.19-1.007.076-.076.039-.247a.232.232,0,0,1,.265-.3.727.727,0,0,0,.589-.209c.057-.115.551-.095.664-.095s0-.722.115-.722.189-.247.189-.247a.561.561,0,0,0,.342-.1,2.743,2.743,0,0,0,.418-1.044c.057-.247.057-.229.437-.532s.133-.437-.152-.836-1.917-.239-2.222-.209c-3.571.342-3.742.228-3.95.19s-1.063-.38-1.349-.494a6.713,6.713,0,0,0,.3-1.6c0-.094-.284.019-.284-.037s-.133-.608-.133-.608c-.134-.532-.514-.323-.608,0s-.342.626-.475.532-.818-1.12-1.159-1.254-.4.171-.379.362-.4.265-.494.094a4.318,4.318,0,0,0-1.178-.778c-.4-.191-.436.151-.456.36s.038.418.436.38-.113.38-.379.626-.4.837-.227,1.026a2.446,2.446,0,0,0,1.044.418c.056.589.512.666.836.7s.36.075.455.36-.74.3-1.025.3-.248.322-.323.512-.456.266-.683.266-.04.379-.134.474-.608.114-.266.627a3.7,3.7,0,0,0,1.938.931c.247,0-.1.474.132.514s.342.207.1.3-.286.4-.286.742.571.684.608.74.038.589.229.589.455.134.284.208-.145.563-.145.563.4,3.645.775,3.645.373.431.373.431l.547.144c.111.046.52.232.571-.021a.6.6,0,0,1,.684-.482c.431.025.3-.405.4-.532s.43.077.481.279.582.076.582.076c.657-.127.329-1.342.481-1.57s.254.228.33.355.379.075.608.025.126-1.368.228-1.52.1-.253.48-.125.456-.255.633-.456.407-.026.507.2a8.73,8.73,0,0,0,.759,1.318c.2.227.025,1.013.025,1.417s.558.735.558,1.167a1.289,1.289,0,0,0,.329.936,2.687,2.687,0,0,1,.508.911c.075.253.328,1.14.632.734s-.432-2.228-.532-2.557.785-.051,1.063-.024S210.354,624.013,210.344,623.63Zm-7.172-.133h-.133v-.113h.133ZM205,621.314h-.1l-.037-.076h-.153l.02-.285.133.019.056.094.1.039Zm2.392-1.653h-.152l-.02-.246-.133-.02v-.247h.133l.058.134.114.037Z" transform="translate(-181.35 -595.939)" fill="#fff100"/>
        <path id="Path_46616" data-name="Path 46616" d="M225.487,617.97a22.069,22.069,0,1,1-22.068-22.031A22.049,22.049,0,0,1,225.487,617.97Z" transform="translate(-181.35 -595.939)" fill="none" stroke="#00a551" stroke-width="0.5"/>
        <g id="Group_40360" data-name="Group 40360" transform="translate(2.945 0.707)">
          <g id="Group_40358" data-name="Group 40358" transform="translate(8.953 35.586)">
            <path id="Path_46617" data-name="Path 46617" d="M196.057,634.276a.8.8,0,0,0-.6-.018,1.078,1.078,0,0,0,.014-.528,1.238,1.238,0,0,0-.194-.516l1.458.707-.364.752C196.377,634.512,196.271,634.381,196.057,634.276Zm1.721-.315-3.563-1.729-.184.376.443.215q.733.887.4,1.567a1.077,1.077,0,0,1-.435.4.656.656,0,0,1-.6.11.8.8,0,0,1-.381-.454l-.217.443a1.376,1.376,0,0,0,.452.447.969.969,0,0,0,.866-.02c.238-.159.477-.315.72-.472a.656.656,0,0,1,.635-.131.369.369,0,0,1,.193.232.378.378,0,0,1-.013.288l-.676,1.393.5.245,1.315-2.709.35.171Z" transform="translate(-193.248 -632.232)" fill="#00a551"/>
            <path id="Path_46618" data-name="Path 46618" d="M198.25,635.914a11.943,11.943,0,0,1,2.1-.281l-.4,1.681A6,6,0,0,0,198.25,635.914Zm3.28-1.061-4.074-.981-.1.407,3.141.754-.023.093a15.931,15.931,0,0,0-3.1.428l.04.546a3.9,3.9,0,0,1,1.411.777,3.056,3.056,0,0,1,1,1.13l.485.117.711-2.964.411.1Zm-3.225,2.092-.319.318a2.881,2.881,0,0,1,.615.575l.4-.2A2.279,2.279,0,0,0,198.3,636.945Z" transform="translate(-193.248 -632.232)" fill="#00a551"/>
            <path id="Path_46619" data-name="Path 46619" d="M202.808,637.071a3.081,3.081,0,0,0-.617-.452c.009,0,.192-.131.552-.394a2.33,2.33,0,0,1,.61-.327l0,1.7C203.172,637.42,202.989,637.246,202.808,637.071Zm3.009-2.244-4.706.006v.418l2.241,0v.142q-.528.255-1.057.505c-.415.2-.757.388-1.022.549l.165.523a1.911,1.911,0,0,1,1.177.438,3.2,3.2,0,0,1,.787.891h.506l-.005-2.456q1.075.075,1.075.567c0,.265-.158.4-.472.4h-.288v.444a1.454,1.454,0,0,0,.147.012,1.394,1.394,0,0,0,.785-.216.716.716,0,0,0,.35-.619.885.885,0,0,0-.548-.762,2.1,2.1,0,0,0-1.05-.273v-.142l1.917,0Z" transform="translate(-193.248 -632.232)" fill="#00a551"/>
            <path id="Path_46620" data-name="Path 46620" d="M207.137,634.868l-.536.091.507,3-.544.091-.506-3-.578.1-.071-.412,1.658-.28Z" transform="translate(-193.248 -632.232)" fill="#00a551"/>
            <path id="Path_46621" data-name="Path 46621" d="M208.5,635.953a12.037,12.037,0,0,1,1.64-1.349l.542,1.642A5.99,5.99,0,0,0,208.5,635.953Zm2.226-2.633-3.978,1.315.132.4,3.065-1.013.03.091a16.124,16.124,0,0,0-2.4,1.994l.321.445a3.9,3.9,0,0,1,1.608-.085,3.079,3.079,0,0,1,1.444.436l.472-.157-.957-2.894.4-.131ZM209.09,636.8l-.1.439a2.81,2.81,0,0,1,.827.164l.229-.378A2.233,2.233,0,0,0,209.09,636.8Z" transform="translate(-193.248 -632.232)" fill="#00a551"/>
          </g>
          <g id="Group_40359" data-name="Group 40359">
            <path id="Path_46622" data-name="Path 46622" d="M184.95,613.652l-.057.49,3,.347-.061.519-2.024-.235a.951.951,0,0,0-.37.139,1.221,1.221,0,0,0-.7.958,1.035,1.035,0,0,0,.219.593.971.971,0,0,1,0-.291,1.02,1.02,0,0,1,.222-.553.523.523,0,0,1,.489-.211,1.056,1.056,0,0,1,.665.406,1.572,1.572,0,0,1,.363.76l-.43.292a1.449,1.449,0,0,0-.231-.581c-.149-.229-.294-.352-.438-.368-.089-.012-.17.093-.245.312a2.351,2.351,0,0,0-.1.469.446.446,0,0,0,.015.186l-.458.2c-.129-.187-.254-.371-.38-.557a1.057,1.057,0,0,1-.129-.686,1.435,1.435,0,0,1,.758-1.157l-.634-.072.116-1.011Z" transform="translate(-184.295 -596.646)" fill="#00a551"/>
            <path id="Path_46623" data-name="Path 46623" d="M186.1,610.082l-.14.432,2.906.949-.162.5L186.7,611.3a.781.781,0,0,0-.695.156,1.227,1.227,0,0,0-.5.625.662.662,0,0,0,0,.456.451.451,0,0,0,.3.279.478.478,0,0,0,.381-.032.515.515,0,0,0,.256-.313,1.055,1.055,0,0,0,.037-.4l.507-.09a1.424,1.424,0,0,1-.04.632,1.09,1.09,0,0,1-.532.65.976.976,0,0,1-.786.078.908.908,0,0,1-.6-.561,1.363,1.363,0,0,1,.017-.914,1.281,1.281,0,0,1,.823-.836l-.452-.146.3-.931Z" transform="translate(-184.295 -596.646)" fill="#00a551"/>
            <path id="Path_46624" data-name="Path 46624" d="M187.8,608.988a.633.633,0,0,0-.207-.219.554.554,0,0,0-.652.067,1.658,1.658,0,0,1,.213-.822.927.927,0,0,1,.383-.331.8.8,0,0,1,.469-.1Zm.38-3.538-.77,1.244.632.388a2.4,2.4,0,0,0-.736.174,1.441,1.441,0,0,0-.563.558,2.366,2.366,0,0,0-.305.774,1.7,1.7,0,0,0,.016.807l.4.058a.7.7,0,0,1,.295-.26.4.4,0,0,1,.338.078.991.991,0,0,1,.317.385l.422-.026q.129-1.212.279-2.107c.143-.039.448.087.922.378.147.09.329.208.546.352s.345.229.383.252l.273-.445-2.6-1.6.434-.72Z" transform="translate(-184.295 -596.646)" fill="#00a551"/>
            <path id="Path_46625" data-name="Path 46625" d="M190.638,608.1l-.323.416a.946.946,0,0,0-.705.315,1.98,1.98,0,0,0-.235.456,2.119,2.119,0,0,1-.233.456,1.433,1.433,0,0,1-.662.464,1.59,1.59,0,0,1-.77.091l-.1-.427a1.238,1.238,0,0,0,1.14-.438,2.358,2.358,0,0,0,.23-.42,2.022,2.022,0,0,1,.231-.419,1.116,1.116,0,0,1,.662-.41l.768-.091.007,0Z" transform="translate(-184.295 -596.646)" fill="#00a551"/>
            <path id="Path_46626" data-name="Path 46626" d="M191.91,602.362l-1.321,1.295a.718.718,0,0,0,.551.036,1.284,1.284,0,0,0,.495-.316,1.962,1.962,0,0,0,.152-.167l.538.031a2.627,2.627,0,0,0,.476,1.051,1.624,1.624,0,0,0,.887.582l-.146.381a1.457,1.457,0,0,1-.942-.462,4.275,4.275,0,0,1-.676-1.088,2,2,0,0,1-.852.42,1.056,1.056,0,0,1-.869-.091,1.151,1.151,0,0,0,.191,1.116c.143.144.278.155.4.029a.806.806,0,0,0,.188-.307.471.471,0,0,0,.029-.319l.361-.352a1.125,1.125,0,0,1,.6.377q.84.858-.161,1.84a1.37,1.37,0,0,1-.473.294c-.07.029-.244.081-.528.158q-.387-.077-1.141-.3l.04-.421a3.176,3.176,0,0,0,1.149.272l0-.011a2.076,2.076,0,0,1,.316-.12.818.818,0,0,0,.3-.171,1.14,1.14,0,0,0,.339-.571.614.614,0,0,0-.177-.578.449.449,0,0,0-.248-.14.962.962,0,0,1-.293.689.764.764,0,0,1-.571.249.779.779,0,0,1-.523-.257,1.427,1.427,0,0,1-.34-.952l-1.206,1.183-.285-.293,3.447-3.381Z" transform="translate(-184.295 -596.646)" fill="#00a551"/>
            <path id="Path_46627" data-name="Path 46627" d="M193.44,601.349l-.469.436,1.736,2.517-.429.3-1.737-2.517-.631.28-.286-.293,1.638-1.089Z" transform="translate(-184.295 -596.646)" fill="#00a551"/>
            <path id="Path_46628" data-name="Path 46628" d="M197.263,599.5l-3.823,1.847-.178-.369,3.828-1.837Zm.3,1.591a1.507,1.507,0,0,1,.121,1.134,1.479,1.479,0,0,1-.836.877,1.8,1.8,0,0,1-1.284.133,4.665,4.665,0,0,1-1.133-.551l.13-.458q1.278.867,1.954.542a1.166,1.166,0,0,0,.6-.617.935.935,0,0,0-.012-.8.96.96,0,0,0-.6-.483,1.074,1.074,0,0,0-.822.042c-.263.126-.353.277-.27.45a.277.277,0,0,0,.236.146.448.448,0,0,0,.31-.072l-.073.475a.739.739,0,0,1-.583.034.691.691,0,0,1-.426-.357.617.617,0,0,1,.058-.627,1.29,1.29,0,0,1,.547-.455,1.677,1.677,0,0,1,1.2-.1A1.293,1.293,0,0,1,197.56,601.093Z" transform="translate(-184.295 -596.646)" fill="#00a551"/>
            <path id="Path_46629" data-name="Path 46629" d="M201.672,598.629l-.647.027.391,1.754h-.664a1.424,1.424,0,0,0-.69-.539,1.5,1.5,0,0,0-.911-.088.676.676,0,0,0-.375.21.407.407,0,0,0-.085.37c.013.063.084.108.21.137a.614.614,0,0,0,.284.015,1.84,1.84,0,0,0,.347-.181l.246.322c-.068.07-.134.137-.2.2a.576.576,0,0,1-.242.14,1.4,1.4,0,0,1-.76-.016.657.657,0,0,1-.459-.5.823.823,0,0,1,.211-.779,1.421,1.421,0,0,1,.786-.43,2.083,2.083,0,0,1,1.611.425l-.209-.933-3.251.732-.173-.359,4.554-.923Z" transform="translate(-184.295 -596.646)" fill="#00a551"/>
            <path id="Path_46630" data-name="Path 46630" d="M201.9,602.868l-.377.058a.684.684,0,0,0-.573-.293,1.791,1.791,0,0,0-.374.1,1.709,1.709,0,0,1-.373.1,1.013,1.013,0,0,1-.757-.206,4.223,4.223,0,0,1-.506-.567l.229-.334c.132.149.264.3.393.446a.682.682,0,0,0,.573.192,1.276,1.276,0,0,0,.311-.1,1.365,1.365,0,0,1,.319-.1.622.622,0,0,1,.52.2l-.169-1.6a.283.283,0,0,0-.125-.2.351.351,0,0,0-.248-.068,1.225,1.225,0,0,0-.532.268q-.35.255-.328.429c.007.072.056.1.148.094a.4.4,0,0,0,.292-.243l.332.293a.734.734,0,0,1-.631.333.554.554,0,0,1-.4-.1.444.444,0,0,1-.186-.328.854.854,0,0,1,.438-.743,1.768,1.768,0,0,1,.885-.379,2.485,2.485,0,0,1,.474,0l.293.245.147.361Z" transform="translate(-184.295 -596.646)" fill="#00a551"/>
            <path id="Path_46631" data-name="Path 46631" d="M203.187,598.526l-.444.03.2,3.041-.53.036-.2-3.041-.54.037-.028-.409.54-.036-.007-.094q0-.423-.57-.721a1.853,1.853,0,0,0-1.02-.248,2.7,2.7,0,0,0-1.038.311c-.168.089-.474.272-.92.553l-.306-.326a7.375,7.375,0,0,1,1-.662,3.075,3.075,0,0,1,1.171-.346,2.57,2.57,0,0,1,1.41.332,1.307,1.307,0,0,1,.8,1.027c0,.045.006.091.01.139l.446-.03Z" transform="translate(-184.295 -596.646)" fill="#00a551"/>
            <path id="Path_46632" data-name="Path 46632" d="M207.532,600.505q1.419-.176,2.058-.182l-.474,1.666A6.14,6.14,0,0,0,207.532,600.505Zm3.291-.909-3.945-1.124-.111.392,2.966.846-.024.094a15.666,15.666,0,0,0-2.985.313l.009.538a3.714,3.714,0,0,1,1.316.838,3.024,3.024,0,0,1,.915,1.177l.454.128.837-2.939.457.13Z" transform="translate(-184.295 -596.646)" fill="#00a551"/>
            <path id="Path_46633" data-name="Path 46633" d="M212.181,600.761l-.467-.214-1.272,2.78-.475-.217,1.273-2.779-.528-.342.111-.393,1.527.794Z" transform="translate(-184.295 -596.646)" fill="#00a551"/>
            <path id="Path_46634" data-name="Path 46634" d="M213.235,602.4a.468.468,0,0,1-.323-.063.482.482,0,0,1-.221-.3.435.435,0,0,1,.04-.346.363.363,0,0,1,.273-.176.537.537,0,0,1,.361.086.38.38,0,0,1,.185.29.494.494,0,0,1-.059.342A.356.356,0,0,1,213.235,602.4Zm.772-.605a.839.839,0,0,0-.407-.585.969.969,0,0,0-.707-.144.784.784,0,0,0-.544.377.863.863,0,0,0-.112.687.982.982,0,0,0,.47.581.878.878,0,0,0,.672.146.807.807,0,0,0,.507-.4A.9.9,0,0,0,214.007,601.8Zm-1.209,3.148a9.951,9.951,0,0,0-.949-2.583l-.362.581a5.576,5.576,0,0,1,.6,1.175c.154.4.308.815.464,1.227Z" transform="translate(-184.295 -596.646)" fill="#00a551"/>
            <path id="Path_46635" data-name="Path 46635" d="M218.173,605.314l-.328-.3-2.065,2.256-.365-.334c.049-.054.129-.131.238-.232a3.278,3.278,0,0,0,.241-.236q.7-.767.274-1.161a.462.462,0,0,0-.409-.093.607.607,0,0,0-.356.166l-.43-.4a.644.644,0,0,0,.159-.4.476.476,0,0,0-.143-.425.5.5,0,0,0-.441-.143.679.679,0,0,0-.379.225.456.456,0,0,0-.114.456.937.937,0,0,0,.289.428,1.81,1.81,0,0,0,.167.139l-.443.227a1.5,1.5,0,0,1-.16-.121,1.153,1.153,0,0,1-.4-.782,1,1,0,0,1,.269-.775.974.974,0,0,1,.736-.338,1.161,1.161,0,0,1,.806.34,1.009,1.009,0,0,1,.3.934,1.026,1.026,0,0,1,.912.175.581.581,0,0,1,.164.3.593.593,0,0,1,0,.316l.788-.861-2.715-2.489.276-.3,3.408,3.122Z" transform="translate(-184.295 -596.646)" fill="#00a551"/>
            <path id="Path_46636" data-name="Path 46636" d="M219.174,606.782l-.363-.465L216.4,608.2l-.323-.411,2.408-1.886-.316-.592.275-.3,1.07,1.546Z" transform="translate(-184.295 -596.646)" fill="#00a551"/>
            <path id="Path_46637" data-name="Path 46637" d="M217.746,610.434a1,1,0,0,1-.294-.3,1.632,1.632,0,0,1-.369-.984,1.741,1.741,0,0,1,.8-1.194,1.7,1.7,0,0,1,.962-.239,6.053,6.053,0,0,1,1.033.147l-.7-1.082.344-.223,1.173,1.818-.336.217a2.506,2.506,0,0,0-1.055-.389,1.533,1.533,0,0,0-1.093.15,1.384,1.384,0,0,0-.6.654,1.075,1.075,0,0,0,.205.928.674.674,0,0,0,.339.234Z" transform="translate(-184.295 -596.646)" fill="#00a551"/>
            <path id="Path_46638" data-name="Path 46638" d="M221.716,611.482l-1.143-2.415-1.147.535a9.937,9.937,0,0,1,1.492,1.235l-.292.659a3.112,3.112,0,0,0-1.179.183,2.383,2.383,0,0,0-.718.565l-.317-.287a2.716,2.716,0,0,1,.689-.62,6.236,6.236,0,0,1,1.148-.406,7.346,7.346,0,0,0-1.6-1.089l.135-.524,1.568-.734-.05-.158.37-.173,1.447,3.131Z" transform="translate(-184.295 -596.646)" fill="#00a551"/>
            <path id="Path_46639" data-name="Path 46639" d="M222.648,615.3l-.1-.426-2.971.725-.122-.5,2.229-.543a.7.7,0,0,0,.388-.264.552.552,0,0,0,.119-.48.508.508,0,0,0-.207-.309.388.388,0,0,0-.334-.072c-.321.077-.448.244-.387.5a.908.908,0,0,0,.274.35l-.51.125a.737.737,0,0,1-.318-.454.54.54,0,0,1,.046-.379,2.72,2.72,0,0,1,.218-.3.862.862,0,0,1-.363-.2.8.8,0,0,1-.216-.378.553.553,0,0,1,.126-.548l.5-.123a.648.648,0,0,0-.136.471q.1.408.646.274.479-.115.278-.936c-.011-.042-.026-.106-.046-.187s-.034-.137-.04-.164l.4-.1.192.791a.745.745,0,0,1-.049.46,1.2,1.2,0,0,1-.254.382.714.714,0,0,1,.4.184.725.725,0,0,1,.242.388.857.857,0,0,1-.188.751l.351-.086.23.95Z" transform="translate(-184.295 -596.646)" fill="#00a551"/>
          </g>
        </g>
      </g>
      <g id="Group_40366" data-name="Group 40366" transform="translate(52.892)">
        <path id="Path_376" data-name="Path 376" d="M1979.934,243.608a17.163,17.163,0,0,0,7.043,1.576,25.2,25.2,0,0,0,3.4-.121,20.355,20.355,0,0,0,3.378-.612c.368-.1.328-.014.328-.44q0-2.3,0-4.6v-.344a5.539,5.539,0,0,0-.742.225,17.3,17.3,0,0,1-3.874.625,12,12,0,0,1-3.867-.36,7.636,7.636,0,0,1-5.587-5.229,11.371,11.371,0,0,1-.01-7,7.582,7.582,0,0,1,3.057-4.153,9,9,0,0,1,4.234-1.472,14.157,14.157,0,0,1,6.465.844.539.539,0,0,0,.322.074v-5.3c0-.044,0-.088,0-.132a.162.162,0,0,0-.14-.19c-.1-.021-.192-.05-.288-.073a15.531,15.531,0,0,0-2.352-.35,26.912,26.912,0,0,0-5.743.074,16.712,16.712,0,0,0-5.467,1.684,13.167,13.167,0,0,0-5.976,6.062,14.7,14.7,0,0,0-1.362,4.944,16.561,16.561,0,0,0,.419,6.036A12.221,12.221,0,0,0,1979.934,243.608Z" transform="translate(-1963.633 -216.459)" fill="#00a651"/>
        <path id="Path_377" data-name="Path 377" d="M2169.129,221.554q0-2.332,0-4.665c0-.468.057-.407-.4-.407h-21.274c-.077,0-.155.005-.231,0-.133-.01-.177.058-.17.179,0,.055,0,.11,0,.165q0,2.382,0,4.764c0,.375-.023.356.362.356q3.474,0,6.948,0c.506,0,.445-.05.445.436q0,11.183,0,22.366a2.451,2.451,0,0,1,0,.265c-.019.168.063.2.213.2q3.027-.006,6.054,0c.163,0,.255-.034.229-.219a1.741,1.741,0,0,1,0-.231V233.579q0-5.641,0-11.282c0-.389-.039-.351.356-.351h7.047c.088,0,.176,0,.265,0,.109,0,.163-.046.157-.159C2169.126,221.708,2169.129,221.631,2169.129,221.554Z" transform="translate(-2113.984 -216.477)" fill="#00a651"/>
        <path id="Path_378" data-name="Path 378" d="M1907.236,230.843v13.962c0,.088,0,.176,0,.265s.04.141.137.139.176,0,.265,0q2.829,0,5.658,0c.5,0,.425.061.425-.413q0-10.075,0-20.149,0-3.937,0-7.874c0-.287,0-.287-.287-.29h-.132q-2.829,0-5.658,0c-.461,0-.407-.062-.407.4Q1907.235,223.862,1907.236,230.843Z" transform="translate(-1907.233 -216.477)" fill="#00a651"/>
        <path id="Path_380" data-name="Path 380" d="M2254.083,463.331a.214.214,0,0,1-.122-.212c-.035-.081-.072-.161-.105-.243a62.65,62.65,0,0,0-3.295-6.217.283.283,0,0,0-.294-.153c-.706,0-1.412.006-2.118,0-.163,0-.253.036-.232.217a1.792,1.792,0,0,1,0,.2v8.867c0,.066.006.133,0,.2-.018.169.044.234.223.231.518-.01,1.037,0,1.555,0,.226,0,.232-.007.231-.247-.011-1.908.033-3.816-.049-5.723-.016-.368,0-.737,0-1.105.049-.01.049.035.06.061a42.544,42.544,0,0,0,2.11,4.153c.487.876.971,1.755,1.459,2.631.062.112.1.237.279.235.662-.008,1.323-.005,1.985,0,.128,0,.18-.053.172-.178-.005-.077,0-.154,0-.232v-6.187q0-1.406,0-2.813c0-.293,0-.3-.28-.3q-.728,0-1.456,0c-.286,0-.29,0-.29.288,0,2.04-.033,4.081.124,6.117A.67.67,0,0,1,2254.083,463.331Z" transform="translate(-2200.938 -421.747)" fill="#00a651"/>
        <path id="Path_381" data-name="Path 381" d="M1915.752,460.05a4.05,4.05,0,0,0-2.439-3.509,5.259,5.259,0,0,0-1.423-.414,15.816,15.816,0,0,0-4.382.047c-.3.038-.291.007-.291.343q0,2.216,0,4.432v4.366a1.883,1.883,0,0,1,0,.2c-.016.146.026.232.191.231.076,0,.152.025.229.032a19.665,19.665,0,0,0,2.841.067,8.383,8.383,0,0,0,2.14-.386,4.291,4.291,0,0,0,2.987-3.206A6.288,6.288,0,0,0,1915.752,460.05Zm-2.454,2a2.73,2.73,0,0,1-2.222,2.016,6.093,6.093,0,0,1-1.416.067c-.246-.007-.251-.016-.252-.272q0-1.471,0-2.943c0-.97,0-1.94,0-2.91,0-.174.046-.268.229-.28a5.41,5.41,0,0,1,1.806.088,2.575,2.575,0,0,1,1.984,2.334A4.514,4.514,0,0,1,1913.3,462.05Z" transform="translate(-1907.213 -421.306)" fill="#00a651"/>
        <path id="Path_382" data-name="Path 382" d="M2181.581,458.8a4.3,4.3,0,0,0-2.786-3.233,4.907,4.907,0,0,0-1.524-.261,4.458,4.458,0,0,0-4.414,2.81,5.891,5.891,0,0,0-.053,4.39,4.109,4.109,0,0,0,2.87,2.652,5.081,5.081,0,0,0,2.163.105,4.231,4.231,0,0,0,3.433-2.573,5.817,5.817,0,0,0,.464-2.467A5.253,5.253,0,0,0,2181.581,458.8Zm-2.379,3.013a3.154,3.154,0,0,1-.453.912,2.045,2.045,0,0,1-3.3.053,3.548,3.548,0,0,1-.685-1.932c-.015-.164,0-.33,0-.495a4.177,4.177,0,0,1,.339-1.9,2.195,2.195,0,0,1,1.424-1.327,2,2,0,0,1,2.217.783,3.487,3.487,0,0,1,.632,1.715A5.169,5.169,0,0,1,2179.2,461.816Z" transform="translate(-2135.84 -420.714)" fill="#00a651"/>
        <path id="Path_383" data-name="Path 383" d="M2005.272,456.485c-.188,0-.219.1-.256.231-.565,1.957-1.2,3.893-1.705,5.868-.118.46-.221.924-.338,1.42-.039-.062-.064-.087-.07-.115-.5-2.431-1.29-4.783-1.939-7.173-.051-.19-.143-.232-.326-.229-.639.011-1.279,0-1.918.005a.3.3,0,0,0-.191.027c-.036.117.033.216.065.317q.94,2.942,1.886,5.882.515,1.6,1.026,3.21c.085.267.088.267.363.269.331,0,.662,0,.993,0,.364,0,.728,0,1.092,0,.141,0,.235-.031.262-.183a1.125,1.125,0,0,1,.054-.156q1.523-4.524,3.045-9.048a.445.445,0,0,0,.05-.321C2006.661,456.491,2005.966,456.5,2005.272,456.485Z" transform="translate(-1985.932 -421.731)" fill="#00a651"/>
        <path id="Path_384" data-name="Path 384" d="M2097.988,460.267a6.019,6.019,0,0,0-1.316-.683,11.59,11.59,0,0,1-1.128-.469,1.717,1.717,0,0,1-.536-.38.775.775,0,0,1,.023-1.077,1.221,1.221,0,0,1,.6-.326,3.016,3.016,0,0,1,1.084-.04,5.084,5.084,0,0,1,1.505.425c.156-.558.307-1.1.46-1.637a.113.113,0,0,0-.07-.158c-.081-.034-.16-.074-.243-.1a6.183,6.183,0,0,0-3.161-.25,3.51,3.51,0,0,0-1.8.855,2.573,2.573,0,0,0,.067,3.88,5.028,5.028,0,0,0,1.058.669c.368.178.758.3,1.136.45a3.039,3.039,0,0,1,.811.437.925.925,0,0,1-.18,1.6,1.723,1.723,0,0,1-.569.162,4.723,4.723,0,0,1-2.018-.243c-.27-.088-.532-.2-.823-.31-.121.492-.236.972-.36,1.45-.093.358-.1.33.239.482.05.022.1.043.154.061a6.778,6.778,0,0,0,3.257.323,3.989,3.989,0,0,0,1.906-.774A2.753,2.753,0,0,0,2097.988,460.267Z" transform="translate(-2066.936 -420.856)" fill="#00a651"/>
        <path id="Path_385" data-name="Path 385" d="M2150.949,456.875c0-.066,0-.132,0-.2,0-.109-.039-.158-.154-.157q-.942,0-1.884,0c-.117,0-.156.055-.151.162,0,.077,0,.154,0,.231v4.461q0,2.28,0,4.56c0,.288,0,.29.287.291q.776,0,1.553,0c.376,0,.347.037.347-.363Q2150.95,461.37,2150.949,456.875Z" transform="translate(-2115.457 -421.761)" fill="#00a651"/>
        <path id="Path_386" data-name="Path 386" d="M2068.2,466.228q.926-.006,1.853,0c.133,0,.176-.059.17-.18,0-.066,0-.132,0-.2v-8.968c0-.066,0-.133,0-.2,0-.106-.033-.163-.15-.162q-.943,0-1.886,0c-.116,0-.156.052-.152.16,0,.077,0,.154,0,.232q0,2.234,0,4.467v4.434c0,.077,0,.155,0,.232C2068.03,466.165,2068.067,466.229,2068.2,466.228Z" transform="translate(-2045.861 -421.762)" fill="#00a651"/>
        <path id="Path_387" data-name="Path 387" d="M1977.282,461.358v1.322q0,1.636,0,3.272c0,.267,0,.27.273.271.562,0,1.124,0,1.685,0,.164,0,.253-.04.231-.22a1.332,1.332,0,0,1,0-.165v-8.955c0-.066,0-.133,0-.2.009-.13-.053-.173-.177-.171-.275,0-.551,0-.826,0-.341,0-.683,0-1.024,0-.109,0-.167.032-.162.149,0,.077,0,.154,0,.231Z" transform="translate(-1967.621 -421.757)" fill="#00a651"/>
        <path id="Path_453" data-name="Path 453" d="M2291.77,503.19c.023.021.041.066.055.069.043.007.024-.04.03-.062a.29.29,0,0,0-.009-.212C2291.809,503.049,2291.86,503.145,2291.77,503.19Z" transform="translate(-2238.746 -461.819)" fill="#93d6ae"/>
        <path id="Path_454" data-name="Path 454" d="M2291.855,503.2c-.006.022.013.069-.03.062-.015,0-.032-.048-.055-.069a.215.215,0,0,0,.123.212.667.667,0,0,0-.047-.417A.29.29,0,0,1,2291.855,503.2Z" transform="translate(-2238.746 -461.819)" fill="#93d6ae"/>
      </g>
    </g>
  </g>
</svg>
