<svg xmlns="http://www.w3.org/2000/svg" width="12" height="16" viewBox="0 0 12 16"><g transform="translate(0)"><path d="M-588.159,337.9c.246.042.494.072.737.127a4.632,4.632,0,0,1,3.493,3.769,4.57,4.57,0,0,1-.285,2.577,12.56,12.56,0,0,1-.643,1.177q-1.7,2.993-3.4,5.985c-.03.053-.062.105-.1.176-.174-.294-.341-.574-.507-.855-1.175-1.994-2.341-3.993-3.528-5.98a4.339,4.339,0,0,1-.612-2.157,4.65,4.65,0,0,1,3.481-4.675c.266-.066.541-.1.811-.144Zm-.269,8.026a3.382,3.382,0,0,0,3.336-3.407,3.376,3.376,0,0,0-3.358-3.4,3.373,3.373,0,0,0-3.327,3.4A3.378,3.378,0,0,0-588.428,345.931Z" transform="translate(594.44 -337.905)" fill="#525d66"/><path d="M-601.785,462.184c-.253-.023-.506-.046-.758-.071a9.969,9.969,0,0,1-3.089-.731,3.19,3.19,0,0,1-1.249-.878,1.365,1.365,0,0,1,0-1.817,3.221,3.221,0,0,1,.738-.625,6.347,6.347,0,0,1,2.143-.771.186.186,0,0,1,.054.007v.559c-.484.176-.96.332-1.422.523a3.419,3.419,0,0,0-.651.386,1.765,1.765,0,0,0-.365.357.665.665,0,0,0,.02.936,2.691,2.691,0,0,0,.932.677,8,8,0,0,0,2.428.689,12.571,12.571,0,0,0,2.552.1,8.576,8.576,0,0,0,3.574-.863,3.314,3.314,0,0,0,.76-.566.677.677,0,0,0,.036-1.01,2.346,2.346,0,0,0-.945-.712c-.432-.186-.878-.334-1.322-.485-.1-.034-.137-.07-.132-.177.007-.136,0-.273,0-.431a6.013,6.013,0,0,1,2.629,1.105,1.518,1.518,0,0,1,.619,1.319,1.451,1.451,0,0,1-.439.923,3.863,3.863,0,0,1-1.478.894,10.468,10.468,0,0,1-2.8.6c-.237.021-.474.045-.711.068Z" transform="translate(607.228 -446.184)" fill="#525d66"/><path d="M-562.662,370.319a2.065,2.065,0,0,1-2.092-2.1,2.082,2.082,0,0,1,2.109-2.039,2.078,2.078,0,0,1,2.058,2.106A2.068,2.068,0,0,1-562.662,370.319Z" transform="translate(568.674 -363.539)" fill="#525d66"/></g></svg>