<svg xmlns="http://www.w3.org/2000/svg" width="81.231" height="24" viewBox="0 0 81.231 24">
  <g id="Group_40376" data-name="Group 40376" transform="translate(-1899.492 -368.722)">
    <path id="Path_46612" data-name="Path 46612" d="M1940.089,392.722q-18.124,0-36.248,0a4.159,4.159,0,0,1-4.149-2.94,4.5,4.5,0,0,1-.2-1.326q0-7.732,0-15.464a4.159,4.159,0,0,1,4.27-4.266q36.342,0,72.683,0a4.159,4.159,0,0,1,4.27,4.265q.01,7.695,0,15.389a4.173,4.173,0,0,1-4.346,4.342Q1958.231,392.724,1940.089,392.722Z" transform="translate(0 0)" fill="#f7f7f7"/>
    <g id="Group_40373" data-name="Group 40373" transform="translate(1907.647 372.848)">
      <g id="Group_40371" data-name="Group 40371" transform="translate(16.013)">
        <g id="Group_40368" data-name="Group 40368" transform="translate(0 5.911)">
          <path id="Path_46613" data-name="Path 46613" d="M2226.092,505.708c.5,0,1,.013,1.5-.006.233-.009.292.074.3.29a3.339,3.339,0,0,1-1.5,3.287,3.659,3.659,0,0,1-3.833.126,3.753,3.753,0,0,1,.156-6.787,3.652,3.652,0,0,1,3.963.432c.233.173.282.3.029.491-.169.128-.285.372-.466.425s-.336-.2-.513-.306a2.748,2.748,0,0,0-4.046,3.057,2.69,2.69,0,0,0,2.228,2.064,2.644,2.644,0,0,0,2.241-.624,2.066,2.066,0,0,0,.635-1.185c.035-.167.006-.226-.183-.223-.672.012-1.344,0-2.016.008-.184,0-.285-.023-.26-.241.03-.26-.108-.6.051-.762s.5-.04.762-.046C2225.46,505.7,2225.776,505.708,2226.092,505.708Z" transform="translate(-2220.488 -502.225)"/>
          <path id="Path_46614" data-name="Path 46614" d="M2809.784,540.458c-.493,1.13-.967,2.215-1.44,3.3s-.953,2.17-1.414,3.262a.315.315,0,0,1-.357.233c-.272-.014-.546,0-.866,0,.213-.478.412-.918.607-1.361a3.148,3.148,0,0,0,.437-1.083,3,3,0,0,0-.43-1.057l-1.446-3.291c.375,0,.716,0,1.056,0,.147,0,.149.118.184.2.4.964.793,1.929,1.191,2.9.126-.043.12-.161.154-.246.351-.874.7-1.749,1.04-2.628.063-.162.135-.241.323-.229C2809.126,540.472,2809.431,540.458,2809.784,540.458Z" transform="translate(-2760.876 -537.574)"/>
          <path id="Path_46615" data-name="Path 46615" d="M2540,509.235c0,1.117,0,2.235,0,3.352,0,.2-.046.273-.251.256a3.8,3.8,0,0,0-.61,0c-.2.015-.234-.065-.233-.246q.009-3.367,0-6.734c0-.185.048-.257.238-.24.272.024.625-.11.8.051s.051.518.053.788C2540,507.387,2540,508.311,2540,509.235Z" transform="translate(-2514.935 -505.34)"/>
          <path id="Path_46616" data-name="Path 46616" d="M2724.983,509.508c0-1.086.007-2.173-.005-3.259,0-.239.039-.333.308-.327.765.018.766,0,.766.779,0,2.041,0,4.081.005,6.122,0,.241-.042.353-.309.323-.24-.027-.563.072-.707-.05-.17-.145-.053-.476-.055-.725C2724.979,511.417,2724.983,510.463,2724.983,509.508Z" transform="translate(-2686.968 -505.644)"/>
          <g id="Group_40362" data-name="Group 40362" transform="translate(18.525 2.751)">
            <path id="Path_46617" data-name="Path 46617" d="M2470.634,538.888c-.278-.008-.488,0-.395.428a2.1,2.1,0,0,0-2.972.131,2.481,2.481,0,0,0-.162,3.327,2.333,2.333,0,0,0,1.533.856,1.846,1.846,0,0,0,1.575-.539c0,.222.013.4,0,.581a1.172,1.172,0,0,1-.785,1.127,1.323,1.323,0,0,1-1.457-.338c-.133-.132-.152-.41-.351-.409a1.686,1.686,0,0,0-.561.219c-.056.023-.112.048-.169.07-.1.039-.126.088-.078.2a2.339,2.339,0,0,0,2.056,1.3,2.127,2.127,0,0,0,2.131-1.235,2.831,2.831,0,0,0,.251-1.213q0-1.951,0-3.9C2471.251,538.893,2471.25,538.906,2470.634,538.888Zm-.379,2.738a1.311,1.311,0,0,1-1.43,1.049,1.418,1.418,0,0,1-1.194-1.462,1.379,1.379,0,0,1,1.65-1.463,1.109,1.109,0,0,1,.117.033A1.543,1.543,0,0,1,2470.254,541.626Z" transform="translate(-2466.541 -538.76)"/>
          </g>
          <g id="Group_40363" data-name="Group 40363" transform="translate(32.432 0.279)">
            <path id="Path_46618" data-name="Path 46618" d="M2654.055,505.962c-.82-.06-1.648-.012-2.472-.03-.234-.005-.309.048-.305.3.015,1.107.007,2.214.007,3.321,0,.934,0,1.869,0,2.8,0,.259-.118.6.058.752.151.127.485.027.737.049.22.019.3-.04.294-.28-.017-.731,0-1.463-.012-2.194,0-.222.064-.269.272-.261.427.016.855.016,1.282,0a2.286,2.286,0,0,0,2.313-2.17A2.224,2.224,0,0,0,2654.055,505.962ZM2654,509.4c-.488.019-.978,0-1.467.011-.14,0-.17-.051-.167-.178.007-.356,0-.712,0-1.067s.007-.692,0-1.037c0-.15.047-.189.191-.186.479.009.958-.007,1.436.011A1.225,1.225,0,0,1,2654,509.4Z" transform="translate(-2651.249 -505.93)"/>
          </g>
          <g id="Group_40364" data-name="Group 40364" transform="translate(39.678 2.727)">
            <path id="Path_46619" data-name="Path 46619" d="M2751.709,540.241a1.716,1.716,0,0,0-1.133-1.592,2.585,2.585,0,0,0-1.7-.109,1.858,1.858,0,0,0-1.159.828c-.088.141-.07.207.088.262a5.934,5.934,0,0,1,.589.245c.133.063.2.03.292-.084a1.243,1.243,0,0,1,1.832.048.65.65,0,0,1,.154.527c-.023,0-.034.01-.042.008-.086-.03-.17-.064-.256-.092a2.463,2.463,0,0,0-2.218.275,1.44,1.44,0,0,0-.3,2.177,1.866,1.866,0,0,0,1.65.606,1.569,1.569,0,0,0,1.152-.675c.078.534.078.534.613.534a2.688,2.688,0,0,1,.274,0c.146.015.192-.04.19-.187C2751.722,542.089,2751.744,541.164,2751.709,540.241Zm-1.1,1.336a1.282,1.282,0,0,1-1.568.752.579.579,0,0,1-.464-.5.633.633,0,0,1,.366-.644,1.765,1.765,0,0,1,.786-.18,3.019,3.019,0,0,1,.693.12C2750.687,541.2,2750.7,541.348,2750.605,541.577Z" transform="translate(-2747.485 -538.446)"/>
          </g>
          <g id="Group_40365" data-name="Group 40365" transform="translate(7.772 2.747)">
            <path id="Path_46620" data-name="Path 46620" d="M2326.18,538.713a2.45,2.45,0,1,0,2.464,2.442A2.416,2.416,0,0,0,2326.18,538.713Zm-.009,3.926a1.491,1.491,0,1,1,1.386-1.472A1.412,1.412,0,0,1,2326.171,542.639Z" transform="translate(-2323.711 -538.713)"/>
          </g>
          <g id="Group_40366" data-name="Group 40366" transform="translate(13.148 2.748)">
            <path id="Path_46621" data-name="Path 46621" d="M2397.571,538.719a2.45,2.45,0,1,0,2.474,2.46A2.411,2.411,0,0,0,2397.571,538.719Zm.007,3.925a1.49,1.49,0,1,1,1.386-1.475A1.411,1.411,0,0,1,2397.578,542.644Z" transform="translate(-2395.116 -538.719)"/>
          </g>
          <g id="Group_40367" data-name="Group 40367" transform="translate(25.58 2.74)">
            <path id="Path_46622" data-name="Path 46622" d="M2561.762,541.687c.934-.368,1.858-.762,2.784-1.149.088-.037.246-.028.178-.208a2.318,2.318,0,0,0-2.165-1.713,2.511,2.511,0,0,0-.778.13,2.369,2.369,0,0,0-1.543,2.267,2.425,2.425,0,0,0,1.477,2.32,2.475,2.475,0,0,0,2.749-.586c.285-.3.285-.3-.067-.534a2.489,2.489,0,0,1-.277-.188c-.16-.142-.254-.122-.4.049a1.338,1.338,0,0,1-2.057,0C2561.5,541.876,2561.5,541.789,2561.762,541.687Zm-.433-.7a1.3,1.3,0,0,1,1.624-1.362,1.12,1.12,0,0,1,.246.116c.123.074.267.169.261.312-.005.127-.183.125-.286.168C2562.571,540.476,2561.963,540.723,2561.329,540.984Z" transform="translate(-2560.237 -538.616)"/>
          </g>
        </g>
        <g id="Group_40370" data-name="Group 40370" transform="translate(0.102)">
          <path id="Path_46623" data-name="Path 46623" d="M2484.542,425.46c0,.855-.01,1.623.006,2.39,0,.23-.059.284-.287.289-.246.006-.278-.084-.275-.3.01-.985,0-1.97.01-2.955,0-.112-.1-.318.088-.328.207-.012.462-.135.629.139.444.727.9,1.446,1.352,2.168.031.049.063.1.141.22V425.7c0-.325.011-.65,0-.975-.011-.228.139-.186.259-.172s.3-.1.3.161c-.005,1.086,0,2.173,0,3.259,0,.066.019.169-.088.154-.184-.025-.4.109-.546-.134-.393-.65-.8-1.291-1.207-1.936C2484.809,425.883,2484.7,425.712,2484.542,425.46Z" transform="translate(-2464.234 -424.461)"/>
          <path id="Path_46624" data-name="Path 46624" d="M2224.525,425.417a3.847,3.847,0,0,0,.579-.005c.316-.049.353.124.349.367a1.815,1.815,0,1,1-2.629-1.841,1.784,1.784,0,0,1,1.933.133c.1.065.261.143.22.254a.954.954,0,0,1-.3.329c-.082.069-.114-.042-.158-.08a1.274,1.274,0,0,0-1.761.093,1.386,1.386,0,0,0,.007,1.857,1.321,1.321,0,0,0,1.8.076.674.674,0,0,0,.085-.087c.117-.155.269-.335.189-.515-.059-.132-.277-.038-.423-.049a2.5,2.5,0,0,0-.488,0c-.24.029-.3-.057-.3-.295,0-.213.077-.253.263-.241C2224.1,425.428,2224.311,425.417,2224.525,425.417Z" transform="translate(-2221.839 -423.714)"/>
          <path id="Path_46625" data-name="Path 46625" d="M2276.6,426.512c0-.508.007-1.015,0-1.523,0-.185.027-.27.244-.264.559.016,1.12.021,1.678,0,.255-.01.217.13.221.283s.021.29-.225.273c-.365-.026-.732,0-1.1-.01-.186-.006-.264.027-.263.242,0,.739-.007.739.739.739a2.849,2.849,0,0,0,.4,0c.262-.037.322.071.313.318-.007.2-.078.235-.253.228-.3-.012-.61.008-.915-.007-.2-.01-.282.033-.28.259.007.723,0,.723.726.723h.55c.289,0,.4.176.307.456-.04.116-.126.081-.2.081-.58,0-1.16,0-1.74.005-.17,0-.2-.065-.2-.215C2276.6,427.568,2276.6,427.04,2276.6,426.512Z" transform="translate(-2272.47 -424.647)"/>
          <path id="Path_46626" data-name="Path 46626" d="M2378.336,426.861c0-.436-.007-.873,0-1.308,0-.16-.042-.217-.2-.2-.141.013-.284,0-.427,0-.339,0-.408-.092-.337-.428a.121.121,0,0,1,.142-.114q1.1,0,2.2,0c.24,0,.143.179.146.285s.089.267-.134.258a.755.755,0,0,0-.092,0c-.24.019-.561-.107-.7.053-.117.136-.032.446-.032.679,0,.67-.01,1.339,0,2.008,0,.228-.041.314-.294.312s-.286-.082-.278-.3C2378.347,427.694,2378.336,427.277,2378.336,426.861Z" transform="translate(-2365.639 -424.728)"/>
          <path id="Path_46627" data-name="Path 46627" d="M2310.652,426.8c0-.426-.012-.853.005-1.278.009-.21-.066-.264-.257-.244-.131.014-.267-.016-.4.006-.3.052-.344-.1-.331-.351.009-.167.062-.2.214-.2.691.007,1.383.015,2.073,0,.254-.007.21.136.22.287.011.175-.008.28-.235.268s-.568-.113-.7.043-.042.463-.042.7c0,.69-.013,1.38.006,2.069.007.25-.127.222-.282.22s-.3.039-.286-.216C2310.669,427.675,2310.652,427.238,2310.652,426.8Z" transform="translate(-2303.058 -424.658)"/>
          <path id="Path_46628" data-name="Path 46628" d="M2364.693,426.542c0,.518-.015,1.036.007,1.553.01.25-.11.249-.291.244-.161,0-.28.015-.277-.226q.023-1.568,0-3.137c0-.274.151-.214.3-.228.186-.017.269.026.261.241C2364.681,425.506,2364.693,426.025,2364.693,426.542Z" transform="translate(-2353.419 -424.668)"/>
          <g id="Group_40369" data-name="Group 40369" transform="translate(15.558 0.013)">
            <path id="Path_46629" data-name="Path 46629" d="M2430.309,423.892a1.862,1.862,0,1,0,1.851,1.847A1.826,1.826,0,0,0,2430.309,423.892Zm.025,3.181a1.321,1.321,0,1,1,1.26-1.319A1.243,1.243,0,0,1,2430.334,427.073Z" transform="translate(-2428.481 -423.892)"/>
          </g>
        </g>
      </g>
      <g id="Group_40372" data-name="Group 40372" transform="translate(-0.721 0.465)">
        <path id="Path_46630" data-name="Path 46630" d="M2046.82,453.055a.433.433,0,0,1,.241.129c.1.153.284.162.418.256.2.19.537.2.674.478a.269.269,0,0,1-.015.088c-.244.315-.561.563-.833.852-.221.208-.436.421-.65.635-.316.281-.583.612-.927.864a.185.185,0,0,1-.089,0c-.411-.314-.735-.717-1.132-1.046a7.617,7.617,0,0,0-.718-.693c-.181-.285-.512-.423-.71-.691a11.129,11.129,0,0,0-.818-.827c-.319-.318-.643-.631-.967-.944-.268-.291-.642-.479-.858-.822a.417.417,0,0,1-.056-.172c0-.148.111-.213.221-.278.344-.2.685-.41,1.032-.608.065-.02.119.015.176.033.158.043.268.178.427.219a3.6,3.6,0,0,0,.562.306c.089.06.161.15.284.148a.057.057,0,0,1,.054.019.851.851,0,0,0,.4.233.057.057,0,0,1,.054.019,1.341,1.341,0,0,0,.331.223,1.444,1.444,0,0,0,.26.127,1.506,1.506,0,0,0,.444.247,3.246,3.246,0,0,0,.449.252,3.116,3.116,0,0,0,.45.251,3.57,3.57,0,0,0,.562.306c.089.06.161.151.285.148a.057.057,0,0,1,.054.019C2046.547,452.914,2046.65,453.04,2046.82,453.055Z" transform="translate(-2037.794 -448.686)" fill="#00ef76"/>
        <path id="Path_46631" data-name="Path 46631" d="M2007.854,452.169a.776.776,0,0,1-.042-.4q0-6.422,0-12.845a1.421,1.421,0,0,1,.066-.558c.243-.047.245.157.289.287.165.487.283.987.418,1.483q1.225,4.5,2.454,9.008c.049.182.122.358.16.542a.3.3,0,0,1,0,.1,4.734,4.734,0,0,1-.663.716c-.1.075-.184.217-.349.118a.638.638,0,0,1-.167-.334c-.675-2.437-1.33-4.88-2-7.317a2.5,2.5,0,0,1-.057-.254c0,1.322,0,2.7,0,4.087.026,1.623.009,3.245.01,4.867C2007.968,451.839,2008.009,452.027,2007.854,452.169Z" transform="translate(-2007.806 -437.701)" fill="#00d5fe"/>
        <path id="Path_46632" data-name="Path 46632" d="M2011.98,445.328c-.318-.875-.521-1.782-.767-2.676-.769-2.8-1.527-5.594-2.3-8.389-.033-.121-.032-.283-.212-.32a.581.581,0,0,1,.239-.379c.22.071.327.275.5.406.13.16.327.248.462.4a.27.27,0,0,1,.052.181,7.118,7.118,0,0,0,.344,1.431c.567,2.125,1.154,4.244,1.734,6.366.21.768.417,1.536.634,2.3A1,1,0,0,1,2011.98,445.328Z" transform="translate(-2008.634 -433.278)" fill="#00d0fe"/>
        <path id="Path_46633" data-name="Path 46633" d="M2008.409,551.67q.006-2.4.012-4.8c0-.209,0-.419,0-.628.162-.016.2.109.228.215.413,1.524.858,3.04,1.231,4.574a3.281,3.281,0,0,1-1.221,1.216A.713.713,0,0,1,2008.409,551.67Z" transform="translate(-2008.361 -537.202)" fill="#00defd"/>
        <path id="Path_46634" data-name="Path 46634" d="M2137.466,496.254l.019-.061a.241.241,0,0,1,.13-.113l.4.234c.408.194.345.545.338.9-.017.911-.006,1.822-.005,2.733,0,.508.027.523.483.272.047-.026.091-.055.137-.082.221-.08.394-.266.647-.273a.136.136,0,0,1,.082.057c-.679.418-1.381.8-2.091,1.165a.156.156,0,0,1-.1-.066.313.313,0,0,1-.032-.114C2137.529,499.354,2137.542,497.8,2137.466,496.254Z" transform="translate(-2127.176 -490.94)" fill="#fec900"/>
        <path id="Path_46635" data-name="Path 46635" d="M2144.938,502.946c-.174.216-.462.242-.667.413a.81.81,0,0,1-.108-.439c0-1.035,0-2.07,0-3.106a.41.41,0,0,1,.006-.156c.1-.222.021-.354-.2-.43-.053-.018-.13-.055-.044-.131l.81.448c.067.122.283.133.257.325-.039.912-.01,1.823-.016,2.735A.691.691,0,0,1,2144.938,502.946Z" transform="translate(-2133.085 -493.724)" fill="#fecd00"/>
        <path id="Path_46636" data-name="Path 46636" d="M2156.4,510.4a.569.569,0,0,1-.066-.3c0-.846,0-1.691,0-2.537a2.2,2.2,0,0,1,.062-.367c.062-.044.1.024.154.031a1.817,1.817,0,0,0,.291.156l.068.068a1.231,1.231,0,0,1,.349.19.249.249,0,0,1,.034.083c-.021.743-.005,1.485-.008,2.228-.054.138-.2.133-.308.2C2156.766,510.2,2156.621,510.386,2156.4,510.4Z" transform="translate(-2144.545 -501.181)" fill="#fed200"/>
        <path id="Path_46637" data-name="Path 46637" d="M2011.632,590.506c.4-.383.809-.759,1.173-1.177.074-.089.118-.218.276-.194.235.122.459.261.682.4a.485.485,0,0,0,.562.021c.3-.179.617-.326.913-.51s.611-.321.9-.5c.423-.235.852-.462,1.273-.7a.557.557,0,0,1,.353-.12.133.133,0,0,1,.078.052c-.938.583-1.925,1.082-2.885,1.626-.693.393-1.389.782-2.092,1.159A.982.982,0,0,1,2011.632,590.506Z" transform="translate(-2011.328 -575.465)" fill="#e22751"/>
        <path id="Path_46638" data-name="Path 46638" d="M2167.21,515.731a14.558,14.558,0,0,1,0-2.268c.094-.071.16.027.24.038a1.449,1.449,0,0,1,.215.129.415.415,0,0,0,.254.109c.727.486.921,1.033.217,1.56a.937.937,0,0,0-.279.14C2167.64,515.531,2167.476,515.74,2167.21,515.731Z" transform="translate(-2154.52 -506.95)" fill="#fed700"/>
        <path id="Path_46639" data-name="Path 46639" d="M2023.091,436.7l-.057-.12c-.033-.164.112-.2.207-.269a2.554,2.554,0,0,0,.461-.319.224.224,0,0,1,.12-.059.45.45,0,0,1,.242.128.22.22,0,0,0,.209.123.43.43,0,0,1,.243.128c.018.063.065.123.029.194-.267.272-.655.378-.925.647A.582.582,0,0,1,2023.091,436.7Z" transform="translate(-2021.822 -435.465)" fill="#08e275"/>
        <path id="Path_46640" data-name="Path 46640" d="M2012.169,431.322a2.4,2.4,0,0,1-.457-.447l.109-.13a1.186,1.186,0,0,1,.873-.025.093.093,0,0,1,.08.049C2012.671,431.056,2012.336,431.1,2012.169,431.322Z" transform="translate(-2011.402 -430.589)" fill="#10d874"/>
        <path id="Path_46641" data-name="Path 46641" d="M2095.5,578.089a4.951,4.951,0,0,1-.9.5.071.071,0,0,1-.086,0c-.023-.1.058-.135.115-.187.267-.121.481-.353.8-.37A.147.147,0,0,1,2095.5,578.089Z" transform="translate(-2087.622 -566.531)" fill="#ea2d4d"/>
        <path id="Path_46642" data-name="Path 46642" d="M2118.3,565.11a4.863,4.863,0,0,1-.9.5.079.079,0,0,1-.087,0c.009-.2.214-.2.316-.305.2-.078.354-.272.6-.253A.146.146,0,0,1,2118.3,565.11Z" transform="translate(-2108.619 -554.559)" fill="#f2314a"/>
        <path id="Path_46643" data-name="Path 46643" d="M2164.729,539l.645-.316a.052.052,0,0,1,.087.012,5.155,5.155,0,0,1-.9.5l-.086-.012Z" transform="translate(-2152.039 -530.218)" fill="#fecd00"/>
        <path id="Path_46644" data-name="Path 46644" d="M2106.907,571.911l.082.01a4.964,4.964,0,0,1-.9.5l-.081-.01c0-.157.157-.164.238-.244C2106.469,572.1,2106.615,571.825,2106.907,571.911Z" transform="translate(-2098.212 -560.867)" fill="#ee2f4c"/>
        <path id="Path_46645" data-name="Path 46645" d="M2128.823,560.316l-.084-.011c.027-.2.242-.192.354-.3.133-.061.243-.188.415-.14l.063.043A4.017,4.017,0,0,1,2128.823,560.316Z" transform="translate(-2119.142 -549.764)" fill="#f43349"/>
        <path id="Path_46646" data-name="Path 46646" d="M2130.286,491.286l-.13.113c-.062-.175-.234-.22-.374-.3-.1-.057-.22-.081-.277-.193a.04.04,0,0,1,.069,0Z" transform="translate(-2119.848 -486.146)" fill="#31ea8c"/>
        <path id="Path_46647" data-name="Path 46647" d="M2014.014,430.046a2.055,2.055,0,0,0-.929,0,.869.869,0,0,1,.929-.04c.018.01.024.02.018.029S2014.02,430.046,2014.014,430.046Z" transform="translate(-2012.666 -429.887)" fill="#49df95"/>
        <path id="Path_46648" data-name="Path 46648" d="M2064.284,453.939a1.451,1.451,0,0,1-.581-.315.049.049,0,0,1,.077-.005,2.652,2.652,0,0,1,.573.317A.041.041,0,0,1,2064.284,453.939Z" transform="translate(-2059.267 -451.761)" fill="#2edf85"/>
        <path id="Path_46649" data-name="Path 46649" d="M2105.7,477.437a1.445,1.445,0,0,1-.581-.315.05.05,0,0,1,.078-.006,2.635,2.635,0,0,1,.572.317A.041.041,0,0,1,2105.7,477.437Z" transform="translate(-2097.394 -473.434)" fill="#2edf85"/>
        <path id="Path_46650" data-name="Path 46650" d="M2052.546,447.107l-.128-.063a.424.424,0,0,1-.349-.219.1.1,0,0,1,.025-.078l.523.3C2052.607,447.08,2052.569,447.085,2052.546,447.107Z" transform="translate(-2048.556 -445.438)" fill="#30d582"/>
        <path id="Path_46651" data-name="Path 46651" d="M2089.4,584.858l.079.009a1.224,1.224,0,0,1-.452.252l-.078-.009A.338.338,0,0,1,2089.4,584.858Z" transform="translate(-2082.51 -572.808)" fill="#e82b4f"/>
        <path id="Path_46652" data-name="Path 46652" d="M2093.943,470.546a1.006,1.006,0,0,1-.45-.25c-.022-.013-.029-.024-.021-.036s.015-.016.023-.016l.524.3A.048.048,0,0,1,2093.943,470.546Z" transform="translate(-2086.67 -467.11)" fill="#2ed982"/>
        <path id="Path_46653" data-name="Path 46653" d="M2099.442,474.068l.077-.005a1.665,1.665,0,0,1,.451.252l-.077.005A1,1,0,0,1,2099.442,474.068Z" transform="translate(-2092.169 -470.633)" fill="#2ede85"/>
        <path id="Path_46654" data-name="Path 46654" d="M2088.269,467.3c0,.017,0,.035,0,.052a.785.785,0,0,1-.452-.255c-.021-.012-.028-.022-.019-.032a.029.029,0,0,1,.023-.014Z" transform="translate(-2081.444 -464.161)" fill="#32ea8c"/>
        <path id="Path_46655" data-name="Path 46655" d="M2028.091,433.195l-.072.069a.373.373,0,0,1-.353-.221.105.105,0,0,1,.028-.079A1.208,1.208,0,0,1,2028.091,433.195Z" transform="translate(-2026.09 -432.725)" fill="#36cf83"/>
        <path id="Path_46656" data-name="Path 46656" d="M2058.085,450.626l.072-.064a1.645,1.645,0,0,1,.451.252l-.077.005C2058.355,450.813,2058.254,450.646,2058.085,450.626Z" transform="translate(-2054.094 -448.957)" fill="#2fdd85"/>
        <path id="Path_46657" data-name="Path 46657" d="M2041.437,440.947c-.008-.042-.076-.079-.009-.126a.836.836,0,0,1,.4.25l-.034.031A.305.305,0,0,1,2041.437,440.947Z" transform="translate(-2038.732 -439.972)" fill="#37e28b"/>
        <path id="Path_46658" data-name="Path 46658" d="M2125.041,488.069l-.069,0c-.149-.06-.342-.056-.391-.259A1.7,1.7,0,0,1,2125.041,488.069Z" transform="translate(-2115.314 -483.315)" fill="#32e98c"/>
        <path id="Path_46659" data-name="Path 46659" d="M2075.516,459.915c-.2.04-.31-.081-.4-.232A1.245,1.245,0,0,1,2075.516,459.915Z" transform="translate(-2069.777 -457.369)" fill="#32e389"/>
        <path id="Path_46660" data-name="Path 46660" d="M2047.141,444.251c0,.017,0,.034,0,.051-.228.048-.394-.009-.451-.251l.008-.01A1.093,1.093,0,0,1,2047.141,444.251Z" transform="translate(-2043.602 -442.942)" fill="#35e48b"/>
        <path id="Path_46661" data-name="Path 46661" d="M2116.931,483.414c-.205.043-.31-.08-.4-.23A1.279,1.279,0,0,1,2116.931,483.414Z" transform="translate(-2107.904 -479.045)" fill="#32e68a"/>
        <path id="Path_46662" data-name="Path 46662" d="M2081.128,463.167a.413.413,0,0,1-.323-.239,1.367,1.367,0,0,1,.4.231C2081.185,463.194,2081.158,463.2,2081.128,463.167Z" transform="translate(-2075.011 -460.362)" fill="#32e68b"/>
        <path id="Path_46663" data-name="Path 46663" d="M2154.889,505.12l-.129-.058c-.066-.067-.226-.04-.2-.195a.917.917,0,0,1,.335.186c.021.015.029.03.021.045S2154.9,505.12,2154.889,505.12Z" transform="translate(-2142.908 -499.045)" fill="#fdd832"/>
        <path id="Path_46664" data-name="Path 46664" d="M2163.944,510.78a.691.691,0,0,1-.323-.184c.173-.027.284.084.4.176A.046.046,0,0,1,2163.944,510.78Z" transform="translate(-2151.256 -504.325)" fill="#f1d232"/>
        <path id="Path_46665" data-name="Path 46665" d="M2158.787,507.335v-.067a.534.534,0,0,1,.315.194C2158.97,507.485,2158.886,507.391,2158.787,507.335Z" transform="translate(-2146.805 -501.259)" fill="#f1cf31"/>
        <path id="Path_46666" data-name="Path 46666" d="M2071.023,457.9l.069,0a.334.334,0,0,1,.2.12C2071.154,458.083,2071.094,457.978,2071.023,457.9Z" transform="translate(-2066.006 -455.717)" fill="#31e288"/>
        <path id="Path_46667" data-name="Path 46667" d="M2036.277,437.709c-.116.035-.214.038-.209-.123A.36.36,0,0,1,2036.277,437.709Z" transform="translate(-2033.825 -436.988)" fill="#39d988"/>
        <path id="Path_46668" data-name="Path 46668" d="M2025.047,431.492a.43.43,0,0,0,0,.05c-.11.071-.186.019-.254-.065,0-.022,0-.043,0-.065s0-.029,0-.044Z" transform="translate(-2023.442 -431.253)" fill="#41e191"/>
        <path id="Path_46669" data-name="Path 46669" d="M2112.438,481.395l.069,0a.334.334,0,0,1,.2.12C2112.573,481.572,2112.506,481.482,2112.438,481.395Z" transform="translate(-2104.134 -477.392)" fill="#31e389"/>
        <path id="Path_46670" data-name="Path 46670" d="M2170.822,514.182l-.2-.123c-.02-.013-.026-.025-.018-.035a.03.03,0,0,1,.022-.015.637.637,0,0,1,.277.164C2170.882,514.21,2170.854,514.213,2170.822,514.182Z" transform="translate(-2157.683 -507.477)" fill="#dec32d"/>
        <path id="Path_46671" data-name="Path 46671" d="M2084.872,465.915l.081-.008.177.089c0,.015,0,.031,0,.046A.367.367,0,0,1,2084.872,465.915Z" transform="translate(-2078.756 -463.11)" fill="#31f290"/>
        <path id="Path_46672" data-name="Path 46672" d="M2167.952,512.991c0,.017,0,.033,0,.05l-.25-.069c0-.02,0-.039,0-.059l.081-.008Z" transform="translate(-2155.006 -506.459)" fill="#fedd31"/>
        <path id="Path_46673" data-name="Path 46673" d="M2175.926,537.528l-.087-.012a.326.326,0,0,1,.283-.116A.3.3,0,0,1,2175.926,537.528Z" transform="translate(-2162.504 -529.051)" fill="#fed200"/>
        <path id="Path_46674" data-name="Path 46674" d="M2173.365,516.126l.084-.01.179.094C2173.506,516.28,2173.44,516.19,2173.365,516.126Z" transform="translate(-2160.226 -509.42)" fill="#fede30"/>
        <path id="Path_46675" data-name="Path 46675" d="M2040.115,463.641l.848.814c.535,2.168,1.147,4.315,1.745,6.466a.927.927,0,0,1,.054.213c-.024.224-.209.333-.354.471a.176.176,0,0,1-.2.02,1.237,1.237,0,0,1-.292-.652c-.614-2.281-1.24-4.558-1.861-6.836C2040.013,463.975,2039.881,463.78,2040.115,463.641Z" transform="translate(-2037.427 -461.02)" fill="#00c6fe"/>
        <path id="Path_46676" data-name="Path 46676" d="M2053.378,480.851c-.464-1.448-.814-2.926-1.222-4.388-.187-.671-.364-1.346-.548-2.018-.03-.111-.074-.221.026-.321a8.845,8.845,0,0,1,.966.943,13.874,13.874,0,0,0,.477,1.953c.273,1.1.623,2.18.874,3.286a.409.409,0,0,1-.131.256C2053.672,480.657,2053.608,480.876,2053.378,480.851Z" transform="translate(-2048.099 -470.689)" fill="#00c2fe"/>
        <path id="Path_46677" data-name="Path 46677" d="M2032.732,456.144c-.132.189,0,.367.042.537q.912,3.383,1.841,6.76a2.393,2.393,0,0,0,.257.672c-.1.181-.149.407-.433.388a.558.558,0,0,1-.177-.326c-.6-2.171-1.186-4.345-1.781-6.517-.15-.545-.295-1.092-.447-1.637-.047-.166-.134-.34,0-.51.322.042.457.309.646.511Z" transform="translate(-2030.043 -453.523)" fill="#00c9fe"/>
        <path id="Path_46678" data-name="Path 46678" d="M2127.733,498.315a.587.587,0,0,1,.145.46c0,1.273,0,2.545,0,3.818a3.216,3.216,0,0,1-.067.461,1.621,1.621,0,0,1-.851-.866c-.036-.811-.008-1.622-.016-2.433a3.056,3.056,0,0,0-.046-.621A8.73,8.73,0,0,1,2127.733,498.315Z" transform="translate(-2117.443 -493.001)" fill="#fec500"/>
        <path id="Path_46679" data-name="Path 46679" d="M2064.4,491.551q-.68-2.507-1.357-5.014c-.025-.092-.15-.223.064-.268a5.312,5.312,0,0,1,.828.822c.294,1.222.653,2.427.978,3.641a1.034,1.034,0,0,1,.06.275A.751.751,0,0,1,2064.4,491.551Z" transform="translate(-2058.604 -481.891)" fill="#00befe"/>
        <path id="Path_46680" data-name="Path 46680" d="M2098.983,530.008a7.431,7.431,0,0,0,.773.754c0,.017,0,.034,0,.051l-.383.188c-.083.03-.144-.018-.206-.057-.818-.5-1.665-.952-2.484-1.452-.117-.071-.253-.127-.26-.292a.3.3,0,0,1,.069-.168,4.043,4.043,0,0,1,.753-.674l.051,0c.3.116.453.389.68.582.119.1.225.216.338.324C2098.531,529.517,2098.837,529.693,2098.983,530.008Z" transform="translate(-2089.391 -520.711)" fill="#fe3a44"/>
        <path id="Path_46681" data-name="Path 46681" d="M2119.3,512.03a6.327,6.327,0,0,1-.709-.692,1.05,1.05,0,0,1-.1-.574c.009-.423-.023-.847.021-1.27a5.229,5.229,0,0,1,.643-.628c.173.021.146.151.146.262Q2119.3,510.578,2119.3,512.03Z" transform="translate(-2109.709 -502.732)" fill="#fec100"/>
        <path id="Path_46682" data-name="Path 46682" d="M2075.353,500.816q-.5-1.815-.993-3.631c-.031-.112-.073-.219.013-.325.206.258.54.391.708.688.162.788.413,1.553.612,2.332a1.953,1.953,0,0,1,.112.519.734.734,0,0,1-.362.435A.081.081,0,0,1,2075.353,500.816Z" transform="translate(-2069.043 -491.66)" fill="#00b9fe"/>
        <path id="Path_46683" data-name="Path 46683" d="M2031.263,443.968a2.207,2.207,0,0,1-.588-.509c-.119-.075-.252-.139-.249-.308.1-.316.451-.34.668-.521.078-.065.2-.078.241-.188l.382.134a.785.785,0,0,0,.451.251l.325.246a5.54,5.54,0,0,1-1.019.653C2031.377,443.791,2031.264,443.83,2031.263,443.968Z" transform="translate(-2028.631 -441.467)" fill="#04e975"/>
        <path id="Path_46684" data-name="Path 46684" d="M2083.393,508.6c-.222-.83-.45-1.659-.66-2.492-.031-.122-.205-.268,0-.4a3.916,3.916,0,0,1,.71.7c.148.483.24.982.4,1.462.033.1.073.2,0,.3l-.071.108C2083.69,508.433,2083.633,508.62,2083.393,508.6Z" transform="translate(-2076.697 -499.825)" fill="#00b5fe"/>
        <path id="Path_46685" data-name="Path 46685" d="M2108.327,516.953c.1.062.08.162.079.253,0,.53,0,1.061,0,1.591a11.046,11.046,0,0,1-.977-.959A9.208,9.208,0,0,1,2108.327,516.953Z" transform="translate(-2099.519 -510.192)" fill="#febd00"/>
        <path id="Path_46686" data-name="Path 46686" d="M2092.686,516.443c-.138-.5-.274-1-.415-1.5-.026-.092-.066-.178.014-.262a9.842,9.842,0,0,1,1.107,1.064Z" transform="translate(-2085.537 -508.1)" fill="#01affd"/>
        <path id="Path_46687" data-name="Path 46687" d="M2010.29,499.568l-.252.188q-.612-2.225-1.225-4.45c-.038-.136-.034-.295-.187-.378v-4.321a2.152,2.152,0,0,1,.36.979c.645,2.313,1.264,4.633,1.894,6.95a2.2,2.2,0,0,0,.124.288A1.4,1.4,0,0,1,2010.29,499.568Z" transform="translate(-2008.561 -485.892)" fill="#00d9fe"/>
        <path id="Path_46688" data-name="Path 46688" d="M2052.35,576.223a9,9,0,0,1-1.289.691,12.316,12.316,0,0,1-1.415-.78.161.161,0,0,1-.073-.24.409.409,0,0,1,0-.052,4.644,4.644,0,0,0,.645-.628c.041-.09.1-.159.212-.148A16.847,16.847,0,0,1,2052.35,576.223Z" transform="translate(-2046.232 -563.792)" fill="#ee2f4c"/>
        <path id="Path_46689" data-name="Path 46689" d="M2029.6,594.786l.714-.744.253-.2a6.978,6.978,0,0,0,.963.621c.11.069.266.1.267.274a5.951,5.951,0,0,1-1.156.654.143.143,0,0,1-.119,0A4.4,4.4,0,0,1,2029.6,594.786Z" transform="translate(-2027.869 -581.11)" fill="#e82b4f"/>
        <path id="Path_46690" data-name="Path 46690" d="M2043.014,587.263a8.278,8.278,0,0,0-.975-.6c-.121-.074-.244-.136-.255-.3a5.186,5.186,0,0,1,.644-.629c0,.159.136.195.245.259a9.031,9.031,0,0,1,1.243.761A3.163,3.163,0,0,1,2043.014,587.263Z" transform="translate(-2039.088 -573.637)" fill="#ea2d4d"/>
        <path id="Path_46691" data-name="Path 46691" d="M2026.053,455.859l-.188.137a18.847,18.847,0,0,1-.633-2.16q-1.04-3.739-2.044-7.487c-.046-.17-.173-.349-.043-.538a1.8,1.8,0,0,0,.525.447l.249.308c-.132.19,0,.368.042.539.5,1.856,1.01,3.709,1.517,5.563.24.877.476,1.754.718,2.63a1.679,1.679,0,0,0,.119.257C2026.33,455.741,2026.209,455.815,2026.053,455.859Z" transform="translate(-2021.875 -444.574)" fill="#00ccfe"/>
        <path id="Path_46692" data-name="Path 46692" d="M2018.052,432.767l.254.065c.061.142.243.134.325.249-.067.205-.281.232-.428.341-.1.074-.236.107-.288.237a1.593,1.593,0,0,1-.446-.383C2017.53,432.961,2017.858,432.938,2018.052,432.767Z" transform="translate(-2016.702 -432.543)" fill="#0cdc75"/>
        <path id="Path_46693" data-name="Path 46693" d="M2060.451,566.247l.263-.3.386-.39.125-.061c.542.433,1.189.7,1.766,1.077.124.081.314.114.3.321l-.129.123a.935.935,0,0,0-.451.251l-.322.129A14.18,14.18,0,0,1,2060.451,566.247Z" transform="translate(-2056.273 -554.962)" fill="#f2314a"/>
        <path id="Path_46694" data-name="Path 46694" d="M2072.277,558.667a13.478,13.478,0,0,0-1.449-.9c-.219-.143-.547-.171-.617-.495l.326-.367.383-.325c.635.5,1.383.813,2.058,1.246.122.078.273.125.331.277l-.257.186C2072.765,558.361,2072.55,558.571,2072.277,558.667Z" transform="translate(-2065.258 -546.74)" fill="#f43349"/>
        <path id="Path_46695" data-name="Path 46695" d="M2081.531,549.874q-1.1-.63-2.193-1.26a.323.323,0,0,1-.2-.264l.133-.178a3.05,3.05,0,0,0,.516-.5.423.423,0,0,0,.059-.011,5.647,5.647,0,0,1,.807.452c.5.291,1,.569,1.5.866.136.082.324.128.345.331-.056.146-.239.136-.322.25C2081.93,549.6,2081.762,549.8,2081.531,549.874Z" transform="translate(-2073.481 -538.513)" fill="#f83647"/>
        <path id="Path_46696" data-name="Path 46696" d="M2090.7,541.061c-.709-.515-1.512-.882-2.251-1.35-.141-.089-.309-.143-.4-.3l.328-.367.381-.327c0,.14.109.185.213.245q1.222.7,2.439,1.41a2.909,2.909,0,0,1,.254.185l-.386.25C2091.059,540.822,2090.931,541.05,2090.7,541.061Z" transform="translate(-2081.688 -530.267)" fill="#fa3745"/>
      </g>
    </g>
  </g>
</svg>
