<svg xmlns="http://www.w3.org/2000/svg" width="425.588" height="190.672" viewBox="0 0 425.588 190.672">
  <g id="Group_39372" data-name="Group 39372" transform="translate(-201.308 -1980.983)">
    <path id="Path_10522" data-name="Path 10522" d="M4161.5,1419.443c0,7.279-95.271,13.18-212.794,13.18s-212.794-5.9-212.794-13.18,95.271-13.181,212.794-13.181S4161.5,1412.164,4161.5,1419.443Z" transform="translate(-3534.603 735.983)" fill="#d6dfdd"/>
    <g id="Group_39308" data-name="Group 39308" transform="translate(515.37 2032.708)">
      <path id="Path_10603" data-name="Path 10603" d="M5608.288,1072.489s.776,1.77,1.519,1.548a6.666,6.666,0,0,1,2.192-.119c.462.051,1.969-.3,1.881.26s-2.46.7-2.955.818,1.286,1.383,1.411,1.867-2.364,3.292-3.476,2.287-1.572-2.813-1.806-2.951a13.888,13.888,0,0,1-1.255-1.578Z" transform="translate(-5562.397 -1020.101)" fill="#eea886"/>
      <path id="Path_10604" data-name="Path 10604" d="M5626.876,1095.872s3.18,3.3,3.19,3.7-.194.561-.506.265-3.173-3.1-3.173-3.1,3.047,4.546,3.131,4.868c.05.188-.33.525-.513.382s-3.479-4.472-3.479-4.472,2.836,4.25,2.82,4.543a.383.383,0,0,1-.671.185c-.233-.3-3.106-4.092-3.106-4.092s1.855,3.227,1.691,3.474c-.1.151-.415.457-.866-.392s-1.739-2.732-1.739-2.732Z" transform="translate(-5577.138 -1039.404)" fill="#eea886"/>
      <g id="Group_39296" data-name="Group 39296" transform="translate(2.262 114.456)">
        <path id="Path_10605" data-name="Path 10605" d="M5374.232,1428.236s-1.218.87-1.893,1.479a6.359,6.359,0,0,0-2.158,2.828,1.945,1.945,0,0,0,1.852,2.8c1.524.093,3.86-1.058,4.087-2.453s2.016-1.219,2.249-2.2a5.371,5.371,0,0,0-.078-2.193Z" transform="translate(-5370.009 -1428.236)" fill="#353a3d"/>
      </g>
      <g id="Group_39297" data-name="Group 39297" transform="translate(6.486 113.314)">
        <path id="Path_10606" data-name="Path 10606" d="M5394.419,1421.687l-.2,1.143s.627,1.161,4.058.258l-.177-1.126Z" transform="translate(-5394.216 -1421.687)" fill="#81807e"/>
      </g>
      <path id="Path_10607" data-name="Path 10607" d="M5398.274,1428.367s-.772.1-1.323.188-1.641-.617-2.735-.446l.336,1.389S5398.2,1428.816,5398.274,1428.367Z" transform="translate(-5387.73 -1313.653)" fill="#353a3d"/>
      <g id="Group_39298" data-name="Group 39298" transform="translate(24.176 114.228)">
        <path id="Path_10608" data-name="Path 10608" d="M5499.833,1426.928s1.219.87,1.894,1.479a6.359,6.359,0,0,1,2.157,2.828,1.945,1.945,0,0,1-1.852,2.8c-1.524.093-3.859-1.058-4.087-2.453s-2.016-1.219-2.249-2.2a5.362,5.362,0,0,1,.078-2.193Z" transform="translate(-5495.609 -1426.928)" fill="#353a3d"/>
      </g>
      <g id="Group_39299" data-name="Group 39299" transform="translate(24.341 113.086)">
        <path id="Path_10609" data-name="Path 10609" d="M5500.411,1420.381l.2,1.142s-.627,1.162-4.059.258l.177-1.126Z" transform="translate(-5496.556 -1420.381)" fill="#81807e"/>
      </g>
      <g id="Group_39300" data-name="Group 39300" transform="translate(5.78 50.643)">
        <path id="Path_10610" data-name="Path 10610" d="M5414.228,1098.936c0,2.511-.359,26.2-.359,26.2-.251.837-4.942,1.111-5.78.693s-.69-23.912-.845-26.444-2.19-21.161-2.924-21.077-4.883,17.631-5.469,19.557-2.893,27.83-2.893,27.83a10.5,10.5,0,0,1-5.789.12s1.094-26.236,1.1-29.351c0-1.156.341-2.031.668-8.178.25-4.685,1.554-14.287,2.426-20.893.031-.235.06-.461.089-.677.171-1.286.3-2.23.361-2.684l.041-.3q.353-.163.737-.3c6.131-2.2,17.955.129,17.955.129s.006.058.02.167c.016.133.041.341.072.61.068.583.17,1.45.286,2.457,0,.007,0,.014,0,.022,0,.03.007.061.01.092.413,3.582.617,5.55.941,9.374C5414.946,1077.124,5414.228,1096.425,5414.228,1098.936Z" transform="translate(-5390.169 -1062.488)" fill="#292c47"/>
      </g>
      <g id="Group_39301" data-name="Group 39301" transform="translate(0 17.853)">
        <path id="Path_10611" data-name="Path 10611" d="M5380.682,874.655s10.04,2.132,10.876,4.922,2.462,9.343,4.724,16.47c1.352,4.264,8.225,13.975,8.225,13.975s-3.932,2.9-3.932,2.508-9.26-12.747-9.373-14.254-2.917-9.212-2.917-9.212-1.329,14.814-1.329,17.1.577,9.32.577,9.32-4.038,3.353-11.262,2.976c0,0-10.207.043-10.065-3.971.124-3.538,1-24.731.772-24.843s-4.232,4.909-3.841,5.876,10.763,4.433,10.763,4.433.3,1.117-1.308,3.648c0,0-15.495-4.528-15.551-5.476s6.445-19.372,8.568-20.337c3.057-1.388,11.154-3.241,11.154-3.241Z" transform="translate(-5357.042 -874.55)" fill="#f54242"/>
      </g>
      <path id="Path_10612" data-name="Path 10612" d="M5496.556,1427.059s.773.1,1.324.188,1.641-.617,2.735-.446l-.337,1.39S5496.632,1427.508,5496.556,1427.059Z" transform="translate(-5472.214 -1312.573)" fill="#353a3d"/>
      <g id="Group_39302" data-name="Group 39302" transform="translate(17.323 11.779)">
        <path id="Path_10613" data-name="Path 10613" d="M5463,846.148c-.049,2.452-5.679,5.034-5.679,5.034s-1.368-4.583-.894-4.822c.187-.094.246-.151.269-.568a8.761,8.761,0,0,0-.027-1.112c-.014-.174-.027-.285-.027-.285s.678-.716,1.541-1.568c1.509-1.491,3.667-3.7,3.671-2.939,0,.04.058.061.046.116C5461.539,841.714,5463,846.148,5463,846.148Z" transform="translate(-5456.331 -839.732)" fill="#eea886"/>
      </g>
      <g id="Group_39303" data-name="Group 39303" transform="translate(17.193 14.062)">
        <path id="Path_10614" data-name="Path 10614" d="M5460.278,852.819h0c-.01.014-.211.316-.555.748a9.957,9.957,0,0,1-3.64,3.028,8.582,8.582,0,0,0-.027-1.112,2.475,2.475,0,0,1-.472-.057,14.723,14.723,0,0,1,1.032-1.512l.953-.285Z" transform="translate(-5455.585 -852.819)" fill="#a77860"/>
      </g>
      <g id="Group_39304" data-name="Group 39304" transform="translate(13.991 4.022)">
        <path id="Path_10615" data-name="Path 10615" d="M5446.04,803.518c-.411.894-.8,1.541-.912,1.8h0a3.145,3.145,0,0,1-.554.748,5.478,5.478,0,0,1-3.667,1.916,2.5,2.5,0,0,1-.472-.057,2.241,2.241,0,0,1-1.633-1.129,12.843,12.843,0,0,1-.818-10.543s8.1-2.291,9.367.148C5448.239,798.11,5447,801.419,5446.04,803.518Z" transform="translate(-5437.232 -795.277)" fill="#eea886"/>
      </g>
      <g id="Group_39305" data-name="Group 39305" transform="translate(13.79 0)">
        <path id="Path_10616" data-name="Path 10616" d="M5437.032,777.22s-.752-.042-.938-1.468c-.184-1.409,1.636-2.379,1.636-2.379a10.3,10.3,0,0,1,3.1-1c1.2-.168,4.153-.357,4.846.435,0,0,1.681-.391,2.139,2.4.727,4.429-2.476,8.729-2.476,8.729s.027-2.893-.611-3.277-1.188.528-1.188.528l-1.306.234s1.85-3.576-.528-3.734A37.612,37.612,0,0,1,5437.032,777.22Z" transform="translate(-5436.08 -772.222)" fill="#223247"/>
      </g>
      <g id="Group_39306" data-name="Group 39306" transform="translate(21.239 6.591)">
        <path id="Path_10617" data-name="Path 10617" d="M5478.815,811.218c.125-1.275,2.43-1.761,2.275-.425s-1.29,2.62-1.814,2.575S5478.721,812.19,5478.815,811.218Z" transform="translate(-5478.774 -809.997)" fill="#eea886"/>
      </g>
      <g id="Group_39307" data-name="Group 39307" transform="translate(5.78 31.647)">
        <path id="Path_10618" data-name="Path 10618" d="M5406.413,956.123l-3.773,19.429-12.47-2.422,3.286-19.523Z" transform="translate(-5390.17 -953.606)" fill="#616161"/>
        <path id="Path_10619" data-name="Path 10619" d="M5409.646,962.877l-3.352,17.255-11.075-2.151,2.919-17.339Z" transform="translate(-5394.339 -959.415)" fill="#e0cec7"/>
        <path id="Path_10620" data-name="Path 10620" d="M5435.77,962.249l.235-1.211-4.477-.87-.411,1.177Z" transform="translate(-5423.973 -959.023)" fill="#616161"/>
      </g>
      <path id="Path_10621" data-name="Path 10621" d="M5469.27,1018.932s.953-.026,1.245-.068.1.578-.239.7S5469.27,1018.932,5469.27,1018.932Z" transform="translate(-5449.689 -975.829)" fill="#c98462"/>
      <path id="Path_10622" data-name="Path 10622" d="M5450.464,1023.47a1.953,1.953,0,0,1-.62.056s-.364-.11-.628-.172a1.878,1.878,0,0,0-.206-.039,3.569,3.569,0,0,1-1.125-.189c-.471-.184-2.072-1-2.072-1l.458-1.488.345-1.179a16.778,16.778,0,0,1,3.165-.6,1.182,1.182,0,0,1,.128.042,4.5,4.5,0,0,1,.793.5c.07.036.74.438.775.669a.763.763,0,0,1-.212.711,1.819,1.819,0,0,1-.167.989,1.132,1.132,0,0,1-.336.943S5450.779,1023.307,5450.464,1023.47Z" transform="translate(-5430.326 -975.814)" fill="#eea886"/>
      <path id="Path_10623" data-name="Path 10623" d="M5386.325,936.628a11.379,11.379,0,0,1-1.946,4.465s-10.741-4.367-12.1-4.9,4.924-17.22,4.924-17.22l4.621,1.573-2.482,4.694s-1.229,2.63-3.785,6.955C5375.561,932.2,5377.134,933.689,5386.325,936.628Z" transform="translate(-5369.466 -893.369)" fill="#f54242"/>
      <path id="Path_10624" data-name="Path 10624" d="M5490.374,936.34s-.283,5.2,2.315,5.2,2.363-4.678,2.411-5.2Z" transform="translate(-5467.103 -907.706)" fill="#f54242"/>
      <path id="Path_10625" data-name="Path 10625" d="M5493.066,932.607h3.881v-.789Z" transform="translate(-5469.333 -903.973)" fill="#fff"/>
    </g>
    <g id="Group_39347" data-name="Group 39347" transform="translate(454.615 2035.875)">
      <g id="Group_39311" data-name="Group 39311" transform="translate(2.479 44.035)">
        <g id="Group_39310" data-name="Group 39310">
          <g id="Group_39309" data-name="Group 39309">
            <path id="Path_10626" data-name="Path 10626" d="M5003.608,1043.119s-1.182.761-1.86.336a4.5,4.5,0,0,0-1.9-.428c-.415-.021-1.664-.562-1.7-.038s2.017.99,2.428,1.173-1.4,1.065-1.6,1.486,1.426,3.329,2.6,2.58,1.924-2.32,2.156-2.411a8.5,8.5,0,0,0,.872-.511Z" transform="translate(-4998.154 -1042.761)" fill="#eea886"/>
          </g>
        </g>
      </g>
      <g id="Group_39312" data-name="Group 39312" transform="translate(37.713 109.708)">
        <path id="Path_10627" data-name="Path 10627" d="M5205.612,1419.255a47.565,47.565,0,0,1-3.565,4.684s-1.844.957-1.9,1.722c-.108,1.445-.237,2.793,2.188,2.861s4-.5,4.44-1.973a8.907,8.907,0,0,1,1.5-2.733v3.075h.546s.137-2.972.171-3.519.393-2.648-.76-3.579A3.2,3.2,0,0,0,5205.612,1419.255Z" transform="translate(-5200.099 -1419.173)" fill="#162d40"/>
      </g>
      <g id="Group_39313" data-name="Group 39313" transform="translate(39.309 108.706)">
        <path id="Path_10628" data-name="Path 10628" d="M5209.248,1419.4a6.121,6.121,0,0,0,2.871-.023c1.561-.393,3.058-4.127,3.514-4.438l.4-1.507H5213a6.462,6.462,0,0,1-.6,2.058A37.9,37.9,0,0,1,5209.248,1419.4Z" transform="translate(-5209.248 -1413.428)" fill="#eea886"/>
      </g>
      <g id="Group_39314" data-name="Group 39314" transform="translate(18.54 107.573)">
        <path id="Path_10629" data-name="Path 10629" d="M5097.736,1407.708a9.8,9.8,0,0,1-1.145,1.913c-.548.716-2.254,3.656-3.006,3.86s-3.074.615-3.28,1.913-.307,2.221,1.981,2.323,3.792.239,4.886-1.367a11.9,11.9,0,0,1,2.835-2.767v4.189h.889a37.955,37.955,0,0,1,.649-4.667c.239-.308.854-3.656-1.264-5.4S5097.736,1407.708,5097.736,1407.708Z" transform="translate(-5090.207 -1406.934)" fill="#162d40"/>
      </g>
      <g id="Group_39315" data-name="Group 39315" transform="translate(21.918 107.887)">
        <path id="Path_10630" data-name="Path 10630" d="M5109.571,1414.967s2.049.512,2.835,0,3.457-5.027,4.342-5.3c0,0-.858-1.74-3.027-.475C5113.722,1409.193,5110.151,1414.215,5109.571,1414.967Z" transform="translate(-5109.571 -1408.733)" fill="#eea886"/>
      </g>
      <g id="Group_39316" data-name="Group 39316" transform="translate(35.473 44.393)">
        <path id="Path_10631" data-name="Path 10631" d="M5196.174,1046.026a21.442,21.442,0,0,1,3.675,8.216c.784,4.458-.462,19.422-.429,21.625s2.042,9.232,1.632,13.383-2.653,21.3-2.653,21.3l-5.008-.09s1-18.7.747-20.437-1.071-9.155-1.174-9.873-5.706-19.689-5.706-22.9S5189.205,1040.782,5196.174,1046.026Z" transform="translate(-5187.257 -1044.813)" fill="#1d3b54"/>
      </g>
      <g id="Group_39317" data-name="Group 39317" transform="translate(22.916 46.134)">
        <path id="Path_10632" data-name="Path 10632" d="M5122.243,1055.735s-4.749,18.124-5.313,20.635-1.691,5.791-1.64,6.252.6,8.2.6,8.2l1.35,26.34h5.005s1.6-16.757,1.861-20.139-1.845-8.609-1.333-10.044,8.25-17.987,8.25-17.987S5136.881,1050.474,5122.243,1055.735Z" transform="translate(-5115.288 -1054.794)" fill="#1d3b54"/>
      </g>
      <g id="Group_39318" data-name="Group 39318" transform="translate(5.716 19.95)">
        <path id="Path_10633" data-name="Path 10633" d="M5042.331,904.716a6.449,6.449,0,0,0-3.963,1.64c-1.435,1.537-2.152,4.066-2.528,4.885s-5.124,8.4-5.4,8.575-5.1,4.065-7.286,6.149a38.444,38.444,0,0,1-6.448,4.407l1.605,2.255s12.948-6.9,14.588-9.429,8.371-9.395,8.371-9.395S5046.636,907.517,5042.331,904.716Z" transform="translate(-5016.708 -904.716)" fill="#eea886"/>
      </g>
      <g id="Group_39319" data-name="Group 39319" transform="translate(6.861 19.95)">
        <path id="Path_10634" data-name="Path 10634" d="M5047.746,904.716a6.448,6.448,0,0,0-3.962,1.64c-1.435,1.537-2.153,4.066-2.528,4.885s-5.124,8.4-5.4,8.575a60.56,60.56,0,0,0-6.414,4.97,46.5,46.5,0,0,1-6.175,4.535l2.333,2.972s11.094-6.158,12.9-8.566c1.935-2.573,8.182-9.924,8.182-9.924S5052.05,907.517,5047.746,904.716Z" transform="translate(-5023.268 -904.716)" fill="#285173"/>
      </g>
      <g id="Group_39320" data-name="Group 39320" transform="translate(26.363 18.489)">
        <path id="Path_10635" data-name="Path 10635" d="M5143.336,896.47a25.752,25.752,0,0,1-3.314,1.333c-.854.171-4.168,4.475-4.749,6.047s0,3.929,1.2,6.7.068,3.689.615,6.457a64.169,64.169,0,0,1,.922,10.163c-.1,1.538,13.818,1.828,17-.974,0,0-3.194-4.783-3.6-5.466s-.068-4.407.307-5.364,4.612-8.1,4.612-8.1.312-7.242-1.537-8.677c-1.605-1.247-5.982-1.692-6.767-1.965A13.418,13.418,0,0,0,5143.336,896.47Z" transform="translate(-5135.046 -896.341)" fill="#eddad3"/>
      </g>
      <g id="Group_39321" data-name="Group 39321" transform="translate(32.372 17.742)">
        <path id="Path_10636" data-name="Path 10636" d="M5170.983,898.422l-1.5-1.75,1.3-4.608A30.413,30.413,0,0,1,5170.983,898.422Z" transform="translate(-5169.488 -892.064)" fill="#d6c5be"/>
      </g>
      <g id="Group_39324" data-name="Group 39324" transform="translate(0 46.683)">
        <g id="Group_39323" data-name="Group 39323">
          <g id="Group_39322" data-name="Group 39322">
            <path id="Path_10637" data-name="Path 10637" d="M4987.484,1057.937a30.956,30.956,0,0,0-3.514,2.889c-.087.36.061.537.391.314s3.382-2.348,3.382-2.348-3.554,3.675-3.689,3.954c-.08.163.186.524.375.421s3.917-3.544,3.917-3.544-3.312,3.437-3.355,3.7a.329.329,0,0,0,.552.266c.263-.238,3.517-3.255,3.517-3.255s-2.253,2.654-2.157,2.9c.059.152.274.474.834-.229s2.055-2.222,2.055-2.222Z" transform="translate(-4983.945 -1057.937)" fill="#eea886"/>
          </g>
        </g>
      </g>
      <g id="Group_39325" data-name="Group 39325" transform="translate(29.412 0.725)">
        <path id="Path_10638" data-name="Path 10638" d="M5160.864,794.961c-1.461-.514-6.833-1.776-8.1,5.09s2.528,11.752,6.013,10.454,5.637-6.047,5.842-9.668A5.412,5.412,0,0,0,5160.864,794.961Z" transform="translate(-5152.519 -794.526)" fill="#eea886"/>
      </g>
      <g id="Group_39326" data-name="Group 39326" transform="translate(29.658 0.163)">
        <path id="Path_10639" data-name="Path 10639" d="M5153.936,797.393s-.264-5.876,5.579-6.081,7.413,4.6,6.935,8.11a8.58,8.58,0,0,1-2.9,5.354s.21-2.836-.924-3.573-5.676-2.205-7.658-5.622A5.247,5.247,0,0,0,5153.936,797.393Z" transform="translate(-5153.934 -791.306)" fill="#252e3b"/>
      </g>
      <g id="Group_39327" data-name="Group 39327" transform="translate(36.689)">
        <path id="Path_10640" data-name="Path 10640" d="M5194.488,796a3.934,3.934,0,1,0,2.31-5.455A4.207,4.207,0,0,0,5194.488,796Z" transform="translate(-5194.234 -790.372)" fill="#252e3b"/>
      </g>
      <g id="Group_39328" data-name="Group 39328" transform="translate(42.352 19.846)">
        <path id="Path_10641" data-name="Path 10641" d="M5227.571,904.224a4.282,4.282,0,0,1,4.877,2.528c1.777,3.416,1.332,5.261,1.742,6.8s2.05,11.821,2.152,12.265,1.674,5.671,1.469,7.277-1.674,13.768-1.606,14.178-2.835-.393-2.835-.393.12-12.418.018-13.443-.205-6.406-.974-7.789-2.665-9.839-3.075-10.71S5224.958,905.334,5227.571,904.224Z" transform="translate(-5226.688 -904.12)" fill="#eea886"/>
      </g>
      <g id="Group_39329" data-name="Group 39329" transform="translate(33.479 12.412)">
        <path id="Path_10642" data-name="Path 10642" d="M5175.83,864.88a58.671,58.671,0,0,1,.388,5.982s2.556,2.561,5.463-2.99a7.618,7.618,0,0,1-.3-5.406C5182.3,859.348,5175.83,864.88,5175.83,864.88Z" transform="translate(-5175.83 -861.513)" fill="#eea886"/>
      </g>
      <g id="Group_39330" data-name="Group 39330" transform="translate(45.579 64.67)">
        <path id="Path_10643" data-name="Path 10643" d="M5245.185,1166.438v-4.183a1.224,1.224,0,0,1,1.222-1.222h6.634a1.223,1.223,0,0,1,1.222,1.222v4.183a1.223,1.223,0,0,1-1.222,1.222h-6.634A1.223,1.223,0,0,1,5245.185,1166.438Zm1.222-4.585a.4.4,0,0,0-.4.4v4.183a.4.4,0,0,0,.4.4h6.634a.4.4,0,0,0,.4-.4v-4.183a.4.4,0,0,0-.4-.4Z" transform="translate(-5245.185 -1161.033)" fill="#0e1e2b"/>
      </g>
      <g id="Group_39335" data-name="Group 39335" transform="translate(47.367 60.409)">
        <g id="Group_39334" data-name="Group 39334">
          <g id="Group_39333" data-name="Group 39333">
            <g id="Group_39332" data-name="Group 39332">
              <g id="Group_39331" data-name="Group 39331">
                <path id="Path_10644" data-name="Path 10644" d="M5260.541,1143.08a2.378,2.378,0,0,0,.3-.7s.01-.464.036-.794a2.316,2.316,0,0,1,.032-.254,4.342,4.342,0,0,0,.2-1.378,29.2,29.2,0,0,0-.881-3.242l-1.548.054-1.457-.156a29.452,29.452,0,0,0-1.792,3.938,1.341,1.341,0,0,0,0,.166,5.568,5.568,0,0,0,.282,1.11c.016.095.231,1.025.486,1.152a.934.934,0,0,0,.906.021,2.229,2.229,0,0,0,1.212.179,1.386,1.386,0,0,0,1.223-.036S5260.234,1143.386,5260.541,1143.08Z" transform="translate(-5255.434 -1136.611)" fill="#eea886"/>
              </g>
            </g>
          </g>
        </g>
      </g>
      <g id="Group_39336" data-name="Group 39336" transform="translate(33.867 21.76)">
        <path id="Path_10645" data-name="Path 10645" d="M5178.055,915.094v2.34l2.942-2.2Z" transform="translate(-5178.055 -915.094)" fill="#eea886"/>
      </g>
      <g id="Group_39337" data-name="Group 39337" transform="translate(33.867 18.489)">
        <path id="Path_10646" data-name="Path 10646" d="M5178.055,901.953l1.222-1.512,4.113-4.1,1.332,1.282Z" transform="translate(-5178.055 -896.341)" fill="#d6c5be"/>
      </g>
      <g id="Group_39338" data-name="Group 39338" transform="translate(36.143 18.881)">
        <path id="Path_10647" data-name="Path 10647" d="M5194.732,898.59s-3.454,5.239-3.618,7.545,1.284,19.556,2.442,25.1,9.539-.625,9.539-.625-5.63-9.113-3.469-16.41S5203,902.059,5203,902.059a6.33,6.33,0,0,0-3.809-2.708C5196.857,898.991,5194.732,898.59,5194.732,898.59Z" transform="translate(-5191.101 -898.59)" fill="#285173"/>
      </g>
      <g id="Group_39339" data-name="Group 39339" transform="translate(26.068 19.426)">
        <path id="Path_10648" data-name="Path 10648" d="M5133.354,908.93a38.864,38.864,0,0,0,1.615,7.828s.445,5.534.376,7.482-.53,9.31-.53,9.31l2.4,1.405a.677.677,0,0,0,1.015-.666c-.68-5.6-2.89-26.86,1.885-32.574l-1.917.565S5134.254,905.957,5133.354,908.93Z" transform="translate(-5133.354 -901.715)" fill="#285173"/>
      </g>
      <g id="Group_39340" data-name="Group 39340" transform="translate(37.207 8.279)">
        <path id="Path_10649" data-name="Path 10649" d="M5197.758,838.366a.9.9,0,0,1,1.333-.383c.41.307.649,1.23,0,2.426S5196.152,842.438,5197.758,838.366Z" transform="translate(-5197.197 -837.826)" fill="#eea886"/>
      </g>
      <g id="Group_39341" data-name="Group 39341" transform="translate(30.489 17.742)">
        <path id="Path_10650" data-name="Path 10650" d="M5160.578,896.672l-1.883.52,3.181-5.128Z" transform="translate(-5158.695 -892.064)" fill="#fae6de"/>
      </g>
      <g id="Group_39342" data-name="Group 39342" transform="translate(35.088 18.489)">
        <path id="Path_10651" data-name="Path 10651" d="M5185.056,900.442l1.72,2.255,3.529-5.859-1.134-.5Z" transform="translate(-5185.056 -896.341)" fill="#fae6de"/>
      </g>
      <g id="Group_39343" data-name="Group 39343" transform="translate(42.287 19.846)">
        <path id="Path_10652" data-name="Path 10652" d="M5227.266,904.224a4.282,4.282,0,0,1,4.877,2.528,15.6,15.6,0,0,1,2.005,6.542c.224,1.575,2.39,10.932,2.492,11.376s.815,6.293.866,8.422c.038,1.618-.341,12.23-.273,12.64s-4.906-.718-4.906-.718.55-9.788.447-10.813-.32-6.134-.821-7.635c-.588-1.764-2.91-10.651-3.32-11.522S5224.652,905.334,5227.266,904.224Z" transform="translate(-5226.317 -904.12)" fill="#285173"/>
      </g>
      <g id="Group_39344" data-name="Group 39344" transform="translate(33.58 14.815)">
        <path id="Path_10653" data-name="Path 10653" d="M5176.41,877.242l.091.888s2.025.4,4.683-2.846A5.769,5.769,0,0,1,5176.41,877.242Z" transform="translate(-5176.41 -875.285)" fill="#a77860"/>
      </g>
      <g id="Group_39345" data-name="Group 39345" transform="translate(37.674 69.502)">
        <rect id="Rectangle_2719" data-name="Rectangle 2719" width="24.889" height="17.832" transform="translate(24.889 17.832) rotate(180)" fill="#54281a"/>
      </g>
      <g id="Group_39346" data-name="Group 39346" transform="translate(37.674 69.502)">
        <rect id="Rectangle_2720" data-name="Rectangle 2720" width="24.889" height="10.336" transform="translate(24.889 10.336) rotate(180)" fill="#873f2b"/>
      </g>
      <path id="Path_10654" data-name="Path 10654" d="M5133.784,951.131a12.38,12.38,0,0,1,.357-6.78,9.138,9.138,0,0,0,.375,5.9Z" transform="translate(-5107.379 -917.486)" fill="#1d3b54"/>
      <path id="Path_10655" data-name="Path 10655" d="M5235.751,952.488s-1.644-5.71-1.744-6.018a54.592,54.592,0,0,0,.92,7.69A8.489,8.489,0,0,1,5235.751,952.488Z" transform="translate(-5190.378 -919.235)" fill="#1d3b54"/>
    </g>
    <g id="Group_39366" data-name="Group 39366" transform="translate(364.451 2032.091)">
      <g id="Group_39351" data-name="Group 39351" transform="translate(31.914 27.938)">
        <g id="Group_39350" data-name="Group 39350">
          <g id="Group_39349" data-name="Group 39349">
            <g id="Group_39348" data-name="Group 39348">
              <path id="Path_10656" data-name="Path 10656" d="M4830.414,959.906l2.639,4.16,2.437,3.84c-.005-.021-.168-.6-.443-2.286-.052-.32-.108-.679-.168-1.082a2.877,2.877,0,0,0-.077-.354h0c-1.043-2.4-4.267-4.217-4.385-4.277Z" transform="translate(-4830.414 -959.906)" fill="#eddad3"/>
            </g>
          </g>
        </g>
      </g>
      <g id="Group_39354" data-name="Group 39354" transform="translate(31.917 27.94)">
        <g id="Group_39353" data-name="Group 39353">
          <g id="Group_39352" data-name="Group 39352">
            <path id="Path_10657" data-name="Path 10657" d="M4834.8,964.164h0a5.42,5.42,0,0,1,.256,1.464l-.955-1.441s-1.705-2.445-2.289-3.08a9.652,9.652,0,0,0-1.386-1.192S4833.786,961.528,4834.8,964.164Z" transform="translate(-4830.432 -959.916)" fill="#ffca55"/>
          </g>
        </g>
      </g>
      <g id="Group_39360" data-name="Group 39360" transform="translate(0 0)">
        <path id="Path_10659" data-name="Path 10659" d="M4726.8,1412.648a9.694,9.694,0,0,0,2.7,3.977c1.691,1.183,3.44,2.875,2.979,4.058s-6.114.556-8.479-2.879c-1.494-2.171-3.012-2.655-3.008-3.683s1.737-3.083,1.828-3.374C4722.935,1410.388,4726.8,1412.648,4726.8,1412.648Z" transform="translate(-4708.171 -1304.118)" fill="#353a3d"/>
        <path id="Path_10660" data-name="Path 10660" d="M4735.75,1405.985a10.3,10.3,0,0,1-.418,1.012c-.044.005-4.365-1.152-3.977-1.9a6.842,6.842,0,0,1,.9-1.233Z" transform="translate(-4716.704 -1298.466)" fill="#81807e"/>
        <g id="Group_39355" data-name="Group 39355" transform="translate(8.079 57.404)">
          <path id="Path_10661" data-name="Path 10661" d="M4693.8,1131.968s1.249-2.965,2.217-3.151.173.587.173.587-1.229,2.038-1.645,2.892A4.844,4.844,0,0,1,4693.8,1131.968Z" transform="translate(-4693.802 -1128.789)" fill="#434343"/>
        </g>
        <g id="Group_39356" data-name="Group 39356" transform="translate(9.221 52.237)">
          <path id="Path_10662" data-name="Path 10662" d="M4705.334,1102.021a23.574,23.574,0,0,0-.31,2.891c-.053,1.454.178,2.006-.252,2.7-.325.522-1.117.72-1.213.481s.6-2.467-.311-2.78-.693,2.822-1.165,2.43-2.156-2.276-1.631-3.339,1.644-1.568,2.178-3.243a3.775,3.775,0,0,1,1.174-1.982Z" transform="translate(-4700.352 -1099.176)" fill="#eea886"/>
        </g>
        <g id="Group_39357" data-name="Group 39357" transform="translate(10.524 58.236)">
          <path id="Path_10663" data-name="Path 10663" d="M4709.534,1133.632s1.1.74-.423,4.822l-1.293-.717a15.006,15.006,0,0,0,.857-3.643S4709.029,1133.315,4709.534,1133.632Z" transform="translate(-4707.817 -1133.556)" fill="#545554"/>
        </g>
        <g id="Group_39358" data-name="Group 39358" transform="translate(1.116 58.61)">
          <path id="Path_10664" data-name="Path 10664" d="M4668.168,1142.534l-9.629-6.831-4.641,13.2,8.391,10.161Z" transform="translate(-4653.897 -1135.703)" fill="#545554"/>
        </g>
        <path id="Path_10665" data-name="Path 10665" d="M4780.719,1135.388v25.906c-2.652-8.047-8.444-25.445-9.84-28.292-1.214-2.491-12.234-16.868-13.044-15.842s-5.325,13.078-5.925,16.044-14.1,24.984-14.1,24.984-.237-.049-.6-.146a7.432,7.432,0,0,1-3.657-2.135,2.821,2.821,0,0,1-.279-.433s9.924-21.544,10.859-25.62c.328-1.424.7-8.381,2-15.64a60.534,60.534,0,0,1,2.408-9.478c.412-1.137,1.612-1.612,3.217-1.661.273-.014.559-.007.852.007.489.028,1,.084,1.542.16a31.517,31.517,0,0,1,3.839.866c1.1.321,2.2.677,3.23,1.04,1.193.426,2.3.859,3.21,1.228.3.119.58.237.837.342.286.119.537.23.754.321.572.251.907.4.907.4s1.738,3.092,3.894,7.021c2.966,5.4,6.728,12.367,7.879,15.046A50.552,50.552,0,0,1,4780.719,1135.388Z" transform="translate(-4718.304 -1050.152)" fill="#353a3d"/>
        <path id="Path_10666" data-name="Path 10666" d="M4756.831,931.186l4.076,4.557v7.544c-2.917-2.771-6.351-6.309-7.629-7.433a2.262,2.262,0,0,0-.46-.349,3.566,3.566,0,0,1-.907-1.207c-.112-.188-.237-.4-.363-.628-.188-.342-.384-.712-.585-1.1-.133-.258-.272-.523-.413-.8s-.271-.551-.412-.824c-.272-.552-.544-1.1-.788-1.619-.189-.391-.363-.761-.523-1.1-.1-.23-.21-.44-.3-.635s-.174-.37-.244-.531c-.175-.377-.286-.621-.314-.677a18.454,18.454,0,0,1-.035,3.231,15.65,15.65,0,0,1-.419,2.429,18.8,18.8,0,0,0-.432,3.762v.042c0,.035-.008.063-.008.1v.042c-.07,2.568.1,5.339.182,6.811a5.386,5.386,0,0,1-.664,3.343s-.1-.014-.292-.042l-.5-.07-.572-.077-.774-.112-3.009-.419-1.1-.154-.251-.035-1.905-.272-3.845-.537-1.535-.216-.831-.119-2.024-.286-.907-.133h-.014s-.782-5.52-.837-8.5c-.056-2.785-1.571-8.486-1.773-9.233a.222.222,0,0,1-.014-.056v-.007c0-.007,0-.007-.006-.007v-.014s-4.39,4.613-5.241,6.623c-.209.5-.768,1.675-1.515,3.183-.014.035-.028.07-.042.1-2.024,4.1-5.346,10.5-6.63,12-.154.2-.286.307-.376.321a.693.693,0,0,1-.126.014c-.8.007-2.149-1.11-2.813-1.71-.244-.216-.391-.363-.391-.363s.056-.133.167-.37c.935-2.143,5.673-12.918,6.867-15.451.112-.237.2-.4.237-.482a.994.994,0,0,0,.07-.133c.893-1.724,6.965-14.921,7.893-15.584a5.08,5.08,0,0,1,.489-.286,1.888,1.888,0,0,0,.237-.119.128.128,0,0,0,.035-.014c.153-.07.314-.147.5-.23.056-.028.119-.056.181-.084.126-.056.251-.111.384-.174.732-.321,1.6-.684,2.436-1.026.237-.1.467-.188.684-.272.328-.133.649-.251.942-.363.042-.014.077-.028.112-.042a14.188,14.188,0,0,1,1.884-.642h.126c.063,0,.146.007.245.014,1.214.07,4.835.4,6,.516.237.021.37.035.37.035s.558.258,1.4.635l.007.007.069.028c.489.223,1.062.489,1.668.768,1.271.586,2.708,1.256,3.845,1.794,1.089.523,2.736,1.41,2.861,1.507Z" transform="translate(-4698.492 -891.39)" fill="#decbc4"/>
        <path id="Path_10667" data-name="Path 10667" d="M4838.648,1101.95a5,5,0,0,1,.521,2.532s-16.63-1.94-18.388-2.7c0,0-.069-2.258.3-2.3C4821.495,1099.437,4838.648,1101.95,4838.648,1101.95Z" transform="translate(-4790.544 -1047.19)" fill="#495055"/>
        <path id="Path_10668" data-name="Path 10668" d="M4841.924,879.319c.052,2.61,5.105,4.037,5.105,4.037s2.113-2.65,1.608-2.9c-.2-.1-.279-.5-.3-.939a9.3,9.3,0,0,1,.029-1.184c.015-.185.029-.3.029-.3s-.722-.762-1.64-1.669c-1.606-1.587-3.812-3.62-3.815-2.811a.74.74,0,0,0,.018.153C4843.344,875.52,4841.924,879.319,4841.924,879.319Z" transform="translate(-4808.002 -860.524)" fill="#eea886"/>
        <path id="Path_10669" data-name="Path 10669" d="M4838.821,1101.325s-.362,2.289-.394,2.885l-.77-.153s.211-2.422.336-2.828Z" transform="translate(-4804.48 -1048.634)" fill="#5d676c"/>
        <path id="Path_10670" data-name="Path 10670" d="M4911.586,1111.588s.292,2.081.3,2.866l-.814-.106s-.167-2.6-.26-2.869Z" transform="translate(-4864.87 -1057.095)" fill="#353a3d"/>
        <path id="Path_10671" data-name="Path 10671" d="M4853.079,885.583h0c.01.015.225.336.59.8a10.58,10.58,0,0,0,3.874,3.223,9.316,9.316,0,0,1,.028-1.184,2.621,2.621,0,0,0,.5-.061,15.528,15.528,0,0,0-1.1-1.609l-1.014-.3Z" transform="translate(-4817.211 -870.612)" fill="#a77860"/>
        <path id="Path_10672" data-name="Path 10672" d="M4839.378,833.117c.438.951.853,1.64.97,1.913h0a3.374,3.374,0,0,0,.59.8,5.826,5.826,0,0,0,3.9,2.039,2.63,2.63,0,0,0,.5-.06,2.387,2.387,0,0,0,1.739-1.2,13.666,13.666,0,0,0,.87-11.219s-8.62-2.438-9.968.157C4837.038,827.362,4838.352,830.882,4839.378,833.117Z" transform="translate(-4804.48 -820.059)" fill="#eea886"/>
        <path id="Path_10673" data-name="Path 10673" d="M4841.842,805.1s.8-.044,1-1.562c.2-1.5-.2-1.915-.2-1.915a35.63,35.63,0,0,0-4.838-1.683c-1.277-.194-4.42-.38-5.157.462,0,0-1.789-.416-2.276,2.555-.773,4.713,2.635,9.29,2.635,9.29s-.029-3.079.65-3.487,1.265.563,1.265.563l1.389.249s-2.109-4.555.421-4.724S4840.394,805.365,4841.842,805.1Z" transform="translate(-4798.371 -799.775)" fill="#252e3b"/>
        <path id="Path_10674" data-name="Path 10674" d="M4845.282,841.312c-.132-1.357-2.585-1.874-2.421-.453s1.373,2.788,1.931,2.74S4845.383,842.346,4845.282,841.312Z" transform="translate(-4808.769 -832.992)" fill="#eea886"/>
        <path id="Path_10675" data-name="Path 10675" d="M4721.16,935.512c-.963,1.961-6.979,15.069-8.033,15.263s-3.864-2.235-3.864-2.235,6.712-14.8,7.275-15.79,7-15.034,7.96-15.719a40.348,40.348,0,0,1,4.944-2.2c.368-.145.723-.283,1.052-.408.426.474,7.273,8.213,6.63,15.073-.193,2.061-.453,5.422-1.023,8.962-.591,3.677-1.543,7.835-2.16,10.972a57.5,57.5,0,0,1-3.571,11.083l-6.412-3.209a2.232,2.232,0,0,1-1.1-2.746c1.442-4.039,4.323-12.2,4.325-15.743,0,0-.228-8-.78-9.91C4726.4,928.9,4722.264,933.264,4721.16,935.512Z" transform="translate(-4698.487 -894.419)" fill="#3c4145"/>
        <path id="Path_10676" data-name="Path 10676" d="M4908.939,941.435v7.956c-2.854-2.785-6.343-6.518-7.627-7.691a2.288,2.288,0,0,0-.461-.349,3.56,3.56,0,0,1-.907-1.207c-.119-.188-.237-.4-.363-.628-.188-.342-.384-.712-.586-1.1-.132-.258-.272-.523-.412-.8s-.272-.551-.412-.824c-.272-.551-.544-1.1-.788-1.619-.188-.391-.37-.761-.524-1.1-.1-.23-.209-.44-.3-.635s-.174-.37-.244-.53c-.175-.377-.287-.621-.314-.677a7.885,7.885,0,0,1-.035,3.231c-.342,1.947-1.019,4-.851,6.19v.042c.53,6.651,3.329,16.066,4.159,18.731a1.179,1.179,0,0,1-.23,1.117.669.669,0,0,1-.111.133l-2,1.842s-1.73-5.332-2.624-9.094c-.021-.1-.048-.209-.07-.307a20.3,20.3,0,0,1-.412-2.24v-.007c-.161-1.494-.481-3.238-.83-5.095s-.7-3.831-.915-5.779c-.558-4.941-1.13-9.84-1.542-12.716-.133-.935-.265-1.8-.391-2.6a68.232,68.232,0,0,0-1.563-7.823l.042-.035c.488.223,1.061.489,1.668.768,1.27.586,2.708,1.256,3.845,1.794,1.089.523,2.736,1.41,2.862,1.507l7.859,15.13Z" transform="translate(-4846.525 -897.234)" fill="#3c4145"/>
        <path id="Path_10677" data-name="Path 10677" d="M4827.378,920.9l2.458,1.386-1.05,1.071,2.8,15.1c.57-3.539.83-6.9,1.023-8.962.643-6.86-6.2-14.6-6.63-15.073-.329.125-.684.263-1.052.408Z" transform="translate(-4793.967 -894.419)" fill="#51565c"/>
        <path id="Path_10678" data-name="Path 10678" d="M4888.388,917.642a79.53,79.53,0,0,1,1.989,10.488c.411,2.876.986,7.772,1.54,12.714l.572-14.141-1.17-1.269,1.041-1.3-2.228-5.688c-.608-.281-1.181-.544-1.666-.767Z" transform="translate(-4846.359 -897.078)" fill="#51565c"/>
        <path id="Path_10679" data-name="Path 10679" d="M4763.868,916.758c-2.008.791-5,1.82-5.55,2.217-.956.685-6.791,14.711-7.354,15.705Z" transform="translate(-4732.913 -896.348)" fill="#3c4145"/>
        <path id="Path_10680" data-name="Path 10680" d="M4657.006,1157.856l-1.429-.228-8.079-10.117,4.847-13.267.912.255Z" transform="translate(-4647.498 -1075.888)" fill="#545554"/>
        <path id="Path_10681" data-name="Path 10681" d="M4830.244,908.738l2.038-1.238s.057,1.118,5.1,4.038l-1.434,4.038Z" transform="translate(-4798.359 -888.705)" fill="#f5e2d9"/>
        <path id="Path_10682" data-name="Path 10682" d="M4872.527,910.727a9.491,9.491,0,0,1-1.343,3.474l2.8,3.647.2-5.915Z" transform="translate(-4832.158 -891.369)" fill="#f5e2d9"/>
        <path id="Path_10683" data-name="Path 10683" d="M4869.3,930.641a9.516,9.516,0,0,0-.347,2.776,2.645,2.645,0,0,0,2.049-.109A9.528,9.528,0,0,0,4869.3,930.641Z" transform="translate(-4830.279 -907.809)" fill="#464157"/>
        <g id="Group_39359" data-name="Group 39359" transform="translate(41.565 47.801)">
          <path id="Path_10684" data-name="Path 10684" d="M4885.987,1080.062a41.064,41.064,0,0,0,0-6.31l-.26.016a41.93,41.93,0,0,1,0,6.243Z" transform="translate(-4885.729 -1073.752)" fill="#ad9f99"/>
        </g>
        <path id="Path_10685" data-name="Path 10685" d="M4874.781,1105.873s2.446.292,3.256.494l-.107,2.743-3.2-.342Z" transform="translate(-4835.082 -1052.468)" fill="#69737a"/>
        <path id="Path_10686" data-name="Path 10686" d="M4869.482,943.375a55.188,55.188,0,0,1,2.713,14.5c.3,7.721-.513,9.716-.513,9.716l-3.015,2.713-1.009-3.526a45.89,45.89,0,0,0,1.264-18.5c-.264-1.8-.657-5.205-.657-5.205Z" transform="translate(-4829.248 -918.07)" fill="#464157"/>
      </g>
      <g id="Group_39365" data-name="Group 39365" transform="translate(36.241 0.359)">
        <g id="Group_39362" data-name="Group 39362" transform="translate(28.88 50.933)">
          <g id="Group_39361" data-name="Group 39361">
            <path id="Path_10687" data-name="Path 10687" d="M5023.55,1093.757s.98,1.428,1.494,1.476a10.767,10.767,0,0,1,1.686.636c.449.131,1.814.055,2.213.354.163.123.855,1.27,1.214,1.483s1.143.556.942.861-.991.19-.991.19a.521.521,0,0,1,.221.535c-.183.624-.584.7-.584.7s.173.428.031.67a1.144,1.144,0,0,1-.7.6,1.048,1.048,0,0,1-.287.657.959.959,0,0,1-.885.265s-.348.6-.73.542a3.234,3.234,0,0,1-.907-.426,11.95,11.95,0,0,1-3.225-3.843,8.836,8.836,0,0,0-2.3-2.961Z" transform="translate(-5020.743 -1093.757)" fill="#eea886"/>
          </g>
        </g>
        <g id="Group_39363" data-name="Group 39363" transform="translate(33.035 54.284)">
          <path id="Path_10688" data-name="Path 10688" d="M5049.64,1114.387s-1.794-1.551-2.6-1.411-.187.735-.187.735-.6-.6-1.136-.17.221,1.089.221,1.089a.686.686,0,0,0-.947.281c-.368.613.388,1.015.388,1.015s-1.082-.014-.769.81a3.555,3.555,0,0,0,2.215,1.852s.417.072.73-.541a.95.95,0,0,0,1.173-.923s1.133-.4.672-1.269A.826.826,0,0,0,5049.64,1114.387Z" transform="translate(-5044.557 -1112.966)" fill="#db9c7c"/>
        </g>
        <path id="Path_10689" data-name="Path 10689" d="M5019.851,1462.965s2.443,1.963,4.617,2.1,4.676.7,4.91,2.022-6.6,2.994-9.219,2.057c-3.905-1.4-4.17-.74-4.73-1.668s-.125-3.731-.2-4.043C5015.13,1463.048,5019.851,1462.965,5019.851,1462.965Z" transform="translate(-4987.235 -1347.615)" fill="#353a3d"/>
        <path id="Path_10690" data-name="Path 10690" d="M5019.854,1456.867a9.587,9.587,0,0,1,.413,1.064c-.036.029-4.624,1.358-4.625.469,0-.721.037-1.511.037-1.511Z" transform="translate(-4987.652 -1342.582)" fill="#81807e"/>
        <path id="Path_10691" data-name="Path 10691" d="M4889.179,1166.047c.056.272-.251.447-.739.551a20.064,20.064,0,0,1-4.412.1l-.495-.035s-9.352-28.641-11.181-32.368c-1.214-2.491-12.233-16.868-13.043-15.842a45.7,45.7,0,0,1-2.84-11.25c-.112-.823-.2-1.682-.279-2.568a32.422,32.422,0,0,1,3.273.768c1.1.321,2.2.677,3.23,1.04,1.193.426,2.3.858,3.21,1.228.3.119.579.237.838.342.286.119.537.23.754.321.572.251.906.4.906.4s1.738,3.092,3.894,7.021c2.967,5.4,6.729,12.367,7.88,15.047a66.043,66.043,0,0,1,4,15.019C4884.5,1149.618,4888.955,1164.937,4889.179,1166.047Z" transform="translate(-4856.019 -1051.802)" fill="#353a3d"/>
        <path id="Path_10692" data-name="Path 10692" d="M4888.687,945.163s-.084.1-.223.265c-.482.565-1.647,1.905-2.387,2.61a.6.6,0,0,0-.07.063c-.083.077-.251.042-.5-.084-2.114-1.1-9.7-9.107-11.752-10.908-.14-.119-.259-.216-.342-.279a.112.112,0,0,0-.048-.028.267.267,0,0,0-.07-.042,3.573,3.573,0,0,1-.907-1.207c-.111-.188-.237-.4-.363-.628-.091-.174-.188-.349-.286-.53s-.2-.377-.3-.572c-.132-.258-.272-.523-.412-.8-.481-.949-.97-1.947-1.389-2.826-.1-.216-.2-.426-.293-.628-.161-.335-.3-.635-.426-.9-.056-.119-.1-.23-.153-.335-.035-.084-.07-.153-.1-.223a1.362,1.362,0,0,0-.084-.181c-.062-.14-.1-.237-.125-.279a.007.007,0,0,0-.007-.007,18.591,18.591,0,0,1-.035,3.231v.007a15.628,15.628,0,0,1-.419,2.422,18.8,18.8,0,0,0-.432,3.762v.042c0,.035-.007.063-.007.1v.042c-.07,2.568.1,5.339.182,6.811a5.386,5.386,0,0,1-.664,3.343s-.1-.014-.293-.042c-.125-.021-.3-.042-.5-.07l-.572-.077-.775-.112-3.008-.419-1.1-.154-.251-.035-1.906-.272-3.294-.461v-.049c-.055-.67-.1-1.361-.125-2.066v-.007c-.041-1.033-.048-2.1-.021-3.2a74.468,74.468,0,0,1,.642-7.621c.447-3.364.97-6.462,1.151-9.91a45.82,45.82,0,0,0,.008-4.711V918.2c-.057-1-.14-2.059-.272-3.161-.014-.112-.027-.223-.049-.335-.1-.782-.217-1.591-.364-2.429,1.173.1,2.325.209,2.89.265h.007c.23.021.363.035.363.035s.559.258,1.4.635l.007.007.069.028c.488.223,1.061.489,1.667.768,1.271.586,2.708,1.256,3.846,1.794,1.089.523,2.736,1.41,2.861,1.507l7.858,15.13,11.1,12.415Z" transform="translate(-4855.214 -893.003)" fill="#decbc4"/>
        <path id="Path_10693" data-name="Path 10693" d="M4868.369,1108.174s-.308-.035-.838-.1c-.224-.028-.489-.063-.789-.1-.244-.028-.522-.063-.815-.1-.936-.119-2.08-.258-3.329-.419-1.026-.125-2.115-.265-3.211-.419-1-.133-2-.265-2.952-.4-.111-.823-.2-1.682-.279-2.568a.244.244,0,0,0-.007-.07v-.049c1.061.154,2.185.307,3.294.468.649.1,1.291.189,1.912.279.084.014.168.021.251.035.37.056.74.1,1.089.16,1.131.161,2.171.314,3.008.433.279.042.538.077.775.112.217.035.4.063.571.083v.007c.2.028.378.049.5.07.188.028.293.042.293.042A4.989,4.989,0,0,1,4868.369,1108.174Z" transform="translate(-4855.985 -1051.24)" fill="#495055"/>
        <path id="Path_10694" data-name="Path 10694" d="M4858.643,887.143h-.008l-.006-.007a11.074,11.074,0,0,1-1.228-.433c-.014-.112-.028-.223-.049-.335-.1-.782-.216-1.591-.363-2.429-.111-.649-.237-1.312-.383-2-.112-.537-.216-1.061-.293-1.57v-.007c-.092-.1-.167-.2-.238-.286.07.077.146.154.224.23q-.073-.419-.126-.817v-.007c-.077-.53-.132-1.04-.181-1.535.725.6,1.619,1.445,2.373,2.191.921.907,1.64,1.675,1.64,1.675s-.014.119-.028.3a10.474,10.474,0,0,0-.027,1.186,2.872,2.872,0,0,0,.035.363c.042.279.125.5.265.572C4860.757,884.5,4858.643,887.143,4858.643,887.143Z" transform="translate(-4855.854 -864.671)" fill="#eea886"/>
        <path id="Path_10695" data-name="Path 10695" d="M4911.586,1111.588s.292,2.081.3,2.866l-.814-.106s-.167-2.6-.26-2.869Z" transform="translate(-4901.11 -1057.454)" fill="#353a3d"/>
        <path id="Path_10696" data-name="Path 10696" d="M4860.37,889.416a10.7,10.7,0,0,0-.028,1.186,10.148,10.148,0,0,1-3.636-2.931v-.007c-.091-.1-.168-.2-.237-.286.069.077.146.154.223.23-.049-.279-.09-.551-.125-.817l2.191.649,1.019.307a15.522,15.522,0,0,1,1.1,1.605A2.491,2.491,0,0,1,4860.37,889.416Z" transform="translate(-4856.25 -871.969)" fill="#a77860"/>
        <path id="Path_10697" data-name="Path 10697" d="M4861.657,836.673a2.377,2.377,0,0,1-1.737,1.2,2.469,2.469,0,0,1-.5.063,5.628,5.628,0,0,1-3.677-1.807q-.073-.419-.126-.817v-.007c-.077-.53-.132-1.04-.182-1.535a24.99,24.99,0,0,1-.1-3.161c.007-.419.027-.824.063-1.207.028-.412.07-.81.132-1.186a15.509,15.509,0,0,1,.991-3.783,30.98,30.98,0,0,1,6.016,1.026A13.651,13.651,0,0,1,4861.657,836.673Z" transform="translate(-4855.297 -820.489)" fill="#eea886"/>
        <path id="Path_10698" data-name="Path 10698" d="M4863.887,805.238c-.2,1.514-1,1.563-1,1.563-1.451.258-2.582-.426-5.115-.258s-.419,4.725-.419,4.725l-1.389-.244-.007-.007a1.538,1.538,0,0,0-.209-.272c.027-.412.07-.81.132-1.186a15.528,15.528,0,0,1,.992-3.783,9.022,9.022,0,0,1,2.784-3.943h.007c1.564.461,4.02,1.486,4.02,1.486S4864.082,803.737,4863.887,805.238Z" transform="translate(-4855.656 -801.832)" fill="#252e3b"/>
        <path id="Path_10699" data-name="Path 10699" d="M4855.662,847.571a1.641,1.641,0,0,1-.272.935c.007-.419.028-.823.063-1.207.027-.412.069-.81.132-1.186a.877.877,0,0,1,.049.237A7.22,7.22,0,0,1,4855.662,847.571Z" transform="translate(-4855.358 -838.386)" fill="#eea886"/>
        <path id="Path_10700" data-name="Path 10700" d="M4857.61,978.073c-.2,2.066-.453,5.423-1.019,8.968-.363,2.254-.866,4.683-1.34,6.958-.041-1.033-.048-2.1-.021-3.2a74.465,74.465,0,0,1,.642-7.621c.447-3.364.97-6.462,1.151-9.91A12.6,12.6,0,0,1,4857.61,978.073Z" transform="translate(-4855.214 -943.36)" fill="#3c4145"/>
        <path id="Path_10701" data-name="Path 10701" d="M4895.32,941.75c-.267-3.448,1.377-6.641.692-9.518l0,.006c.146.319,4.021,8.818,4.847,9.12.842.31,11.338,12.074,12.219,11.253.939-.878,3.087-3.377,3.087-3.377l-11.295-12.193-7.855-15.13c-.127-.1-1.774-.986-2.863-1.505-1.135-.54-2.57-1.207-3.845-1.795-.608-.281-1.181-.544-1.666-.767l-.04.031a82.1,82.1,0,0,1,1.951,10.421c.411,2.877.986,7.772,1.54,12.714v0c.438,3.9,1.433,7.892,1.75,10.875.328,3.089,3.105,11.644,3.105,11.644l2-1.843a1.211,1.211,0,0,0,.335-1.248C4898.456,957.77,4895.834,948.394,4895.32,941.75Z" transform="translate(-4882.779 -897.603)" fill="#3c4145"/>
        <path id="Path_10702" data-name="Path 10702" d="M4860.728,978.073c-.2,2.066-.454,5.423-1.019,8.968l-.719-3.859c.446-3.364.97-6.462,1.151-9.91A12.593,12.593,0,0,1,4860.728,978.073Z" transform="translate(-4858.331 -943.36)" fill="#51565c"/>
        <path id="Path_10703" data-name="Path 10703" d="M4888.388,917.642a79.53,79.53,0,0,1,1.989,10.488c.411,2.876.986,7.772,1.54,12.714l.572-14.141-1.17-1.269,1.041-1.3-2.228-5.688c-.608-.281-1.181-.544-1.666-.767Z" transform="translate(-4882.6 -897.436)" fill="#51565c"/>
        <path id="Path_10704" data-name="Path 10704" d="M4865.081,926.967v.007l-.021.042v.021l-.95,2.652c-.056-1.005-.139-2.059-.272-3.162-.014-.112-.027-.223-.049-.335.384.244.81.5,1.277.768l.006.007Z" transform="translate(-4862.293 -904.495)" fill="#f5e2d9"/>
        <path id="Path_10705" data-name="Path 10705" d="M4872.527,910.727a9.491,9.491,0,0,1-1.343,3.474l2.8,3.647.2-5.915Z" transform="translate(-4868.397 -891.728)" fill="#f5e2d9"/>
        <path id="Path_10706" data-name="Path 10706" d="M4869.3,930.641a9.516,9.516,0,0,0-.347,2.776,2.645,2.645,0,0,0,2.049-.109A9.528,9.528,0,0,0,4869.3,930.641Z" transform="translate(-4866.52 -908.167)" fill="#464157"/>
        <g id="Group_39364" data-name="Group 39364" transform="translate(5.324 47.443)">
          <path id="Path_10707" data-name="Path 10707" d="M4885.987,1080.062a41.064,41.064,0,0,0,0-6.31l-.26.016a41.93,41.93,0,0,1,0,6.243Z" transform="translate(-4885.729 -1073.752)" fill="#ad9f99"/>
        </g>
        <path id="Path_10708" data-name="Path 10708" d="M4874.781,1105.873s2.446.292,3.256.494l-.107,2.743-3.2-.342Z" transform="translate(-4871.322 -1052.826)" fill="#69737a"/>
        <path id="Path_10709" data-name="Path 10709" d="M4869.482,943.375a55.188,55.188,0,0,1,2.713,14.5c.3,7.721-.513,9.716-.513,9.716l-3.015,2.713-1.009-3.526a45.89,45.89,0,0,0,1.264-18.5c-.264-1.8-.657-5.205-.657-5.205Z" transform="translate(-4865.488 -918.429)" fill="#464157"/>
      </g>
    </g>
    <g id="Group_13156" data-name="Group 13156" transform="translate(537.083 2037.877)">
      <path id="Path_5325" data-name="Path 5325" d="M292.672,173.6l-2.276,12.76c-4.724,6.457-7.226,11.053-13.406,10.4-7.752-.821-11.994-12.133-11.994-12.133L266.5,183.2s.259.372.7.959c1.489,2.017,5.027,6.577,7.146,7.42,3,1.193,6.566-.711,9.9-8.109C288.6,173.836,292.672,173.6,292.672,173.6Z" transform="translate(-254.546 -141.297)" fill="#0054ae"/>
      <path id="Path_5326" data-name="Path 5326" d="M237.97,200.983c-15.862,6.444-23.3.39-23.3.39-.18-13.868,7.43-29.91,9.1-30.9a12.294,12.294,0,0,1,3.449-1.4,13.555,13.555,0,0,1,7.871.635,14.215,14.215,0,0,1,2.873,1.436C244.8,175.994,237.97,200.983,237.97,200.983Z" transform="translate(-186.015 -138.071)" fill="#007bff"/>
      <path id="Path_5327" data-name="Path 5327" d="M244.909,267.427a7.587,7.587,0,0,1-5.027,2.309l-.606.058q-1.362.121-2.615.155a29.256,29.256,0,0,1-3.327-.087c-4.383-.386-7.433-1.9-8.928-4.808a9.015,9.015,0,0,1-.811-2.387,12.993,12.993,0,0,1-.242-2.589,7.918,7.918,0,0,1,.538-3.385s2.261,1.143,8.534,1.8a126.266,126.266,0,0,0,14.78.557C247.247,260.455,247.421,264.712,244.909,267.427Z" transform="translate(-195.144 -196.544)" fill="#424243"/>
      <path id="Path_5328" data-name="Path 5328" d="M232.667,329.822l-2.818-.947a59.911,59.911,0,0,0-2.615-21.26,137.793,137.793,0,0,1-4.664-19.4c-.045-.255-.084-.493-.119-.712-.171-1.053-.251-1.652-.251-1.652l8.683-1.684s-.036.535-.064,1.527a133.7,133.7,0,0,0,1.7,24.058q.2,1.266.354,2.444C234.438,324.153,232.667,329.822,232.667,329.822Z" transform="translate(-181.053 -214.813)" fill="#424243"/>
      <path id="Path_5329" data-name="Path 5329" d="M267.835,322.875l-2.454-1.146a64.113,64.113,0,0,0-2.924-21.137,179.881,179.881,0,0,1-5.417-23.269c-.119-.715-.212-1.275-.271-1.649l-.084-.528,9.42,2s-.119,1.51-.135,4.187c0,.258,0,.525,0,.8a128.376,128.376,0,0,0,1.781,20.6C269.809,315.087,267.835,322.875,267.835,322.875Z" transform="translate(-227.777 -208.813)" fill="#424243"/>
      <path id="Path_5330" data-name="Path 5330" d="M244.139,169.707a10.11,10.11,0,0,1-3.507,4.184,2.583,2.583,0,0,0-1.069-1.649s-.825.776-1.227,1.166l-1.849,17.569-2.619,2.805-1.568-3.665,4.87-17.591-.242-1.382s-1.665,1.259-1.958,2.1a5.681,5.681,0,0,1,1.3-4.174A13.555,13.555,0,0,1,244.139,169.707Z" transform="translate(-195.057 -138.071)" fill="#0054ae"/>
      <path id="Path_5331" data-name="Path 5331" d="M342.952,201.315s.981.941,1.032,1.4a2.051,2.051,0,0,1-2.186,2.067C339.628,204.73,342.952,201.315,342.952,201.315Z" transform="translate(-331.351 -159.724)" fill="#fff"/>
      <path id="Path_5332" data-name="Path 5332" d="M342.645,193.311c.218-1.19,4.482-2.723,4.482-2.723a9.264,9.264,0,0,0-3.82.4s-1.206-.28-.226-1.135c.7-.607,4.188-.771,6.1-.812.754-.017,1.261-.017,1.261-.017a5.069,5.069,0,0,1-1.307-4.46c.281-.754,1.114-.344,1.114-.344-.417,2.72,1.995,3.5,3.519,4.835a2.689,2.689,0,0,1,.618,3.353,2.8,2.8,0,0,1-1.942,1.3c-3.958.594-5.3,2.494-5.3,2.494s-.645.4-.783-.159,2.262-2.735,2.262-2.735c-1.165,0-3.54,2.031-3.54,2.031s-.824.691-.871-.385c-.045-1.043,2.958-2.567,3.146-2.659-3.112.616-4.008,1.751-4.008,1.751S342.427,194.5,342.645,193.311Z" transform="translate(-342.611 -148.283)" fill="#eebd9b"/>
      <path id="Path_5333" data-name="Path 5333" d="M352.478,198.791c.942,2.651,2.24,2.111,2.24,2.111-.888-.272-.98-2.128-.98-2.128S353.232,198.774,352.478,198.791Z" transform="translate(-345.91 -158.035)" fill="#d7a387"/>
      <path id="Path_5334" data-name="Path 5334" d="M225,257.391s6.321,2.9,22.706,2.291v1.127s-15.314,2.134-22.955-2.375Z" transform="translate(-196.088 -197.008)" fill="#272425"/>
      <path id="Path_5335" data-name="Path 5335" d="M261.967,262.289l-.124,1.008a.562.562,0,0,0,.479.626l3.04.432a.563.563,0,0,0,.638-.494l.116-1.033a.562.562,0,0,0-.484-.62L262.6,261.8A.563.563,0,0,0,261.967,262.289Z" transform="translate(-226.936 -199.937)" fill="#6d6e6f"/>
      <path id="Path_5336" data-name="Path 5336" d="M242.285,263.987a7,7,0,0,1,0,2.2h.859a6.239,6.239,0,0,0,0-2.2Z" transform="translate(-197.515 -201.394)" fill="#424243"/>
      <path id="Path_5337" data-name="Path 5337" d="M285.1,259.378a6.986,6.986,0,0,0-.411,2.162l-.844-.161a6.23,6.23,0,0,1,.411-2.162Z" transform="translate(-253.296 -198.223)" fill="#424243"/>
      <path id="Path_5338" data-name="Path 5338" d="M226.218,268.808a6.059,6.059,0,0,0,1.771,4.128,6.153,6.153,0,0,0,1.047-4.451A10.136,10.136,0,0,1,226.218,268.808Z" transform="translate(-177.946 -204.385)" fill="#383838"/>
      <path id="Path_5339" data-name="Path 5339" d="M230.12,202.738a12.91,12.91,0,0,1,5.2,1.058l-.848,4.732a1.351,1.351,0,0,1-1.072,1.088l-2.132.414-1.42-.911a1.351,1.351,0,0,1-.6-1.368Z" transform="translate(-185.214 -160.668)" fill="#0054ae"/>
      <path id="Path_5340" data-name="Path 5340" d="M241.239,155.828a16.092,16.092,0,0,1-5.607.944,8.93,8.93,0,0,1-1.163-.171c-1.366-.367,1.33-1.2.676-6.068l5.585-2.573s-.032.148-.077.409c-.074.435-.19,1.175-.264,2.039C240.235,152.24,240.26,154.633,241.239,155.828Z" transform="translate(-192.753 -124.25)" fill="#d7a387"/>
      <path id="Path_5341" data-name="Path 5341" d="M242.249,147.96s-.032.148-.077.409c-.074.435-.19,1.175-.264,2.039-1.234,2.293-3.308,5.337-5.92,6.193-1.366-.367,1.33-1.2.676-6.068Z" transform="translate(-194.271 -124.25)" fill="#b9836a"/>
      <path id="Path_5342" data-name="Path 5342" d="M290.49,173.6s-6.854,7.766-7.536,13.614c0,0-2.189,6.931-7.3,7.175S265,186.118,265,186.118a2.554,2.554,0,0,0,0-1.827.226.226,0,0,1,.018-.131c1.489,2.017,5.027,6.577,7.146,7.42,3,1.193,6.566-.711,9.9-8.109C286.415,173.836,290.49,173.6,290.49,173.6Z" transform="translate(-252.365 -141.297)" fill="#007bff"/>
      <path id="Path_5343" data-name="Path 5343" d="M230.753,203.928a10.272,10.272,0,0,1,4.577.8l.161-.72a7.9,7.9,0,0,0-4.562-1.052Z" transform="translate(-185.891 -160.812)" fill="#007bff"/>
      <path id="Path_5344" data-name="Path 5344" d="M232.068,206.244a12.756,12.756,0,0,1,4.51.913s-.376,3.932-1.127,4.308a11.567,11.567,0,0,1-2.12.671s-1.662-1.006-1.865-1.584S232.068,206.244,232.068,206.244Z" transform="translate(-187.206 -163.002)" fill="#007bff"/>
      <path id="Path_5345" data-name="Path 5345" d="M263.409,269.215s-.831,5.339,1.953,8.941l-.29-.046s-2.662-2.955-2-9.013Z" transform="translate(-226.557 -204.791)" fill="#383838"/>
      <path id="Path_5346" data-name="Path 5346" d="M268.161,268.413a16.8,16.8,0,0,0,0,4.469,2.621,2.621,0,0,0,1.915,1.469l.158.342a2.592,2.592,0,0,1-2.292-1.812,15.619,15.619,0,0,1,0-4.63Z" transform="translate(-233.033 -204.23)" fill="#383838"/>
      <path id="Path_5347" data-name="Path 5347" d="M245.363,323.406l-2.818-.947a59.911,59.911,0,0,0-2.615-21.259,137.8,137.8,0,0,1-4.664-19.4,29.255,29.255,0,0,1-3.327-.087,128.38,128.38,0,0,0,1.781,20.6c2.061,12.357.087,20.145.087,20.145l-2.454-1.146a64.113,64.113,0,0,0-2.924-21.137,179.887,179.887,0,0,1-5.417-23.269,9.022,9.022,0,0,1-.811-2.387c.167.239.348.487.541.738a14.065,14.065,0,0,0,6.969,5.153,17.855,17.855,0,0,0,2.232.5,15.152,15.152,0,0,0,3.2.177,10.315,10.315,0,0,0,4.338-1.057,6.037,6.037,0,0,1-1.6,1.614,2.9,2.9,0,0,1-1.32.474A5.963,5.963,0,0,0,239,284a4.88,4.88,0,0,1-2.09-.654s1.15,20.145,7.862,22.129a5.549,5.549,0,0,1,.8.306C247.134,317.738,245.363,323.406,245.363,323.406Z" transform="translate(-193.749 -208.397)" fill="#383838"/>
      <g id="Group_13147" data-name="Group 13147" transform="translate(46.349 79.402)">
        <g id="Group_13145" data-name="Group 13145" transform="translate(6.239)">
          <path id="Path_5348" data-name="Path 5348" d="M199.04,318.513h1.052v-2.087a1.229,1.229,0,0,1,1.228-1.227H204.4a1.229,1.229,0,0,1,1.227,1.227v2.087h1.053v-2.087a2.282,2.282,0,0,0-2.28-2.279H201.32a2.282,2.282,0,0,0-2.28,2.279Z" transform="translate(-199.04 -314.146)" fill="#6d6e6f"/>
        </g>
        <g id="Group_13146" data-name="Group 13146" transform="translate(6.688)">
          <path id="Path_5349" data-name="Path 5349" d="M197.7,318.513h1.052v-2.087a1.229,1.229,0,0,1,1.228-1.227h3.081a1.229,1.229,0,0,1,1.228,1.227v2.087h1.052v-2.087a2.282,2.282,0,0,0-2.28-2.279h-3.081a2.282,2.282,0,0,0-2.279,2.279Z" transform="translate(-197.7 -314.146)" fill="#7f7f81"/>
        </g>
        <rect id="Rectangle_2083" data-name="Rectangle 2083" width="17.497" height="15.873" rx="3.412" transform="translate(0 4.128)" fill="#38281b"/>
        <rect id="Rectangle_2084" data-name="Rectangle 2084" width="17.497" height="15.871" rx="3.407" transform="translate(3.651 4.128)" fill="#573b1c"/>
        <path id="Path_5350" data-name="Path 5350" d="M233.02,326.464a1.143,1.143,0,0,0-1.144,1.143v12.675h-.3V327.607a1.44,1.44,0,0,1,.563-1.143Z" transform="translate(-230.043 -322.336)" fill="#b8babb"/>
        <path id="Path_5351" data-name="Path 5351" d="M180.771,341.29V329.417a1.437,1.437,0,0,1,1.437-1.437H196.5a14.411,14.411,0,0,1-5.294,9.227A23.672,23.672,0,0,1,180.771,341.29Z" transform="translate(-176.5 -323.344)" fill="#6b4825"/>
      </g>
      <path id="Path_5352" data-name="Path 5352" d="M204.572,300.221s1.469,4,1.023,5.165c-.561,1.47-2.231,1.357-4.9,1.446-.275.009-.771-.838-.553-1,.116-.089.444-.364.41-.606a.642.642,0,0,0-.793-.508l-.383.092c-.52-1.712-.627-1.766,2.6-5.031Z" transform="translate(-145.471 -225.188)" fill="#eebd9b"/>
      <path id="Path_5353" data-name="Path 5353" d="M199.245,198.246c0,9.366-2.534,15.617-4.454,19q-.377.662-.712,1.179l-2.606-1.176c2.435-5.791,7.932-22.245-3.356-31.73a23.068,23.068,0,0,1-1.256-9.626A25.859,25.859,0,0,1,199.245,198.246Z" transform="translate(-134.906 -142.825)" fill="#0054ae"/>
      <path id="Path_5354" data-name="Path 5354" d="M200.726,298.477l.765-1.28,2.806,1.084-.176,1.374S201.823,299.734,200.726,298.477Z" transform="translate(-144.634 -223.475)" fill="#fff"/>
      <path id="Path_5355" data-name="Path 5355" d="M199.158,198.246c0,9.366-2.534,15.617-4.454,19a5.779,5.779,0,0,1-1.562-.7,37.288,37.288,0,0,0,1.887-19.385c-1.871-10.7-6.609-12.815-6.609-12.815-1.366-2.844-1.646-8.451-1.646-8.451A25.859,25.859,0,0,1,199.158,198.246Z" transform="translate(-134.82 -142.825)" fill="#007bff"/>
      <path id="Path_5356" data-name="Path 5356" d="M248.893,170.234c-.512.467-1,.879-1.43,1.237a27.378,27.378,0,0,1-2.374,1.778c-.016.084-.035.18-.051.283-.609,3.372-2.309,17.366-2.309,17.366l-2.512,3.06-1.353-3.488c.966-6.013,5.259-17.324,5.259-17.324a7.9,7.9,0,0,1-.512-1.556v0a6.973,6.973,0,0,1-.171-1.906,2.116,2.116,0,0,0,.174.68c.544,1.233,2.187,1.018,3.5.6A11.791,11.791,0,0,0,248.893,170.234Z" transform="translate(-202.011 -138.691)" fill="#fff"/>
      <path id="Path_5357" data-name="Path 5357" d="M246.983,172.819a27.385,27.385,0,0,1-2.374,1.778c-.016.084-.035.18-.051.284a1.706,1.706,0,0,1-.432.216c-.284.019-.483-.6-.483-.6a1.214,1.214,0,0,0,.824.1l1.008-.889a1.941,1.941,0,0,0-.209-.6c-.129-.174-1.018.093-1.018.093a2.5,2.5,0,0,0-.544-.525c-.2-.084-.573.258-.573.258v-1.227l0,0c.544,1.233,2.187,1.018,3.5.6Z" transform="translate(-201.53 -140.039)" fill="#3a6395"/>
      <path id="Path_5358" data-name="Path 5358" d="M240.067,165.942c-1.3-.309-4.834,2.617-4.834,2.617a8.446,8.446,0,0,1-.671-2.507s-.5-.307-1.78,1.716a4.952,4.952,0,0,0-.516,2.72c.818-1.784,2.035-2.355,2.276-1.858a2.8,2.8,0,0,0,.51.725,6.241,6.241,0,0,0,.845-.557c.255-.206,1.313.368,2.019,1.951,0,0,3.043-1.655,3.519-2.971C241.435,167.778,240.624,166.074,240.067,165.942Z" transform="translate(-192.335 -136.19)" fill="#007bff"/>
      <path id="Path_5359" data-name="Path 5359" d="M266.339,410.961c-.339-.979-2-.382-2-.382a1.7,1.7,0,0,0-1.523-1.073c-.018,1.511-1.731,2.208-4.446,3.274-2.077.815-2.061,1.9-2.061,1.9,3.156.788,8.221-.709,8.221-.709s-.01.477,2.138.262a4.762,4.762,0,0,0-.417-3.076S266.289,411.085,266.339,410.961Z" transform="translate(-225.726 -298.147)" fill="#272425"/>
      <path id="Path_5360" data-name="Path 5360" d="M231.719,414.808c-.339-.979-2-.382-2-.382a1.7,1.7,0,0,0-1.523-1.074c-.018,1.511-1.731,2.208-4.446,3.274-2.077.815-2.061,1.9-2.061,1.9,3.156.788,8.221-.709,8.221-.709s-.01.477,2.138.262a4.763,4.763,0,0,0-.417-3.077S231.669,414.931,231.719,414.808Z" transform="translate(-179.504 -300.704)" fill="#272425"/>
      <g id="Group_13155" data-name="Group 13155" transform="translate(35.541 0)">
        <path id="Path_5361" data-name="Path 5361" d="M263.178,104.092s-.6,4.014.3,6.6,1.494-5.657,1.494-5.657Z" transform="translate(-261.715 -95.083)" fill="#263238"/>
        <g id="Group_13148" data-name="Group 13148" transform="translate(0 14.753)">
          <path id="Path_5362" data-name="Path 5362" d="M266.9,122.452s-3.251-3.152-2.9.668,2.86,3.92,2.86,3.92Z" transform="translate(-263.977 -121.23)" fill="#d7a387"/>
          <path id="Path_5363" data-name="Path 5363" d="M267.027,124.673c-1.186-2.287-1.583-.4-1.583-.4.316-.969,1-.136,1.375.894-.27-.041-.592.035-.493.695,0,0,.067-.664.607-.34.015.055.031.109.045.164.288,1.183-.223.773-.078,1.636C267.368,127.674,267.719,126.008,267.027,124.673Z" transform="translate(-264.982 -122.768)" fill="#b9836a"/>
        </g>
        <path id="Path_5364" data-name="Path 5364" d="M238.358,97.946c0,11.134-4.9,17.717-10.776,18.245a8.456,8.456,0,0,1-.992.033c-1.849-.045-3.961-4.622-4.013-10.863-.036-4.283.4-10.013,5.72-12.1.287-.113.586-.216.9-.306C234.851,91.334,238.358,94.87,238.358,97.946Z" transform="translate(-221.557 -87.406)" fill="#d7a387"/>
        <path id="Path_5365" data-name="Path 5365" d="M243.5,99.881c0,9.446-3.526,15.62-8.187,17.6a8.463,8.463,0,0,1-.992.033c-1.849-.045-3.961-4.622-4.013-10.863-.036-4.283.4-10.013,5.72-12.1C240.677,94,243.5,97.124,243.5,99.881Z" transform="translate(-229.284 -88.694)" fill="#eebd9b"/>
        <g id="Group_13149" data-name="Group 13149" transform="translate(2.722 21.277)">
          <path id="Path_5366" data-name="Path 5366" d="M250.506,143.762a3.118,3.118,0,0,0,2.858-2.194,2.633,2.633,0,0,0,.056-.868s-1,.973-4.934,1.312c-.216.02-.442.036-.674.05C247.812,142.062,247.885,143.911,250.506,143.762Z" transform="translate(-247.812 -140.7)" fill="#8d2e1d"/>
          <path id="Path_5367" data-name="Path 5367" d="M247.812,142.012l.1.429a6.176,6.176,0,0,0,4.774-.874,2.633,2.633,0,0,0,.056-.868S251.75,141.673,247.812,142.012Z" transform="translate(-247.137 -140.7)" fill="#fff"/>
          <path id="Path_5368" data-name="Path 5368" d="M251.46,146.7s-.726-.473-.791-.052,1.336.847,2.037.164S252.307,145.964,251.46,146.7Z" transform="translate(-248.265 -144.37)" fill="#d43a74"/>
        </g>
        <g id="Group_13150" data-name="Group 13150" transform="translate(14.306 16.386)">
          <path id="Path_5369" data-name="Path 5369" d="M216.636,127.068s4.966-2.736,3.851,1.014a4.636,4.636,0,0,1-4.559,3.546Z" transform="translate(-215.928 -126.105)" fill="#d7a387"/>
          <path id="Path_5370" data-name="Path 5370" d="M218.835,129.337c2-2.128,2.229-.2,2.229-.2-.27-1-1.341-.256-2.027.722.376-.009.8.106.558.749,0,0,.019-.667-.773-.411-.03.052-.061.1-.089.157-.591,1.14.176.795-.165,1.633C217.869,132.275,217.667,130.578,218.835,129.337Z" transform="translate(-217.036 -127.588)" fill="#b9836a"/>
        </g>
        <path id="Path_5371" data-name="Path 5371" d="M237.628,113.4s2.194-1.409,3.442.725c0,0-.966-1.127-3.341-.423Z" transform="translate(-229.314 -100.967)" fill="#263238"/>
        <path id="Path_5372" data-name="Path 5372" d="M260.343,112.014a1.868,1.868,0,0,0-3,.425s.934-1.038,2.881-.133Z" transform="translate(-255.195 -99.954)" fill="#263238"/>
        <path id="Path_5373" data-name="Path 5373" d="M234.926,87.017a5.9,5.9,0,0,0-1.12-2.451c-.565-.7-1.428-.984-1.92-1.712a7.2,7.2,0,0,0-.815-.966l-.159-.162c-2.537-2.554-5.954-5.128-9.768-4.39a9.5,9.5,0,0,0-1.531.449,5.259,5.259,0,0,0-1.761.988,4.491,4.491,0,0,0-.74.93,5.3,5.3,0,0,0-.854,3.671,3.561,3.561,0,0,0,1.3,2.166,2.6,2.6,0,0,0,.214,1.539c.356.672.706.231,1.243-.09,2.406-1.438,5.646-2.677,8.413-1.65.7.258.752.435.791,1.125a7.867,7.867,0,0,0,.377,2.022,8.581,8.581,0,0,0,2.471,3.8l-.705,4.431c1.649-2.9,3.247-3.168,3.247-3.168a10.038,10.038,0,0,0,.976-2.107A8.283,8.283,0,0,0,234.926,87.017Z" transform="translate(-216.151 -77.208)" fill="#263238"/>
        <path id="Path_5374" data-name="Path 5374" d="M255.62,128.162a.324.324,0,0,0-.014.193c.042.119.2.146.323.112a1.4,1.4,0,0,0,.533-.408c.216-.205.4-.187.689-.211a.922.922,0,0,0,.224-.038.464.464,0,0,0,.3-.365.539.539,0,0,0-.1-.356.9.9,0,0,1-.121-.437,6.3,6.3,0,0,1,.07-1.16c.046-.352.236-1.341-.376-.912-.395.277-.7,1.329-.885,1.769A15.219,15.219,0,0,0,255.62,128.162Z" transform="translate(-251.946 -108.635)" fill="#c26f50"/>
        <path id="Path_5375" data-name="Path 5375" d="M255.652,85.548a3.39,3.39,0,0,1,.252-2.975,2.206,2.206,0,0,0-.167,1.515,4.915,4.915,0,0,1,1.419-2.576,5.231,5.231,0,0,0-.581,1.954,5.1,5.1,0,0,1,2.611-2.918,4.822,4.822,0,0,0-1.043,1.727,5.049,5.049,0,0,1,2.336-1.714,9.466,9.466,0,0,0-1.787,1.806,3.191,3.191,0,0,0-.592,2.407,3.951,3.951,0,0,1,1.01-1.678,2.634,2.634,0,0,0-.429,2.2,2.161,2.161,0,0,0,1.589,1.531,7.281,7.281,0,0,1-1.888.38l.863.234c-.383-.1-.922.157-1.335.1a2.513,2.513,0,0,1-.879-.373A3.387,3.387,0,0,1,255.652,85.548Z" transform="translate(-254.686 -79.429)" fill="#f0f0f0" opacity="0.18"/>
        <path id="Path_5376" data-name="Path 5376" d="M228.367,90.214q.449.384.867.8a4.158,4.158,0,0,0-.737-1.429,5.356,5.356,0,0,1,1.215,1.1,8.012,8.012,0,0,0-1.114-1.563,7.343,7.343,0,0,1,1.986,2.081.339.339,0,0,0-.444.007c-.031.03-.062.069-.106.072a.145.145,0,0,1-.089-.036l-.295-.207a.693.693,0,0,1,.117.438l-.346-.133a.538.538,0,0,0,.017.225.339.339,0,0,1-.15-.1c-.013.1-.027.2-.04.294C229.317,91.276,228.64,90.544,228.367,90.214Z" transform="translate(-215.725 -85.13)" fill="#f0f0f0" opacity="0.18"/>
        <path id="Path_5377" data-name="Path 5377" d="M257.683,103.571a1.367,1.367,0,0,0,.979.719,1.564,1.564,0,0,1-.759-1.145,1.635,1.635,0,0,1,.434-1.282A1.144,1.144,0,0,0,257.683,103.571Z" transform="translate(-253.574 -93.6)" fill="#263238"/>
        <path id="Path_5378" data-name="Path 5378" d="M234.236,91.215a7.244,7.244,0,0,1,.947,1.71l-1.38-1.274a5.292,5.292,0,0,1,.866,1.556l-.713-.509a1.809,1.809,0,0,1,.4.7l-.5-.365.2.378-1.134-.773,1.636,1.514a2.515,2.515,0,0,0-.147-.638,1.5,1.5,0,0,1,.319.33.237.237,0,0,0,0-.247l.276.2.012-.333.237.182.021-.335c-.009.14.479.448.588.51A5.189,5.189,0,0,0,234.236,91.215Z" transform="translate(-222.529 -86.521)" fill="#f0f0f0" opacity="0.18"/>
        <g id="Group_13152" data-name="Group 13152" transform="translate(9.663 14.408)">
          <path id="Path_5379" data-name="Path 5379" d="M241.683,122.094a.509.509,0,0,0,.037.107.325.325,0,0,0,.242.194c.287.033.287-.478.315-.662.042-.27.313-1.614-.129-1.529-.23.044-.356.417-.4.615a4.073,4.073,0,0,0-.09,1.067A1.139,1.139,0,0,0,241.683,122.094Z" transform="translate(-241.654 -120.201)" fill="#424243"/>
          <g id="Group_13151" data-name="Group 13151" transform="translate(0.264 0.407)">
            <ellipse id="Ellipse_219" data-name="Ellipse 219" cx="0.131" cy="0.131" rx="0.131" ry="0.131" transform="translate(0.081)" fill="#fff"/>
            <path id="Path_5380" data-name="Path 5380" d="M242.924,122.289a.04.04,0,1,1-.04-.041A.04.04,0,0,1,242.924,122.289Z" transform="translate(-242.843 -121.969)" fill="#fff"/>
          </g>
        </g>
        <g id="Group_13154" data-name="Group 13154" transform="translate(3.486 13.717)">
          <path id="Path_5381" data-name="Path 5381" d="M260.116,120.032a.544.544,0,0,0,.036.107.324.324,0,0,0,.242.194c.287.033.287-.478.315-.662.042-.269.313-1.614-.129-1.529-.23.044-.356.417-.4.615a4.076,4.076,0,0,0-.09,1.067A1.137,1.137,0,0,0,260.116,120.032Z" transform="translate(-260.087 -118.139)" fill="#424243"/>
          <g id="Group_13153" data-name="Group 13153" transform="translate(0.372 0.39)">
            <ellipse id="Ellipse_220" data-name="Ellipse 220" cx="0.131" cy="0.131" rx="0.131" ry="0.131" transform="translate(0.081)" fill="#fff"/>
            <ellipse id="Ellipse_221" data-name="Ellipse 221" cx="0.04" cy="0.04" rx="0.04" ry="0.04" transform="translate(0 0.279)" fill="#fff"/>
          </g>
        </g>
        <path id="Path_5382" data-name="Path 5382" d="M243.039,91.081a.952.952,0,0,1,.151-.806,2.83,2.83,0,0,1,.6-.6,1.615,1.615,0,0,0-.206.663,1.654,1.654,0,0,1,.926-.93,3.253,3.253,0,0,1,1.322-.222,2.313,2.313,0,0,0-.828.5,1.844,1.844,0,0,1,1.372.014,5.461,5.461,0,0,1,1.214.7,2.771,2.771,0,0,0-.955-.182,5.879,5.879,0,0,1,2.493,1.751,3.69,3.69,0,0,0-2.508-.319,6.388,6.388,0,0,0-.746.364,4.751,4.751,0,0,1-1.262.428,2.546,2.546,0,0,1-1.036.013,1.33,1.33,0,0,1-.844-.566.907.907,0,0,1,.007-.984" transform="translate(-239.034 -85.175)" fill="#f0f0f0" opacity="0.18"/>
        <path id="Path_5383" data-name="Path 5383" d="M221.2,106.637a10.251,10.251,0,0,1-.8-2.872,6.845,6.845,0,0,1,1.3,4.1,7.012,7.012,0,0,0,1.58-4.3,4.087,4.087,0,0,0-2.376-3.713l.8,1.493a9.688,9.688,0,0,0-2.219-1.4,16.87,16.87,0,0,1,.7,2.209c-.061-.253-.511-.65-.655-.885-.206-.334-.351-.693-.529-1.038-.788.943-.29,2.079.1,3.042A10.885,10.885,0,0,0,221.2,106.637Z" transform="translate(-205.141 -92.264)" fill="#f0f0f0" opacity="0.18"/>
      </g>
    </g>
    <g id="Group_39369" data-name="Group 39369" transform="translate(245.456 2040.672)">
      <g id="Group_39236" data-name="Group 39236" transform="translate(26.497 106.697)">
        <path id="Path_10523" data-name="Path 10523" d="M1003.217,1612.891s2.915,4.941,4.146,5.75c1.671,1.1.624,2.2-.169,2.2s-4.845.291-5.738-.723-1.336-4.05-2.17-4.844-1.591-3.724.4-4.718C1001.881,1609.469,1003.217,1612.891,1003.217,1612.891Z" transform="translate(-998.423 -1610.346)" fill="#e55353"/>
      </g>
      <g id="Group_39237" data-name="Group 39237" transform="translate(27.698 106.653)">
        <path id="Path_10524" data-name="Path 10524" d="M1002.03,1610.305s3.17,6.2,3.745,7.058-1.085.854-2.11.448-3.7-4.522-3.985-5.316a4.45,4.45,0,0,1-.079-1.936Z" transform="translate(-999.53 -1610.305)" fill="#3b3b40"/>
      </g>
      <g id="Group_39238" data-name="Group 39238" transform="translate(26.647 110.183)">
        <path id="Path_10525" data-name="Path 10525" d="M998.561,1613.559l.77,5.933.408.018-.127-4.268Z" transform="translate(-998.561 -1613.559)" fill="#e55353"/>
      </g>
      <g id="Group_39239" data-name="Group 39239" transform="translate(1.592 100.874)">
        <path id="Path_10526" data-name="Path 10526" d="M980.172,1608.527s.7,5.695,1.5,6.926c1.094,1.672-.308,2.27-1.036,1.953s-4.557-1.668-4.972-2.954.393-4.246-.051-5.306.029-4.05,2.256-4.164C980.314,1604.86,980.172,1608.527,980.172,1608.527Z" transform="translate(-975.467 -1604.978)" fill="#e55353"/>
      </g>
      <g id="Group_39240" data-name="Group 39240" transform="translate(3.296 100.88)">
        <path id="Path_10527" data-name="Path 10527" d="M980.071,1605.717s.429,6.953.614,7.968-1.335.349-2.115-.434-1.582-5.621-1.531-6.462a4.441,4.441,0,0,1,.7-1.805Z" transform="translate(-977.038 -1604.984)" fill="#3b3b40"/>
      </g>
      <g id="Group_39241" data-name="Group 39241" transform="translate(0 103.432)">
        <path id="Path_10528" data-name="Path 10528" d="M975.663,1607.336l-1.663,5.75.367.18,1.588-3.963Z" transform="translate(-974 -1607.336)" fill="#e55353"/>
      </g>
      <g id="Group_39242" data-name="Group 39242" transform="translate(21.549 19.551)">
        <path id="Path_10529" data-name="Path 10529" d="M1003.136,1564.288c-.094-.461-3.616-7.283-4.25-9.338s-1.18-3.939-1.5-4.752c-.022-.053-.056-.146-.1-.272-.217-.6-.684-1.953-1.169-3.21-.034-.088-.067-.176-.1-.263l-.049-.481c-.341-.868,0-1.375,0-2.069a2.085,2.085,0,0,0-.109-.692.067.067,0,0,0-.01-.028,15.546,15.546,0,0,1-.76-2.766c-.2-1.907-1.227-10.395-1.227-10.395s3.337,1.728,3.708,3.062c.563,2.023,1.137,5.033,1.279,5.96s1.595,8.633,1.9,10.2a20.475,20.475,0,0,0,1.085,3.932c.434,1.036,3.335,10.278,3.514,11.105S1003.23,1564.751,1003.136,1564.288Z" transform="translate(-993.862 -1530.022)" fill="#eea886"/>
        <path id="Path_10530" data-name="Path 10530" d="M1002.394,1560.716a17.211,17.211,0,0,1-.29,2.208,30.581,30.581,0,0,0,.44,4.4c.077.365.286.108.371-.156.049-.151.078-1.363.193-2.023.1-.554.217-.777.342-.622a11.592,11.592,0,0,1,.6,3.278c-.047.967.514,3.082.955,2.692s.951-4.47.614-5.918a19.416,19.416,0,0,0-1.162-3.2Z" transform="translate(-993.162 -1527.415)" fill="#eea886"/>
      </g>
      <g id="Group_39243" data-name="Group 39243" transform="translate(17.326 48.224)">
        <path id="Path_10531" data-name="Path 10531" d="M991.109,1569.415c.145.7,1.074,3.636,2.115,6.9h0c.949,2.973,1.99,6.217,2.615,8.287.233.773.408,1.381.5,1.751.6,2.451-.074,6.292-.292,9.507s4.448,21.215,4.448,21.215c.817.381,2.351-2.194,2.351-2.194-.6-1.144-.515-21.448-.187-22.7a19.026,19.026,0,0,0,.217-6.1,5.293,5.293,0,0,1-.109-1.093c-.027-1.719.325-4.557.543-7.675.272-3.921-1.252-13.67-1.469-14.538-.021-.08-.052-.193-.092-.331-.4-1.367-1.694-5.249-1.694-5.249a12.825,12.825,0,0,0-6.064-.621,4.507,4.507,0,0,0-3.557,3.052C989.15,1563.167,990.922,1568.5,991.109,1569.415Z" transform="translate(-989.97 -1556.45)" fill="#3b3b40"/>
      </g>
      <g id="Group_39244" data-name="Group 39244" transform="translate(3.719 45.489)">
        <path id="Path_10532" data-name="Path 10532" d="M977.428,1609.8l2.653.933c.45-2.177,11.221-17.417,11.879-19.1a24.651,24.651,0,0,0,1.357-6.154c0-.217.015-.575.045-1.044.116-1.816.449-5.24.925-7.906.089-.5.182-.968.281-1.4.527-2.3.62-10.154.625-14.772,0-2.056-.011-3.472-.011-3.472s-.046-.037-.131-.1c-.994-.752-7.363-5.332-9.584-1.05a12.876,12.876,0,0,0-1.2,3.613c-.713,3.882-.014,8.253.562,12.236.491,3.408,1.433,8.223,1.7,11.8a8.925,8.925,0,0,1-.348,4.329c-1.253,2.179-2.478,4.022-5.011,11.708C980.349,1601.917,977.428,1609.8,977.428,1609.8Z" transform="translate(-977.428 -1553.929)" fill="#3b3b40"/>
      </g>
      <g id="Group_39245" data-name="Group 39245" transform="translate(8.637 0)">
        <path id="Path_10533" data-name="Path 10533" d="M996.364,1520.8s1.385-8.961-6.036-8.8-7.323,4.6-7.191,8.994,2.976,4.067-.231,10.185,2.779,6.118,2.779,6.118l4.645-6.382Z" transform="translate(-981.961 -1512.001)" fill="#3c4145"/>
      </g>
      <g id="Group_39246" data-name="Group 39246" transform="translate(11.372 0.756)">
        <path id="Path_10534" data-name="Path 10534" d="M990.925,1512.8s5.026.794,5.224,7.936-1.356,8.664-5.75,7.176-5.787-8.962-5.886-10.119S984.147,1511.943,990.925,1512.8Z" transform="translate(-984.482 -1512.698)" fill="#eea886"/>
      </g>
      <g id="Group_39247" data-name="Group 39247" transform="translate(8.988 18.214)">
        <path id="Path_10535" data-name="Path 10535" d="M982.285,1536.28c-.019,2.46,2.808,8.339,3.244,10.154s1.126,2.4.543,4.719-2.387,10.184-2.308,10.874,16.2,3.233,18.631,2.761c0,0-2.973-11.1-3.191-12.368a56.419,56.419,0,0,1,.374-7.378c.109-1.343,1.469-4.231,1.423-5.581a8.07,8.07,0,0,0-1.664-4.021c-.292-.455-.6-.917-.9-1.367a25.934,25.934,0,0,0-2.487-3.255,7.941,7.941,0,0,0-1-.8h0a4.649,4.649,0,0,0-1.031-.542l-4.32-.69s-2.692.977-4.242,1.337C985.353,1530.125,982.331,1530.566,982.285,1536.28Z" transform="translate(-982.285 -1528.789)" fill="#f54242"/>
      </g>
      <g id="Group_39248" data-name="Group 39248" transform="translate(21.649 19.445)">
        <path id="Path_10536" data-name="Path 10536" d="M993.954,1529.925l2.5,3.946,2.311,3.642c0-.019-.158-.571-.42-2.17-.05-.3-.109-.644-.161-1.026a2.982,2.982,0,0,0-.072-.336h0c-.99-2.278-4.048-4-4.16-4.057Z" transform="translate(-993.954 -1529.924)" fill="#f54242"/>
      </g>
      <g id="Group_39250" data-name="Group 39250" transform="translate(14.437 12.651)">
        <path id="Path_10538" data-name="Path 10538" d="M987.328,1523.766c.434.822.9,5.93.9,5.93s6.148,2.324,5.518,1.009a5.02,5.02,0,0,1-.374-2.037,9.456,9.456,0,0,1,.068-1.24c.015-.135.028-.217.028-.217S986.894,1522.945,987.328,1523.766Z" transform="translate(-987.307 -1523.661)" fill="#eea886"/>
      </g>
      <path id="Path_10547" data-name="Path 10547" d="M993.525,1529.478s2.9,4.454,1.916,4.843-6.292-.52-8.545-4.75A7.951,7.951,0,0,1,993.525,1529.478Z" transform="translate(-972.905 -1510.574)" fill="#eea886"/>
      <path id="Path_10541" data-name="Path 10541" d="M998.106,1533.958h0a5.18,5.18,0,0,1,.244,1.39l-.9-1.367s-1.619-2.318-2.17-2.922a9.274,9.274,0,0,0-1.315-1.131S997.139,1531.456,998.106,1533.958Z" transform="translate(-972.305 -1510.479)" fill="#f54242"/>
      <g id="Group_39251" data-name="Group 39251" transform="translate(10.966 0.636)">
        <path id="Path_10539" data-name="Path 10539" d="M993.007,1517.938s-2.579,4.2-4.928,5.853-1.158,2.976-1.158,2.976-6.125-12.9-.3-13.789,9.4-.959,9.562,7.771C996.181,1520.748,993.536,1517.871,993.007,1517.938Z" transform="translate(-984.107 -1512.587)" fill="#3c4145"/>
      </g>
      <path id="Path_10714" data-name="Path 10714" d="M988.174,1528.994s7.676,4.444,9.078,8.952c0,0,1.094-2.561-2.195-7.906,0,0,.712-1.564,2.32,1.579a48.045,48.045,0,0,1,4.233,5.908c.465.961,1.3,4.8-3.033,5.71,0,0-3.479,3.543-6.81-2.269s-1.84-8.915-5.762-10.928c0,0-2.1,12.911-.894,16.795,0,0-.743,9.246-.743,12.287,0,1.161-4.359,1.977-3.08-7.207.231-1.661.257-8.052.257-8.052S979.064,1525.7,988.174,1528.994Z" transform="translate(-973.401 -1510.592)" fill="#6969a8"/>
      <g id="Group_39252" data-name="Group 39252" transform="translate(17.06 15.89)">
        <path id="Path_10540" data-name="Path 10540" d="M989.725,1526.647c.944,1.392,3.437,1.766,3.437,1.766h0a9.865,9.865,0,0,1,.068-1.24A7.03,7.03,0,0,1,989.725,1526.647Z" transform="translate(-989.725 -1526.647)" fill="#a77860"/>
      </g>
      <path id="Path_10542" data-name="Path 10542" d="M997.795,1538.319l-9.688-.8a.747.747,0,0,0-.805.681v.007l-1.2,16.049a.746.746,0,0,0,.667.8l9.3.958a.745.745,0,0,0,.818-.665v0l1.588-16.2a.747.747,0,0,0-.666-.817Z" transform="translate(-972.973 -1509.834)" fill="#2f4563"/>
      <path id="Path_10543" data-name="Path 10543" d="M988.453,1548.339s1.836.307,2.007.28.9-1.216,1.736-1.43a17.234,17.234,0,0,0,2.15-.542c.259-.162.326.663-.477,1s-1.01.788.5,1.092c.836.168,3.963-.181,3.7.347-.152.31-3.165.532-3.165.532a19.9,19.9,0,0,1,3.363.181c.217.387-3.043.524-3.18.511,0,0,2.795.161,2.821.411.03.311-2.8.179-2.774.23,0,0,2.221.153,2.2.343-.029.249-1.984.279-2.363.234s-4.208-.481-4.852-.608-1.726-.2-1.726-.2Z" transform="translate(-972.777 -1509.06)" fill="#eea886"/>
      <path id="Path_10544" data-name="Path 10544" d="M985.3,1547.288a33.029,33.029,0,0,0,3.505,1c1.688.357-.056,2.38-.056,2.38s-2.924-.27-4.329-.407C983.74,1550.189,985.3,1547.288,985.3,1547.288Z" transform="translate(-973.13 -1509.004)" fill="#eea886"/>
      <path id="Path_10715" data-name="Path 10715" d="M983.482,1558.179s1.054-11.32.862-15.967C984.344,1542.212,982.349,1553.064,983.482,1558.179Z" transform="translate(-973.224 -1509.435)" fill="#424272"/>
      <path id="Path_10546" data-name="Path 10546" d="M984.315,1571.159c.491,3.408,1.434,8.223,1.706,11.8,0,0,2.78.554,6.835,1.053,1.1.135,2.286.266,3.54.381,2.17.2,4.532.349,6.926.386-.027-1.719.325-4.557.542-7.675.271-3.921-1.252-13.67-1.47-14.538-.021-.08-.052-.193-.092-.331a25.82,25.82,0,0,0-7.615-2.3c-1.25-.217-2.506-.385-3.7-.52-3.73-.418-6.845-.483-7.229-.489C983.043,1562.8,983.741,1567.176,984.315,1571.159Z" transform="translate(-973.197 -1508.016)" fill="#f54242"/>
      <g id="Group_39249" data-name="Group 39249" transform="translate(5.947 19.636)">
        <path id="Path_10537" data-name="Path 10537" d="M982.67,1534.093s.694-4.682,4.123-3.906c3.3.741.207,6.88-.035,7.605s-2.683,6.663-2.895,7.44c-.669,2.459-.042,2.517.966,3.1,2.973,1.712,9.085,1.6,9.79,2.07a1.085,1.085,0,0,1-.521,1.987c-1.541.066-10.346-.759-11.575-.883-1.193-.116-3.562-.217-2.939-4.448C980,1544.2,982.67,1534.093,982.67,1534.093Z" transform="translate(-979.482 -1530.1)" fill="#eea886"/>
      </g>
      <path id="Path_10545" data-name="Path 10545" d="M986.905,1537.4a34.742,34.742,0,0,0-5.113-1.638s.794-6.336,4.665-5.664S986.905,1537.4,986.905,1537.4Z" transform="translate(-973.338 -1510.468)" fill="#f54242"/>
      <path id="Path_10716" data-name="Path 10716" d="M996.173,1532.425s3.375,4.024,2.407,7.133-.561-.291-.561-.291A21.37,21.37,0,0,0,996.173,1532.425Z" transform="translate(-972.117 -1510.266)" fill="#424272"/>
      <path id="Path_10717" data-name="Path 10717" d="M986.682,1530.022s1.965.589,3.567,8.129l1.488.307S989.033,1531.334,986.682,1530.022Z" transform="translate(-972.923 -1510.47)" fill="#424272"/>
      <path id="Path_10718" data-name="Path 10718" d="M988.646,1529.924s7.36,4.585,7.96,8.959l-2.932-.243A27.113,27.113,0,0,0,988.646,1529.924Z" transform="translate(-972.756 -1510.479)" fill="#7373d8"/>
    </g>
    <g id="Group_39371" data-name="Group 39371" transform="translate(318.147 2038.503)">
      <g id="Group_39370" data-name="Group 39370" transform="translate(0 0.008)">
        <g id="Group_39259" data-name="Group 39259" transform="translate(9.465 57.297)">
          <path id="Path_10550" data-name="Path 10550" d="M1067.51,1565.2l-5.963-.8a1.11,1.11,0,0,1-.951-1.245l.506-3.758a1.11,1.11,0,0,1,1.245-.95l5.963.8a1.11,1.11,0,0,1,.95,1.246l-.506,3.758A1.109,1.109,0,0,1,1067.51,1565.2Zm-5.26-6.021a.366.366,0,0,0-.409.314l-.5,3.758a.365.365,0,0,0,.313.409l5.962.8a.364.364,0,0,0,.408-.314l.507-3.759a.365.365,0,0,0-.312-.408Z" transform="translate(-1060.587 -1558.438)" fill="#0e1e2b"/>
        </g>
        <g id="Group_39264" data-name="Group 39264" transform="translate(11.639 53.722)">
          <g id="Group_39263" data-name="Group 39263">
            <g id="Group_39262" data-name="Group 39262">
              <g id="Group_39261" data-name="Group 39261">
                <g id="Group_39260" data-name="Group 39260">
                  <path id="Path_10551" data-name="Path 10551" d="M1062.776,1560.828a2.157,2.157,0,0,1-.185-.665s.047-.419.063-.718a1.844,1.844,0,0,0,0-.232,3.946,3.946,0,0,1-.017-1.263,26.215,26.215,0,0,1,1.185-2.807l1.384.234,1.327.036a26.663,26.663,0,0,1,1.135,3.755c0,.05-.011.1-.019.148a5.028,5.028,0,0,1-.388.963c-.025.083-.331.893-.575.977a.846.846,0,0,1-.817-.091,2.023,2.023,0,0,1-1.111.015,1.257,1.257,0,0,1-1.095-.18S1063.015,1561.139,1062.776,1560.828Z" transform="translate(-1062.591 -1555.143)" fill="#eea886"/>
                </g>
              </g>
            </g>
          </g>
        </g>
        <g id="Group_39265" data-name="Group 39265" transform="translate(11.821 18.108)">
          <path id="Path_10552" data-name="Path 10552" d="M1074.2,1532.118c-.232.358-1.1,2.368-2.016,4.513h0l-.452,1.066-.362.846-.381.888c-.512,1.194-.945,2.189-1.166,2.638a51.689,51.689,0,0,0-1.661,6.762c-.216.909-.9,9.77-.9,9.77s-4.607.411-4.5.051,1.052-9.943,1.282-11.393c.3-1.905,1.65-7.076,1.8-7.463s3.222-8.534,3.611-9.922a14.122,14.122,0,0,1,2.593-5.637,3.884,3.884,0,0,1,4.688-1.683C1078.952,1523.876,1074.677,1531.385,1074.2,1532.118Z" transform="translate(-1062.758 -1522.317)" fill="#5b94e2"/>
        </g>
        <g id="Group_39266" data-name="Group 39266" transform="translate(0.285 60.545)">
          <rect id="Rectangle_2717" data-name="Rectangle 2717" width="16.17" height="22.569" transform="translate(0 16.025) rotate(-82.339)" fill="#665955"/>
        </g>
        <g id="Group_39267" data-name="Group 39267" transform="translate(1.192 60.544)">
          <rect id="Rectangle_2718" data-name="Rectangle 2718" width="9.373" height="22.569" transform="translate(0 9.289) rotate(-82.339)" fill="#877671"/>
        </g>
        <path id="Path_10553" data-name="Path 10553" d="M1073.784,1521.364a14.535,14.535,0,0,0,0-3.7s5.522,2.552,4.565,3.244a1.737,1.737,0,0,0-.542.942,11.086,11.086,0,0,0-.235,2.956l1.826,2.13C1081.017,1529.157,1073.646,1522.1,1073.784,1521.364Z" transform="translate(-1050.001 -1504.603)" fill="#eea886"/>
        <g id="Group_39269" data-name="Group 39269" transform="translate(0 97.186)">
          <g id="Group_39268" data-name="Group 39268">
            <path id="Path_10554" data-name="Path 10554" d="M1058.783,1596.9s.576,1.968,1.12,4.406,2.748,4.166,3.072,4.589,1.777,2.117.564,2.369-6.328-2.821-7.764-4.637c0,0-.877-1.735-.992-1.833s-.8.447-.8.447l-1.308-.814a6.471,6.471,0,0,1-.76-.594c-.205-.217.218-1.482.285-1.607.076-.14,2.216-3.2,3.641-3.893S1058.783,1596.9,1058.783,1596.9Z" transform="translate(-1051.863 -1595.204)" fill="#34395c"/>
          </g>
        </g>
        <g id="Group_39271" data-name="Group 39271" transform="translate(36.692 107.809)">
          <g id="Group_39270" data-name="Group 39270">
            <path id="Path_10555" data-name="Path 10555" d="M1089.439,1605.338s1.612,1.273,3.475,2.95,4.593,1.84,5.095,2,2.63.72,1.84,1.6-6.571,1.265-8.756.6c0,0-1.705-.916-1.851-.932s-.353.809-.353.809l-1.5.075a6.214,6.214,0,0,1-.94-.055c-.287-.061-.687-1.3-.731-1.464s-.175-3.84.518-5.2S1089.439,1605.338,1089.439,1605.338Z" transform="translate(-1085.683 -1604.996)" fill="#3c4169"/>
          </g>
        </g>
        <g id="Group_39273" data-name="Group 39273" transform="translate(3.864 93.805)">
          <g id="Group_39272" data-name="Group 39272">
            <path id="Path_10556" data-name="Path 10556" d="M1060,1593.977a33.689,33.689,0,0,0-1.585,3.423c-.085.51-2.453.6-2.987-1.542,0,0,1.734-3.673,1.671-3.767S1060,1593.977,1060,1593.977Z" transform="translate(-1055.424 -1592.088)" fill="#eea886"/>
          </g>
        </g>
        <g id="Group_39275" data-name="Group 39275" transform="translate(4.2 51.785)">
          <g id="Group_39274" data-name="Group 39274">
            <path id="Path_10557" data-name="Path 10557" d="M1075.552,1565.447s-.159.6-.411,1.549c-.164.616-.369,1.381-.594,2.225-1.032,3.857-2.526,9.389-2.812,10.17a27.846,27.846,0,0,1-2.87,5.028c-.327.211-8.559,15.032-8.805,15.723,0,0-3.635-1.452-4.325-2.583,0,0,5.438-16.206,7.749-19.1,2.231-2.785,1.563-18.943,3.509-23.894S1076.695,1561.169,1075.552,1565.447Z" transform="translate(-1055.734 -1553.357)" fill="#34395c"/>
          </g>
        </g>
        <g id="Group_39277" data-name="Group 39277" transform="translate(36.371 104.712)">
          <g id="Group_39276" data-name="Group 39276">
            <path id="Path_10558" data-name="Path 10558" d="M1088.75,1602.141a34.475,34.475,0,0,0,.8,3.668c.237.461-1.546,1.867-3.224.429,0,0-.831-3.952-.935-3.995S1088.75,1602.141,1088.75,1602.141Z" transform="translate(-1085.387 -1602.141)" fill="#eea886"/>
          </g>
        </g>
        <g id="Group_39279" data-name="Group 39279" transform="translate(15.736 48.101)">
          <g id="Group_39278" data-name="Group 39278">
            <path id="Path_10559" data-name="Path 10559" d="M1080.546,1555.815s5.256,18,5.788,20.661-.152,4.792.181,5.917,4.146,25.777,4.146,25.777-3.84,1.519-5.367.523c0,0-4.191-16.433-5.17-19.161-.919-2.561-.992-7.484-2.169-10.791-.824-2.317-12.211-20.626-11.561-26.779S1080.546,1555.815,1080.546,1555.815Z" transform="translate(-1066.367 -1549.962)" fill="#393d63"/>
          </g>
        </g>
        <path id="Path_10561" data-name="Path 10561" d="M1077.993,1506.366a6.213,6.213,0,0,1,6.366,5.876,15.009,15.009,0,0,1-.531,2.326c-.347,1.02.489,4.08.245,4.224a6.6,6.6,0,0,1-1.244.306s-1.163,3.285-2.326,3.223a9.659,9.659,0,0,1-7.5-5.278C1071.042,1512.861,1070.579,1506.515,1077.993,1506.366Z" transform="translate(-1050.173 -1505.563)" fill="#eea886"/>
        <path id="Path_10562" data-name="Path 10562" d="M1084.4,1512.3a16.511,16.511,0,0,1-6,2.272c-2.964.326-4.938,3.322-4.938,3.322s-4.34-5.771-.584-10.232S1085.2,1506.66,1084.4,1512.3Z" transform="translate(-1050.208 -1505.626)" fill="#3b3b40"/>
        <path id="Path_10563" data-name="Path 10563" d="M1082.745,1538.211c-.912.96-.163,3.183-.285,4.448-.032.337-.139,1.445-.285,2.914-.152,1.519-.348,3.421-.55,5.255h0c-.08.734-.163,1.455-.244,2.137a37.608,37.608,0,0,1-.651,4.369c-.449,1.265-10.454,1.326-14.412-2.96,0,0-.7-1.41,3.847-9.618.91-1.646.017-9.812-.717-11.974s-.995-9.513,4.981-11.712c0,0,3.59,3.1,4.814,4.489s5.224,6.406,5.591,7.92S1083.738,1537.162,1082.745,1538.211Z" transform="translate(-1050.638 -1504.314)" fill="#5089cc"/>
        <path id="Path_10564" data-name="Path 10564" d="M1078.287,1520.839a1.725,1.725,0,0,0-.542.942,9.524,9.524,0,0,1-3.228-3.269A9.881,9.881,0,0,0,1078.287,1520.839Z" transform="translate(-1049.939 -1504.532)" fill="#a77860"/>
        <path id="Path_10567" data-name="Path 10567" d="M1070.5,1538.9l-.434.812-.455.852c-.2-2.45-.3-8.42-.3-8.42a27.1,27.1,0,0,0,.529,2.707C1070.094,1535.718,1070.447,1538.484,1070.5,1538.9Z" transform="translate(-1050.381 -1503.374)" fill="#3e6499"/>
        <path id="Path_10570" data-name="Path 10570" d="M1072.963,1568.809l-.667,2.272a44.985,44.985,0,0,1-2.505-8.486C1070.291,1563.427,1072.89,1568.7,1072.963,1568.809Z" transform="translate(-1050.34 -1500.788)" fill="#2b2d4a"/>
        <path id="Path_10719" data-name="Path 10719" d="M1077.249,1549.089l49.4,42.345-.505.56-49.968-41.291Z" transform="translate(-1049.798 -1501.935)" fill="#161616"/>
        <path id="Path_10565" data-name="Path 10565" d="M1076.792,1543.674c-.168.328-.721,1.4-1.459,2.824h0c-1.2.529-2.033-13.91,2.085-16.244,0,0-1.39,8.9-1.349,9.4S1076.792,1543.674,1076.792,1543.674Z" transform="translate(-1049.953 -1503.535)" fill="#3e6499"/>
        <path id="Path_10568" data-name="Path 10568" d="M1077.795,1505.633s-7.7-.6-7.357,8.773-1.23,11.832-4.636,16.077-.419,9.537,2.883,6.812a21.938,21.938,0,0,0,7.161-15.461A112.633,112.633,0,0,1,1077.795,1505.633Z" transform="translate(-1050.807 -1505.626)" fill="#3b3b40"/>
        <g id="Group_39258" data-name="Group 39258" transform="translate(31.03 49.738)">
          <g id="Group_39257" data-name="Group 39257">
            <g id="Group_39256" data-name="Group 39256">
              <g id="Group_39255" data-name="Group 39255">
                <g id="Group_39254" data-name="Group 39254">
                  <path id="Path_10549" data-name="Path 10549" d="M1080.565,1557.158a2.206,2.206,0,0,1-.1-.7s.107-.422.163-.729a1.985,1.985,0,0,0,.034-.238,4.1,4.1,0,0,1,.156-1.3,27.674,27.674,0,0,1,1.6-2.718l1.388.432,1.357.218a27.515,27.515,0,0,1,.649,4.009,1.432,1.432,0,0,1-.041.149,5.192,5.192,0,0,1-.53.935c-.038.082-.462.871-.724.923a.872.872,0,0,1-.829-.2,2.09,2.09,0,0,1-1.142-.137,1.3,1.3,0,0,1-1.1-.334S1080.768,1557.511,1080.565,1557.158Z" transform="translate(-1080.464 -1551.471)" fill="#eea886"/>
                </g>
              </g>
            </g>
          </g>
        </g>
        <g id="Group_39281" data-name="Group 39281" transform="translate(20.117 17.916)">
          <path id="Path_10566" data-name="Path 10566" d="M1077.487,1522.234a6.661,6.661,0,0,1,1.712,4.1c-.066,2.174-1.386,4.55-1.7,5.427s-2.362,9.9-2.286,10.225c.169.649,1.414,1.684,4.694,5.477a75.925,75.925,0,0,0,6.132,7.088l-3.68,1.025s-12.364-9.562-11.94-12.648c.455-3.3,1.226-13.245,1.226-13.245S1072.287,1521.155,1077.487,1522.234Z" transform="translate(-1070.405 -1522.14)" fill="#5b94e2"/>
        </g>
        <path id="Path_10569" data-name="Path 10569" d="M1076.868,1513.8a.91.91,0,0,0-1.572-.693c-.958.759.224,3.51,1,3.264S1076.868,1514.387,1076.868,1513.8Z" transform="translate(-1049.903 -1505.015)" fill="#eea886"/>
        <path id="Path_10720" data-name="Path 10720" d="M1082.377,1517a2.853,2.853,0,0,0-1.278-2.679l1.854.146.076,1.192S1082.987,1516.889,1082.377,1517Z" transform="translate(-1049.38 -1504.887)" fill="#b5826b"/>
        <path id="Path_10721" data-name="Path 10721" d="M1076.713,1512.816l7.572.933a.306.306,0,0,1,.253.4l-1.051,3.139-.309-.166.273-2.2-6.737-1.708s-1.741.987-1.773,1.976A2.22,2.22,0,0,1,1076.713,1512.816Z" transform="translate(-1049.904 -1505.015)" fill="#161616"/>
      </g>
      <path id="Path_10722" data-name="Path 10722" d="M1078.495,1515.066s-.053,7.938,2.148,10.379,6.644,9.766,5.186,11.928a2.921,2.921,0,0,1-5.186-.575,27.642,27.642,0,0,1-1.488-4.882s2.1-9.04-2.555-7.943c-2.939.693-4.658,5.889-4.658,5.889l-7.646,2.484s4.741-6.488,5.441-12.738-1.23-14.27,7.45-13.98,7.871,6.137,7.871,6.137Z" transform="translate(-1050.807 -1505.619)" fill="#393d63"/>
      <path id="Path_10723" data-name="Path 10723" d="M1072.769,1508l.217.441.486.071-.352.343.083.484-.435-.229-.435.229.083-.484-.352-.343.486-.071Z" transform="translate(-1050.147 -1505.417)" fill="#fff" opacity="0.8"/>
      <path id="Path_10724" data-name="Path 10724" d="M1075.245,1509.568l.217.441.486.071-.352.343.083.484-.435-.229-.435.229.083-.484-.352-.343.486-.071Z" transform="translate(-1049.937 -1505.283)" fill="#fff" opacity="0.8"/>
      <path id="Path_10725" data-name="Path 10725" d="M1075.893,1506.763l.217.441.486.071-.352.343.083.484-.435-.229-.435.229.083-.484-.352-.343.486-.071Z" transform="translate(-1049.881 -1505.522)" fill="#fff" opacity="0.8"/>
      <path id="Path_10726" data-name="Path 10726" d="M1080.067,1507.594l.217.44.486.071-.352.343.083.484-.435-.229-.435.229.083-.484-.352-.343.486-.071Z" transform="translate(-1049.527 -1505.451)" fill="#fff" opacity="0.8"/>
      <path id="Path_10727" data-name="Path 10727" d="M1079.227,1510.487l.217.441.486.071-.352.343.083.484-.435-.229-.435.229.083-.484-.352-.343.486-.071Z" transform="translate(-1049.598 -1505.205)" fill="#fff" opacity="0.8"/>
      <path id="Path_10728" data-name="Path 10728" d="M1075.406,1512.816l.217.441.486.071-.352.343.083.484-.435-.229-.435.229.083-.484-.352-.343.486-.071Z" transform="translate(-1049.923 -1505.007)" fill="#fff" opacity="0.8"/>
      <path id="Path_10729" data-name="Path 10729" d="M1072.121,1512.316l.218.441.486.071-.352.343.083.484-.435-.229-.435.229.083-.484-.352-.343.486-.071Z" transform="translate(-1050.202 -1505.05)" fill="#fff" opacity="0.8"/>
      <path id="Path_10730" data-name="Path 10730" d="M1070.472,1510.487l-.109.333-.243.053.176.259-.041.366.217-.173.217.173-.042-.366.176-.259-.243-.053Z" transform="translate(-1050.312 -1505.205)" fill="#fff" opacity="0.5"/>
      <path id="Path_10731" data-name="Path 10731" d="M1070.312,1515.175l-.109.333-.243.053.176.259-.042.365.218-.172.217.172-.041-.365.176-.259-.243-.053Z" transform="translate(-1050.326 -1504.807)" fill="#fff" opacity="0.5"/>
      <path id="Path_10732" data-name="Path 10732" d="M1069.987,1519.552l-.109.333-.243.053.176.259-.041.366.217-.173.217.173-.041-.366.176-.259-.243-.053Z" transform="translate(-1050.353 -1504.435)" fill="#fff" opacity="0.5"/>
      <path id="Path_10733" data-name="Path 10733" d="M1068.246,1524.181l-.109.333-.243.053.176.259-.042.366.217-.173.217.173-.041-.366.176-.259-.243-.053Z" transform="translate(-1050.501 -1504.042)" fill="#fff" opacity="0.5"/>
      <path id="Path_10734" data-name="Path 10734" d="M1066.631,1527.662l-.109.333-.243.053.176.259-.041.366.217-.172.217.172-.042-.366.176-.259-.243-.053Z" transform="translate(-1050.638 -1503.747)" fill="#fff" opacity="0.5"/>
      <path id="Path_10735" data-name="Path 10735" d="M1073.856,1506.155l-.185.3.115.22-.311.032-.254.267-.007-.277-.272-.056.307-.2.085-.3.2.152Z" transform="translate(-1050.073 -1505.575)" fill="#fff" opacity="0.7"/>
      <path id="Path_10736" data-name="Path 10736" d="M1078.952,1506.389l-.344.064-.085.234-.234-.208-.368-.007.2-.193-.143-.238.357.089.28-.141.021.248Z" transform="translate(-1049.65 -1505.587)" fill="#fff" opacity="0.7"/>
      <path id="Path_10737" data-name="Path 10737" d="M1082.507,1511.332l-.111-.332-.244-.052.174-.26-.044-.365.219.171.216-.174-.039.366.178.258-.243.055Z" transform="translate(-1049.29 -1505.22)" fill="#fff" opacity="0.7"/>
      <path id="Path_10738" data-name="Path 10738" d="M1073.418,1516.795l.217.44.486.071-.352.343.083.484-.435-.229-.435.229.083-.484-.352-.343.486-.071Z" transform="translate(-1050.092 -1504.67)" fill="#fff" opacity="0.8"/>
      <path id="Path_10739" data-name="Path 10739" d="M1075.56,1515.489l.217.44.486.071-.352.343.083.484-.435-.229-.435.229.083-.484-.352-.343.486-.071Z" transform="translate(-1049.91 -1504.781)" fill="#fff" opacity="0.8"/>
      <path id="Path_10740" data-name="Path 10740" d="M1075.893,1520.254l.217.44.486.071-.352.343.083.484-.435-.229-.435.229.083-.484-.352-.343.486-.071Z" transform="translate(-1049.881 -1504.376)" fill="#fff" opacity="0.8"/>
      <path id="Path_10741" data-name="Path 10741" d="M1072.468,1520.565l.217.44.486.071-.352.343.083.484-.435-.229-.435.229.083-.484-.352-.343.486-.071Z" transform="translate(-1050.172 -1504.35)" fill="#fff" opacity="0.8"/>
      <path id="Path_10742" data-name="Path 10742" d="M1071.109,1524.03l.217.44.486.071-.352.343.083.484-.435-.229-.435.229.083-.484-.352-.343.486-.071Z" transform="translate(-1050.288 -1504.055)" fill="#fff" opacity="0.8"/>
      <path id="Path_10743" data-name="Path 10743" d="M1080.524,1526.208l.218.441.486.071-.352.343.083.484-.435-.229-.435.229.083-.484-.352-.343.486-.071Z" transform="translate(-1049.488 -1503.87)" fill="#fff" opacity="0.8"/>
      <path id="Path_10744" data-name="Path 10744" d="M1081.631,1529.851l.218.44.486.071-.352.343.083.484-.435-.229-.435.229.083-.484-.352-.343.486-.071Z" transform="translate(-1049.394 -1503.561)" fill="#fff" opacity="0.8"/>
      <path id="Path_10745" data-name="Path 10745" d="M1081.173,1533.172l.217.441.486.071-.352.343.083.484-.435-.229-.435.229.083-.484-.352-.343.486-.071Z" transform="translate(-1049.433 -1503.279)" fill="#fff" opacity="0.8"/>
      <path id="Path_10746" data-name="Path 10746" d="M1079.053,1529.941l.164.332.366.053-.265.258.063.364-.327-.172-.327.172.063-.364-.265-.258.366-.053Z" transform="translate(-1049.598 -1503.553)" fill="#fff" opacity="0.8"/>
      <path id="Path_10747" data-name="Path 10747" d="M1083.733,1532.331l.13.264.292.042-.211.206.05.29-.261-.137-.261.137.05-.29-.211-.206.292-.042Z" transform="translate(-1049.192 -1503.35)" fill="#fff" opacity="0.6"/>
    </g>
    <g id="Group_39368" data-name="Group 39368" transform="translate(240.256 1980.984)">
      <g id="Group_39367" data-name="Group 39367" transform="translate(0 0)">
        <path id="Path_10711" data-name="Path 10711" d="M3366.841,1626.925l-41.869,38.762-30.141-1.2,57.7-53.1,1.725,1.875,10.859,11.8Z" transform="translate(-3294.832 -1475.015)" fill="#28c76f"/>
        <rect id="Rectangle_2723" data-name="Rectangle 2723" width="6.638" height="16.036" transform="translate(75.169 145.542) rotate(137.351)" fill="#008454"/>
        <circle id="Ellipse_249" data-name="Ellipse 249" cx="64.693" cy="64.693" r="64.693" transform="translate(36.334 91.489) rotate(-45)" fill="#b8b8b8" opacity="0.2"/>
        <path id="Path_10713" data-name="Path 10713" d="M3744.063,733.147a76.892,76.892,0,1,0,76.891,76.892A76.892,76.892,0,0,0,3744.063,733.147Zm0,149.2c-35.368,0-71.526-30.688-71.526-72.308s36.158-71.089,71.526-71.089,71.264,29.773,71.264,71.089S3779.432,882.347,3744.063,882.347Z" transform="translate(-3616.239 -718.549)" fill="#28c76f"/>
      </g>
    </g>
  </g>
</svg>
