<svg xmlns="http://www.w3.org/2000/svg" width="13.457" height="20" viewBox="0 0 13.457 20">
  <g id="Group_37925" data-name="Group 37925" transform="translate(0)">
    <path id="Path_9517" data-name="Path 9517" d="M-738.143,105.68c0,1.139.011,2.279,0,3.418a2.8,2.8,0,0,1-1.441,2.511,2.887,2.887,0,0,1-4.25-1.85,3.084,3.084,0,0,1-.076-.677q0-3.347,0-6.694a2.881,2.881,0,0,1,2.148-2.816,2.889,2.889,0,0,1,3.588,2.3,3.48,3.48,0,0,1,.04.567v3.238Z" transform="translate(747.757 -99.471)" fill="#00b16a"/>
    <path id="Path_9518" data-name="Path 9518" d="M-804.993,426.524c.04-.011.055.024.076.044a4.786,4.786,0,0,0,2.56,1.308,4.46,4.46,0,0,0,3.1-.573,5.021,5.021,0,0,0,2.279-2.841,3.989,3.989,0,0,0,.2-1.22c0-.07.026-.083.088-.082.582,0,1.164,0,1.747,0,.082,0,.09.032.089.1a6.511,6.511,0,0,1-1.21,3.738,6.651,6.651,0,0,1-4.207,2.742c-.114.024-.229.042-.344.063a.189.189,0,0,1-.123.043,8.55,8.55,0,0,1-1.208.01c-.157-.01-.314-.023-.47-.043a.254.254,0,0,1-.123-.045,7.815,7.815,0,0,1-1.239-.3,6.678,6.678,0,0,1-2.455-1.495c-.032-.03-.065-.059-.1-.089s.012-.065.035-.088q.611-.614,1.225-1.226A.1.1,0,0,1-804.993,426.524Z" transform="translate(808.305 -412.951)" fill="#008454"/>
    <path id="Path_9519" data-name="Path 9519" d="M-868.855,426.516l-1.266,1.267c-.026.026-.062.046-.066.089-.037,0-.052-.033-.073-.055a6.507,6.507,0,0,1-1.778-3.317,6.6,6.6,0,0,1-.128-1.252c0-.074.018-.1.094-.1q.863,0,1.727,0c.085,0,.1.024.1.106A4.519,4.519,0,0,0-868.855,426.516Z" transform="translate(872.167 -413.012)" fill="#28c76f"/>
    <path id="Path_9520" data-name="Path 9520" d="M-679.557,643.665a8.051,8.051,0,0,0,1.4.07c.173,0,.346-.023.518-.035q0,1.462,0,2.924c0,.053-.013.071-.069.071-.595,0-1.19,0-1.785,0-.084,0-.073-.047-.073-.1Q-679.557,645.132-679.557,643.665Z" transform="translate(685.329 -626.696)" fill="#008454"/>
  </g>
</svg>
